<svg width="21" height="23" xmlns="http://www.w3.org/2000/svg"><path d="M11.5.767a.758.758 0 0 1-.75.766.758.758 0 0 1-.75-.766c0-.424.336-.767.75-.767s.75.343.75.767zm6 0a.758.758 0 0 1-.75.766.758.758 0 0 1-.75-.766c0-.424.336-.767.75-.767s.75.343.75.767z" fill="#FFF" fill-rule="evenodd"/><path d="M13.73 14.66c.758 0 1.373-.608 1.373-1.36 0-.75-.615-1.359-1.373-1.359s-1.373.61-1.373 1.36c0 .75.615 1.36 1.373 1.36z" fill="#FF5252"/><path d="M10.182.906V0H7.94l-.13.114c-.932.82-1.405 1.874-1.405 3.13 0 2.769 1.804 8.82 3.57 9.71 2.105 1.058 6.188 1.103 7.696-.045 1.356-1.033 3.217-7.092 3.322-9.646C21.076 1.199 20.537 0 19.335 0h-2.89v.906h2.89c.492 0 .808.705.742 2.32-.094 2.308-1.887 8.144-2.965 8.964-1.194.91-4.907.87-6.722-.044-1.35-.68-3.07-6.453-3.07-8.901 0-.941.32-1.712.972-2.339h1.89z" fill="#FF5252"/><path d="M5.08 14.635c1.383 0 2.11.532 2.317 1.66v2.663C7.127 21.57 8.214 23 10.545 23c2.302 0 3.596-1.385 3.788-3.986l.001-5.764h-.915v5.731c-.158 2.121-1.084 3.113-2.874 3.113-1.752 0-2.46-.939-2.235-3.066l.002-.047v-2.725l-.006-.076c-.278-1.611-1.401-2.45-3.226-2.45-1.803 0-3.018.81-3.543 2.384l-.023.07v1.715h.915V16.33c.407-1.145 1.258-1.696 2.651-1.696z" fill="#FF5252"/><path d="M2.06 21.457a2.05 2.05 0 0 0 2.059-2.04 2.05 2.05 0 0 0-2.06-2.038A2.05 2.05 0 0 0 0 19.418a2.05 2.05 0 0 0 2.06 2.039zm0-.906a1.139 1.139 0 0 1-1.145-1.133c0-.626.513-1.133 1.144-1.133.632 0 1.145.507 1.145 1.133S2.69 20.55 2.059 20.55z" fill="#FF5252"/></svg>