<svg width="20" height="23" xmlns="http://www.w3.org/2000/svg"><path d="M7.18 20.074h5.745s-.504 2.393-2.814 2.393-2.93-2.393-2.93-2.393zM8.553 1.34S8.756 0 10.053 0s1.491 1.34 1.491 1.34H8.553zm8.22 5.729l-.018-.064c-1.04-3.702-3.384-5.601-6.942-5.601-3.563 0-5.862 1.905-6.803 5.613l-.015.058v6.937L0 17.715v1.864h19.645V17.72l-2.872-3.702v-6.95zM.957 18.622v-.569l2.996-3.702V7.195c.844-3.256 2.766-4.834 5.86-4.834 3.096 0 5.067 1.582 6.002 4.84v7.145l2.873 3.702v.574H.958z" fill="#FF5252"/></svg>