<svg width="110" height="42" xmlns="http://www.w3.org/2000/svg"><defs><linearGradient x1="0" y1=".5" x2="1" y2=".5" id="a"><stop offset="0" stop-color="#F26A35"/><stop offset="1" stop-color="#EE3048"/></linearGradient></defs><path d="M62.235 7v9.867h-1.862v-5.675c0-.131.003-.273.01-.426 0-.154.017-.31.034-.468L58 15.371a.788.788 0 0 1-.74.48h-.286a.788.788 0 0 1-.74-.48l-2.418-5.086c.012.162.023.32.032.476.008.157.012.3.012.43v5.676H52V7h1.848a.578.578 0 0 1 .185.041.424.424 0 0 1 .152.104c.052.06.095.127.128.2l2.343 5.011c.082.166.163.35.24.536.075.184.152.374.222.568.07-.199.152-.392.222-.582.07-.19.153-.37.247-.541l2.336-4.985a.812.812 0 0 1 .128-.2.424.424 0 0 1 .153-.104.578.578 0 0 1 .184-.041h.241L62.235 7zm4.155 3.454c.438-.006.874.07 1.286.222.372.14.711.356.994.637.283.285.503.627.646 1.003.158.426.236.877.23 1.33.006.458-.072.912-.23 1.34a2.88 2.88 0 0 1-.646 1.015c-.283.282-.622.5-.994.64a3.799 3.799 0 0 1-2.58 0 2.859 2.859 0 0 1-1.004-.64 2.834 2.834 0 0 1-.651-1.014 3.707 3.707 0 0 1-.23-1.34 3.651 3.651 0 0 1 .23-1.33 2.805 2.805 0 0 1 1.656-1.64 3.607 3.607 0 0 1 1.293-.223zm0 5.033c.427 0 .741-.15.942-.452.2-.303.301-.76.301-1.377 0-.616-.1-1.074-.301-1.374-.202-.3-.515-.45-.942-.45-.427 0-.758.146-.962.45-.204.305-.305.758-.305 1.374 0 .616.102 1.074.305 1.377.202.303.524.452.962.452zm5.987-1.494c.06.521.217.897.472 1.131.272.24.626.366.988.351a1.79 1.79 0 0 0 .556-.077 2.97 2.97 0 0 0 .416-.174l.334-.174c.1-.052.21-.079.322-.078a.383.383 0 0 1 .334.161l.538.667c-.178.209-.387.39-.619.536a3.183 3.183 0 0 1-.681.325c-.228.076-.462.13-.7.162a5.365 5.365 0 0 1-.667.044 3.48 3.48 0 0 1-1.225-.212 2.81 2.81 0 0 1-.998-.634 2.986 2.986 0 0 1-.677-1.043 3.92 3.92 0 0 1-.248-1.452c-.002-.404.07-.804.213-1.182a2.89 2.89 0 0 1 1.573-1.645 3.416 3.416 0 0 1 2.405-.052 2.432 2.432 0 0 1 1.45 1.454c.143.384.213.793.206 1.203.002.114-.004.229-.017.342a.551.551 0 0 1-.067.21.244.244 0 0 1-.129.108.59.59 0 0 1-.206.03h-3.573zm2.335-1.08c0-.146-.02-.29-.057-.431a.958.958 0 0 0-.524-.642 1.156 1.156 0 0 0-.508-.102 1.109 1.109 0 0 0-.826.303 1.58 1.58 0 0 0-.396.878l2.31-.006zM52.295 23.324a3.46 3.46 0 0 1 1.205-.753 4.26 4.26 0 0 1 1.55-.277 4.06 4.06 0 0 1 1.28.19c.35.108.68.287.976.527.257.212.469.489.619.81.144.322.218.681.215 1.045a2.95 2.95 0 0 1-.245 1.204 2.172 2.172 0 0 1-.767.919c.173.104.336.227.488.369a2.24 2.24 0 0 1 .63.995c.061.197.091.404.09.613.003.43-.07.856-.216 1.251a2.893 2.893 0 0 1-.63 1.012 2.928 2.928 0 0 1-1.019.68 3.58 3.58 0 0 1-1.377.252c-.291 0-.582-.032-.868-.093a4.796 4.796 0 0 1-1.603-.663 3.537 3.537 0 0 1-.623-.518l.575-1.049a.608.608 0 0 1 .181-.189.429.429 0 0 1 .245-.076c.13.004.257.047.367.126.128.084.272.177.435.279.184.111.375.205.573.278.44.146.904.166 1.351.057.156-.04.302-.118.43-.229.118-.108.21-.25.268-.41.065-.198.096-.408.09-.619a1.128 1.128 0 0 0-.106-.503 1.011 1.011 0 0 0-.299-.369 1.319 1.319 0 0 0-.46-.222 2.059 2.059 0 0 0-.59-.066h-1.229v-1.738h1.064c.483 0 .842-.094 1.076-.283a.993.993 0 0 0 .351-.819.897.897 0 0 0-.323-.727c-.214-.18-.536-.268-.966-.268a2.05 2.05 0 0 0-.653.095 3.19 3.19 0 0 0-.495.217c-.14.08-.27.15-.38.215a.6.6 0 0 1-.3.096.368.368 0 0 1-.247-.08.833.833 0 0 1-.18-.237l-.483-1.042zm14.326 7.972v3.225a.626.626 0 0 1-.14.431.452.452 0 0 1-.366.169h-1.136v-2.315h-4.027v1.742a.745.745 0 0 1-.029.21.568.568 0 0 1-.09.185.435.435 0 0 1-.375.178H59.31v-3.766h.142c.13 0 .26-.016.386-.05a.791.791 0 0 0 .362-.235c.134-.157.242-.342.32-.545.12-.315.211-.644.273-.982.098-.513.172-1.03.221-1.553.065-.62.116-1.367.154-2.243h4.33v5.549h1.122zm-2.857.06v-4.05h-1.117c-.035.498-.079.955-.132 1.368-.052.414-.11.786-.177 1.116-.058.3-.13.595-.219.885-.07.234-.154.461-.252.68h1.897zm7.012-5.608c.439-.006.875.07 1.286.222a2.8 2.8 0 0 1 1.64 1.64c.159.425.237.876.23 1.33.007.458-.071.912-.23 1.34a2.88 2.88 0 0 1-.646 1.015c-.282.281-.621.5-.994.64-.41.155-.847.232-1.286.226-.441.006-.88-.07-1.294-.226a2.864 2.864 0 0 1-1.003-.64 2.834 2.834 0 0 1-.652-1.014 3.67 3.67 0 0 1-.23-1.34 3.62 3.62 0 0 1 .23-1.33 2.804 2.804 0 0 1 1.655-1.64 3.62 3.62 0 0 1 1.294-.223zm0 5.033c.428 0 .742-.15.942-.452.201-.303.302-.76.302-1.377 0-.616-.1-1.074-.302-1.374-.201-.3-.514-.45-.942-.45-.427 0-.76.146-.962.45-.202.304-.304.758-.304 1.374 0 .616.102 1.074.304 1.377.203.303.524.452.962.452zm5.995-4.031c.256-.29.555-.534.885-.721a2.368 2.368 0 0 1 1.182-.28c.334-.004.664.08.96.243.302.17.562.41.762.703.228.342.398.723.502 1.127.127.492.188 1 .181 1.51a4.9 4.9 0 0 1-.207 1.462 3.764 3.764 0 0 1-.583 1.162 2.723 2.723 0 0 1-.896.77 2.421 2.421 0 0 1-1.155.278 2.158 2.158 0 0 1-.87-.155 2.382 2.382 0 0 1-.64-.42v2.692h-1.984v-9.236h1.23a.47.47 0 0 1 .485.352l.148.512zm.12 4.24c.135.158.301.283.487.364.176.072.363.109.551.107.175.002.348-.037.506-.113.161-.085.299-.212.4-.37.126-.2.216-.424.265-.66.07-.324.101-.656.095-.99a4.775 4.775 0 0 0-.076-.933 1.987 1.987 0 0 0-.214-.611.86.86 0 0 0-.33-.33.905.905 0 0 0-.429-.1 1.377 1.377 0 0 0-.716.164c-.206.13-.389.297-.539.495v2.977zm8.995-5.242c.438-.006.874.07 1.285.222.373.14.712.356.995.637.283.285.503.627.645 1.003.16.425.237.876.23 1.33.007.458-.07.912-.23 1.34a2.88 2.88 0 0 1-.645 1.015 2.82 2.82 0 0 1-.995.64c-.41.155-.847.232-1.285.226-.442.006-.88-.07-1.295-.226a2.864 2.864 0 0 1-1.003-.64 2.834 2.834 0 0 1-.651-1.014 3.67 3.67 0 0 1-.23-1.34 3.62 3.62 0 0 1 .23-1.33 2.804 2.804 0 0 1 1.654-1.64 3.62 3.62 0 0 1 1.295-.223zm0 5.033c.427 0 .741-.15.941-.452.202-.303.302-.76.302-1.377 0-.616-.1-1.074-.302-1.374-.2-.3-.514-.45-.941-.45-.427 0-.76.146-.962.45-.203.304-.305.758-.305 1.374 0 .616.102 1.074.305 1.377.202.303.524.452.962.452zm7.094-5.033c.4-.006.8.034 1.188.118.297.063.579.173.833.327.416.248.663.673.652 1.124 0 .145-.02.289-.058.43-.04.15-.108.292-.201.42a1.43 1.43 0 0 1-.393.365 2.08 2.08 0 0 1-.638.262c.206.043.407.107.598.191.175.078.337.18.477.302a1.228 1.228 0 0 1 .426.959c.01.305-.072.607-.237.874a1.87 1.87 0 0 1-.623.595 3 3 0 0 1-.894.338 4.841 4.841 0 0 1-1.028.108h-3.065v-6.413h2.964zm-.955 1.198v1.415h.894a.934.934 0 0 0 .635-.212.687.687 0 0 0 .246-.547c0-.08-.014-.16-.042-.235a.498.498 0 0 0-.143-.21.789.789 0 0 0-.273-.15 1.31 1.31 0 0 0-.423-.06h-.894zm1.037 3.949a.95.95 0 0 0 .628-.194.652.652 0 0 0 .233-.528c0-.088-.01-.175-.031-.26a.457.457 0 0 0-.124-.216.61.61 0 0 0-.263-.15 1.5 1.5 0 0 0-.443-.054h-1.037v1.396l1.037.006zm7.341-2.876c.434-.009.866.046 1.28.163.319.094.611.248.858.453.216.18.381.403.482.652.103.25.155.514.153.78a1.868 1.868 0 0 1-.728 1.515 2.62 2.62 0 0 1-.868.428 4.05 4.05 0 0 1-1.162.15h-3.09v-6.413h2.018v2.264l1.057.008zm0 2.82a.898.898 0 0 0 .648-.212.747.747 0 0 0 .22-.56.741.741 0 0 0-.052-.276.645.645 0 0 0-.158-.234.726.726 0 0 0-.273-.161 1.145 1.145 0 0 0-.385-.06h-1.049v1.51l1.05-.006zm5.605-1.552c.06.521.219.897.473 1.131.271.24.625.366.987.351.188.004.376-.022.556-.077.143-.047.282-.105.416-.174.121-.065.233-.122.336-.174a.683.683 0 0 1 .319-.078.386.386 0 0 1 .336.161l.538.667c-.18.209-.388.389-.62.536a3.118 3.118 0 0 1-.681.325c-.228.076-.463.13-.7.162a5.363 5.363 0 0 1-.667.044 3.47 3.47 0 0 1-1.223-.212 2.815 2.815 0 0 1-1.001-.634 2.983 2.983 0 0 1-.675-1.043 3.89 3.89 0 0 1-.25-1.452c-.002-.404.07-.804.213-1.182a2.875 2.875 0 0 1 1.573-1.645 3.42 3.42 0 0 1 2.406-.052 2.438 2.438 0 0 1 1.45 1.454c.142.385.212.793.206 1.203.001.114-.005.229-.018.342a.528.528 0 0 1-.066.21.25.25 0 0 1-.128.108.592.592 0 0 1-.207.03h-3.573zm2.334-1.08c0-.146-.019-.29-.057-.431a1.05 1.05 0 0 0-.186-.375.952.952 0 0 0-.337-.268 1.164 1.164 0 0 0-.51-.1 1.11 1.11 0 0 0-.825.302 1.59 1.59 0 0 0-.394.878l2.31-.006zM9 0h24q.23 0 .46.01.228.011.455.032.227.02.452.052.224.032.446.073.221.042.44.094.218.052.432.114.215.063.425.135.21.072.415.154t.406.174q.2.092.395.194.194.101.383.212.189.11.371.23.183.12.359.249.175.129.344.266.17.137.33.283.162.146.316.3.153.153.299.315.146.16.283.33.137.168.266.344.129.176.249.359.12.182.23.37.111.19.212.384.102.195.194.395.092.2.174.406.082.205.154.415t.134.425q.063.214.115.432.052.219.094.44.041.222.073.446.031.225.052.452.021.227.032.455.01.23.01.46v24q0 .23-.01.46-.011.228-.032.455-.02.227-.052.452-.032.224-.073.446-.042.221-.094.44-.052.218-.114.432-.063.215-.135.425-.072.21-.154.415t-.174.406q-.092.2-.194.395-.101.194-.212.383-.11.189-.23.371-.12.183-.249.359-.129.175-.266.344-.137.17-.283.33-.146.162-.3.316-.153.153-.314.299-.162.146-.33.283-.17.137-.345.266-.176.129-.359.249-.182.12-.37.23-.19.111-.384.212-.195.102-.395.194-.2.092-.406.174-.205.082-.415.154t-.425.134q-.214.063-.432.115-.218.052-.44.094-.222.041-.446.073-.225.031-.452.052-.227.021-.456.032Q33.23 42 33 42H9q-.23 0-.46-.01-.228-.011-.455-.032-.227-.02-.452-.052-.224-.032-.446-.073-.221-.042-.44-.094-.218-.052-.432-.114-.214-.063-.425-.135-.21-.072-.415-.154t-.406-.174q-.2-.092-.395-.194-.194-.101-.383-.212-.189-.11-.371-.23-.183-.12-.359-.249t-.344-.266q-.17-.137-.33-.283-.162-.146-.316-.3-.153-.153-.299-.314-.146-.162-.283-.33-.137-.17-.266-.345-.129-.176-.249-.359-.12-.182-.23-.37-.111-.19-.212-.384-.102-.195-.194-.395-.092-.2-.174-.406-.082-.205-.154-.415t-.135-.425q-.062-.214-.114-.432-.052-.218-.094-.44-.041-.222-.073-.446-.031-.225-.052-.452-.021-.227-.032-.456Q0 33.23 0 33V9q0-.23.01-.46.011-.228.032-.455.02-.227.052-.452.032-.224.073-.446.042-.221.094-.44.052-.218.114-.432Q.438 6.1.51 5.89q.072-.21.154-.415t.174-.406q.092-.2.194-.395.101-.194.212-.383.11-.189.23-.371.12-.183.249-.359t.266-.344q.137-.17.283-.33.146-.162.3-.316.153-.153.315-.299.16-.146.33-.283.168-.137.344-.266.176-.129.359-.249.182-.12.37-.23.19-.111.384-.212Q4.87.93 5.07.838q.2-.092.406-.174Q5.68.582 5.89.51t.425-.135q.214-.062.432-.114.219-.052.44-.094.222-.041.446-.073.225-.031.452-.052Q8.312.02 8.54.01 8.77 0 9 0z" fill="#FFF"/><path d="M13.93 27.849c-1.95-2.075-.523-5.467 2.361-5.544h.362c2.913.017 4.407 3.422 2.438 5.518l-.103.11A3.422 3.422 0 0 1 16.498 29c-.947 0-1.85-.387-2.492-1.068l-.076-.083zM6.19 19.29c.748.872 1.527 1.76 2.308 2.635.33.373.89.456 1.319.194a12.958 12.958 0 0 1 13.434-.067c.428.256.983.172 1.312-.198.776-.878 1.56-1.768 2.307-2.64a.994.994 0 0 0-.225-1.492c-6.144-3.962-14.123-3.93-20.235.08a.992.992 0 0 0-.22 1.488zm-4.766-6.11c.512.811 1.242 1.794 2.09 2.881.337.425.957.516 1.407.206 6.968-4.747 16.219-4.777 23.22-.076.45.303 1.062.21 1.396-.212a33.556 33.556 0 0 0 2.083-2.89.994.994 0 0 0-.298-1.353c-8.922-6.017-20.732-5.98-29.615.09a.995.995 0 0 0-.283 1.354zM16.442 3.086a3.302 3.302 0 0 1-2.192-.842C11.722.008 8.056-.69 4.871.761 1.75 2.184-.05 5.28.001 8.537c.005.366.212.7.54.875.33.174.73.16 1.046-.036a28.42 28.42 0 0 1 14.84-4.22h.156a28.455 28.455 0 0 1 14.826 4.113c.318.202.724.216 1.057.038.332-.178.537-.52.534-.891 0-3.213-1.788-6.25-4.87-7.655-3.185-1.45-6.85-.758-9.38 1.483a3.315 3.315 0 0 1-2.201.842h-.107z" transform="translate(5 7)" fill="url(#a)"/></svg>