<svg width="22" height="22" xmlns="http://www.w3.org/2000/svg"><path d="M4.13.703h16.26v16.66c0 2.073-.785 3.028-2.424 3.028H.703V6.34h2.71v9.632h.716V.703zM0 5.638v15.456h17.957c2.069 0 3.137-1.298 3.137-3.73V0H3.422v5.638H0z" fill="#FF5252"/><g fill="#FF5252"><path d="M7.36 11.228a.33.33 0 0 1-.329-.33 5.28 5.28 0 0 1 5.274-5.273c1.408 0 2.733.549 3.728 1.545a.33.33 0 1 1-.466.466 4.582 4.582 0 0 0-3.262-1.352 4.62 4.62 0 0 0-4.615 4.614.33.33 0 0 1-.33.33z"/><path d="M16.094 8.262h-1.812a.33.33 0 1 1 0-.66h1.648V5.956a.33.33 0 1 1 .66 0v1.811a.496.496 0 0 1-.496.496zm-3.789 7.91a5.237 5.237 0 0 1-3.729-1.545.33.33 0 1 1 .466-.466 4.582 4.582 0 0 0 3.263 1.352 4.62 4.62 0 0 0 4.614-4.615.33.33 0 1 1 .66 0 5.28 5.28 0 0 1-5.274 5.274z"/><path d="M8.35 16.172a.33.33 0 0 1-.33-.33v-1.811c0-.274.222-.496.495-.496h1.812a.33.33 0 1 1 0 .66H8.68v1.647a.33.33 0 0 1-.33.33z"/></g></svg>