<svg width="119" height="37" xmlns="http://www.w3.org/2000/svg"><path d="M8.722 34.556v-7.45H7.226a.953.953 0 0 0-.374.077c-.122.05-.227.158-.315.322l-1.761 3.13a4.12 4.12 0 0 0-.216.457 13.84 13.84 0 0 0-.188.493 9.515 9.515 0 0 0-.19-.49 5.36 5.36 0 0 0-.22-.46l-1.776-3.13a.653.653 0 0 0-.312-.319.956.956 0 0 0-.378-.08H0v7.45h1.636V30.41a7.06 7.06 0 0 0-.117-1.188l2.245 4.036a.539.539 0 0 0 .513.311h.19a.54.54 0 0 0 .515-.311l2.215-4.015a4.49 4.49 0 0 0-.085.594 7.212 7.212 0 0 0-.025.573v4.145h1.635zm8.563.016v-7.434h-1.1a.577.577 0 0 0-.382.142 1.353 1.353 0 0 0-.272.3 416.617 416.617 0 0 0-1.988 2.764 273.11 273.11 0 0 1-.814 1.127 3.77 3.77 0 0 0-.462.783c.02-.135.035-.27.047-.402a3.99 3.99 0 0 0 .02-.366v-4.34H10.52v7.434h1.108a.554.554 0 0 0 .378-.145c.11-.097.199-.196.267-.298.538-.748 1.02-1.42 1.445-2.014l.536-.743a238.955 238.955 0 0 0 .814-1.13 4.02 4.02 0 0 1 .147-.199 3.52 3.52 0 0 0 .323-.587c-.02.136-.036.269-.048.402a4 4 0 0 0-.018.366v4.34h1.812zM96.08 9.75a.35.35 0 0 0 .059-.063l.176-.248a1.456 1.456 0 0 0-.464-.324A1.488 1.488 0 0 0 95.248 9c-.244 0-.46.042-.647.126a1.32 1.32 0 0 0-.47.348 1.533 1.533 0 0 0-.289.53 2.175 2.175 0 0 0-.098.666q0 .398.11.708c.072.207.172.382.298.525.126.143.275.252.444.327.17.076.352.114.547.114.113 0 .225-.01.336-.028a1.445 1.445 0 0 0 .614-.25c.092-.065.176-.146.252-.241l-.187-.251a.141.141 0 0 0-.124-.064.185.185 0 0 0-.122.048 2.268 2.268 0 0 1-.137.104.957.957 0 0 1-.2.106q-.12.047-.312.047a.73.73 0 0 1-.615-.299 1.078 1.078 0 0 1-.168-.36 1.84 1.84 0 0 1-.058-.486c0-.176.018-.334.054-.475a1.02 1.02 0 0 1 .163-.36.739.739 0 0 1 .272-.227.845.845 0 0 1 .377-.08.865.865 0 0 1 .467.123c.052.03.098.059.136.084a.195.195 0 0 0 .109.038.126.126 0 0 0 .08-.022zm-24.504 2.546V9.042h-.54c-.044 0-.09.01-.135.03a.247.247 0 0 0-.114.125l-.842 1.508a1.805 1.805 0 0 0-.08.178 6.458 6.458 0 0 0-.07.191l-.07-.19a1.585 1.585 0 0 0-.079-.179l-.853-1.508a.276.276 0 0 0-.116-.124.311.311 0 0 0-.134-.031H68v3.254h.598v-1.963c0-.07-.004-.149-.013-.237a4.33 4.33 0 0 0-.033-.244l1.02 1.868c.02.038.047.068.08.09a.185.185 0 0 0 .108.034h.071a.195.195 0 0 0 .112-.033.253.253 0 0 0 .08-.091l1.001-1.858a3.648 3.648 0 0 0-.043.47v1.964h.595zm10.694 0V9.05h-.4a.205.205 0 0 0-.14.054.483.483 0 0 0-.098.118l-1.366 1.934a1.428 1.428 0 0 0-.126.242 2.916 2.916 0 0 0 .028-.315V9.05h-.663v3.248h.4a.2.2 0 0 0 .139-.056.52.52 0 0 0 .099-.116l1.366-1.937a.754.754 0 0 0 .063-.107c.02-.039.04-.082.06-.129a2.387 2.387 0 0 0-.025.309v2.033h.663zm7.346 0V9.05h-.401a.205.205 0 0 0-.139.054.476.476 0 0 0-.098.118l-1.366 1.934a1.436 1.436 0 0 0-.126.242 2.916 2.916 0 0 0 .027-.315V9.05h-.662v3.248h.4a.2.2 0 0 0 .139-.056.52.52 0 0 0 .099-.116l1.366-1.937a.773.773 0 0 0 .063-.107c.02-.039.04-.082.06-.129a2.453 2.453 0 0 0-.025.309v2.033h.663zm3.49-3.245v3.245h-.66v-1.473h-1.36v1.473h-.662V9.05h.662v1.257h1.36V9.05h.66zm9.808 3.245V9.05h-.4a.206.206 0 0 0-.139.054.483.483 0 0 0-.099.118l-1.365 1.934a1.407 1.407 0 0 0-.127.242 2.826 2.826 0 0 0 .028-.315V9.05h-.663v3.248h.401a.201.201 0 0 0 .139-.056.528.528 0 0 0 .098-.116l1.366-1.937a.754.754 0 0 0 .063-.107c.02-.039.04-.082.06-.129a2.207 2.207 0 0 0-.024.309v2.033h.662zm-16.578-.516v1.41a.212.212 0 0 1-.052.15.178.178 0 0 1-.136.056h-.41v-1.1h-2.66V9.05h.663v2.73H85.1V9.05h.66v2.73h.576zm12.432-2.545a.378.378 0 0 1 .312-.184h.518l-.774 1.218a.95.95 0 0 1-.154.2.549.549 0 0 1-.198.118c.101.03.185.075.252.136.067.06.127.138.18.233l.78 1.34h-.456a.514.514 0 0 1-.273-.06.49.49 0 0 1-.165-.179l-.533-.948a.425.425 0 0 0-.17-.178.491.491 0 0 0-.237-.057h-.312v1.425h-.662V9.05h.662v1.365h.269a.416.416 0 0 0 .215-.052.42.42 0 0 0 .148-.155l.598-.974zm-8.699 7.12v3.254h-.595v-1.963a3.607 3.607 0 0 1 .043-.47l-1.002 1.857a.247.247 0 0 1-.08.09.193.193 0 0 1-.11.034h-.072a.186.186 0 0 1-.11-.034.256.256 0 0 1-.078-.09l-1.02-1.868c.012.075.023.156.032.244a2.1 2.1 0 0 1 .014.237v1.963h-.598v-3.255h.543c.045 0 .09.01.134.032a.274.274 0 0 1 .116.124l.853 1.508c.029.055.055.115.079.178l.07.191c.022-.063.046-.127.07-.19.025-.064.051-.124.08-.18l.842-1.507a.245.245 0 0 1 .114-.125c.045-.02.09-.03.136-.03h.54zm-19.304.009v3.245h-.663v-2.033a2.212 2.212 0 0 1 .025-.309c-.02.047-.04.09-.06.13a.761.761 0 0 1-.063.106l-1.366 1.937a.529.529 0 0 1-.098.116.201.201 0 0 1-.139.056H68v-3.248h.663v2.033a2.896 2.896 0 0 1-.028.315c.041-.098.083-.178.127-.242l1.365-1.934a.484.484 0 0 1 .099-.118.204.204 0 0 1 .138-.054h.401zm3.49 3.245v-3.245h-.66v1.257h-1.36v-1.257h-.662v3.245h.663v-1.473h1.36v1.473h.659zm26.261-3.245v3.245h-.663v-2.033a1.96 1.96 0 0 1 .025-.309c-.02.047-.04.09-.06.13a.763.763 0 0 1-.063.106l-1.366 1.937a.52.52 0 0 1-.099.116.2.2 0 0 1-.138.056h-.401v-3.248h.663v2.033a2.916 2.916 0 0 1-.028.315c.04-.098.083-.178.126-.242l1.366-1.934a.474.474 0 0 1 .099-.118.203.203 0 0 1 .138-.054h.401zm7.01 3.245v-3.245h-.66v1.257h-1.36v-1.257h-.662v3.245h.663v-1.473h1.36v1.473h.659zm3.493-3.245v3.245h-.66v-1.473h-1.36v1.473h-.662v-3.245H109v1.257h1.359v-1.257h.66zm-13.783 4.138v-1.409h-.576v-2.729H96v2.73h-1.36v-2.73h-.662v3.244h2.66v1.101h.41c.056 0 .1-.018.136-.056a.212.212 0 0 0 .052-.15zm-18.194 6.42v-3.245h-.66v2.73H77.23v-2.73h-.663v2.73h-1.153v-2.73h-.663v3.245h4.291zm6.767-3.245v3.245h-.66v-1.473h-1.36v1.473h-.662v-3.245h.663v1.256h1.359v-1.256h.66zm3.576 3.245v-3.245h-.401a.204.204 0 0 0-.139.054.476.476 0 0 0-.098.118l-1.366 1.934a1.467 1.467 0 0 0-.127.241 2.965 2.965 0 0 0 .028-.314v-2.033h-.663v3.248h.401a.203.203 0 0 0 .14-.056.545.545 0 0 0 .098-.116l1.365-1.937a.815.815 0 0 0 .063-.107c.02-.04.04-.082.06-.129a2.213 2.213 0 0 0-.024.309v2.033h.663z" fill="#BDBDBD" fill-rule="evenodd"/><path d="M44.72 7.589a.716.716 0 0 0-.175-.524.716.716 0 0 0-.546-.248.72.72 0 0 0-.544 1.195.718.718 0 0 0 .495.247.72.72 0 0 0 .77-.67m8.288 15.65a.714.714 0 0 0 .524-.176.717.717 0 0 0 .246-.495.717.717 0 0 0-.67-.77.722.722 0 0 0-.1 1.44M61 17.003C61 7.613 53.389 0 44 0S27 7.612 27 17.003c0 8.152 5.735 14.962 13.39 16.618V23.346a.196.196 0 0 0-.058-.139l-1.747-1.748a.196.196 0 0 0-.14-.057h-1.788a.195.195 0 0 0-.183.127 1.637 1.637 0 0 1-1.53 1.054h-.016a1.644 1.644 0 0 1-1.18-.528 1.642 1.642 0 0 1-.444-1.212 1.635 1.635 0 0 1 1.752-1.538 1.631 1.631 0 0 1 1.418 1.051c.03.077.101.127.183.127h2.115c.087 0 .17.034.232.096l2.21 2.21a.327.327 0 0 1 .095.231v10.773c.73.117 1.474.187 2.231.207V20.577a.197.197 0 0 0-.057-.139l-4.897-4.898a.198.198 0 0 0-.14-.058h-3.359a.195.195 0 0 0-.183.128 1.644 1.644 0 0 1-1.53 1.054h-.014a1.646 1.646 0 0 1-1.182-.529 1.643 1.643 0 0 1-.444-1.212c.027-.443.226-.848.562-1.139.33-.287.753-.43 1.19-.399a1.63 1.63 0 0 1 1.418 1.052c.03.077.101.126.183.126h2.743a.197.197 0 0 0 .197-.197v-1.961a.197.197 0 0 0-.129-.184 1.633 1.633 0 0 1-1.048-1.646c.03-.437.229-.836.56-1.124.33-.287.754-.429 1.19-.398.438.03.837.23 1.125.56.287.33.429.754.399 1.191a1.63 1.63 0 0 1-1.052 1.419.195.195 0 0 0-.126.183v2.113a.2.2 0 0 0 .057.14l4.426 4.425a.064.064 0 0 0 .071.014c.01-.004.04-.02.04-.06V9.252a.196.196 0 0 0-.128-.183 1.633 1.633 0 0 1-1.049-1.645c.03-.438.23-.837.56-1.125.33-.287.755-.429 1.191-.399.438.031.837.23 1.124.56.288.332.43.755.399 1.192a1.632 1.632 0 0 1-1.05 1.419.195.195 0 0 0-.127.183v12.147c0 .04.03.057.04.06.01.004.043.015.071-.014l4.425-4.425a.197.197 0 0 0 .058-.14v-3.69a.197.197 0 0 0-.129-.184 1.633 1.633 0 0 1-1.049-1.646c.031-.437.23-.836.56-1.124a1.63 1.63 0 0 1 1.192-.399c.437.031.836.23 1.124.561.287.33.43.754.398 1.191a1.631 1.631 0 0 1-1.05 1.418.195.195 0 0 0-.127.183v3.54c0 .108.088.197.197.197h2.748c.082 0 .154-.05.183-.128a1.637 1.637 0 0 1 1.646-1.05c.438.03.837.23 1.124.56.288.331.43.754.4 1.191a1.63 1.63 0 0 1-.561 1.125c-.328.285-.755.43-1.191.399a1.649 1.649 0 0 1-1.416-1.05.198.198 0 0 0-.184-.128h-3.367a.194.194 0 0 0-.14.058l-4.895 4.896a.197.197 0 0 0-.057.139V34c.757-.02 1.502-.09 2.231-.207v-9.197c0-.087.035-.17.096-.232l2.21-2.21a.327.327 0 0 1 .232-.096h2.254c.088-.302.26-.57.498-.779.33-.287.755-.43 1.191-.399.437.031.837.23 1.124.56.288.332.43.755.399 1.192a1.64 1.64 0 0 1-3.21.346h-1.93a.196.196 0 0 0-.14.057l-1.747 1.748a.197.197 0 0 0-.058.14v8.698C55.265 31.965 61 25.155 61 17.003m-26.008 3.219a.72.72 0 0 0-.595 1.194.716.716 0 0 0 .495.247.717.717 0 0 0 .77-.67.715.715 0 0 0-.175-.524.716.716 0 0 0-.495-.247m19.591-2.113a.709.709 0 0 0 .524-.175.717.717 0 0 0 .246-.495.717.717 0 0 0-.721-.772.722.722 0 0 0-.049 1.442M39.206 10.74a.716.716 0 0 0-.175-.524.716.716 0 0 0-.546-.248.722.722 0 1 0 .721.772m10.781 1.283a.717.717 0 0 0 .247-.495.715.715 0 0 0-.176-.524.717.717 0 0 0-.545-.248.72.72 0 0 0-.72.671.718.718 0 0 0 .176.524.716.716 0 0 0 .494.247.713.713 0 0 0 .524-.175m-16.07 2.526a.716.716 0 0 1 .175.524.717.717 0 0 1-.246.495.718.718 0 0 1-1.018-.072.716.716 0 0 1-.176-.524.717.717 0 0 1 .77-.67.719.719 0 0 1 .495.247" fill="#BDBDBD"/><path d="M74.45 10.307c0-.114-.017-.22-.049-.32a.761.761 0 0 0-.14-.257.644.644 0 0 0-.23-.172.762.762 0 0 0-.316-.062c-.24 0-.43.071-.567.213-.137.142-.225.342-.262.598h1.563zm-1.582.42c.008.185.036.344.083.479.047.135.11.247.19.336a.74.74 0 0 0 .283.198c.11.044.233.066.369.066.129 0 .24-.016.335-.046.095-.031.177-.065.247-.102.07-.037.13-.071.179-.102a.26.26 0 0 1 .136-.046.14.14 0 0 1 .123.064l.188.25a1.213 1.213 0 0 1-.265.242 1.51 1.51 0 0 1-.315.161 1.74 1.74 0 0 1-.342.09 2.243 2.243 0 0 1-.342.026 1.6 1.6 0 0 1-.606-.113 1.343 1.343 0 0 1-.484-.332 1.547 1.547 0 0 1-.32-.544 2.223 2.223 0 0 1-.116-.747c0-.226.034-.435.103-.63a1.5 1.5 0 0 1 .296-.51c.129-.144.285-.258.469-.341.184-.084.392-.126.624-.126.193 0 .372.032.537.097.164.065.306.16.425.284.12.126.212.28.279.46.067.182.1.388.1.619 0 .106-.011.177-.034.213-.023.036-.064.054-.123.054h-2.02zm4.904 1.075v-2.22h-.882a9.806 9.806 0 0 1-.078.799 6.792 6.792 0 0 1-.117.624 3.41 3.41 0 0 1-.147.468 2.02 2.02 0 0 1-.167.33h1.391zm1.218-.022v1.41a.207.207 0 0 1-.054.15.184.184 0 0 1-.137.056h-.41v-1.1H75.9v.906a.22.22 0 0 1-.045.134c-.03.04-.076.06-.137.06h-.42v-1.594h.096a.702.702 0 0 0 .213-.033.484.484 0 0 0 .2-.135c.064-.068.125-.164.182-.288.058-.124.11-.288.156-.492.046-.203.087-.452.122-.747s.062-.647.083-1.056h2.062v2.729h.577z" fill="#757575"/><path d="M20.887 32.645c.205.246.429.42.671.522.243.1.505.152.789.152.274 0 .52-.051.74-.152.22-.101.408-.256.562-.464.154-.207.273-.47.356-.786.083-.317.125-.69.125-1.12 0-.435-.036-.803-.107-1.105a2.127 2.127 0 0 0-.304-.735 1.207 1.207 0 0 0-.48-.414 1.52 1.52 0 0 0-.643-.13c-.376 0-.696.079-.96.236a2.899 2.899 0 0 0-.749.663v3.333zm-.095-4.493a3.91 3.91 0 0 1 1.049-.833c.39-.212.85-.319 1.379-.319a2.5 2.5 0 0 1 1.126.254c.34.169.633.414.88.736.247.321.438.717.573 1.188.134.471.201 1.01.201 1.62 0 .555-.076 1.07-.227 1.543a3.768 3.768 0 0 1-.65 1.232c-.28.348-.62.62-1.02.815a3.003 3.003 0 0 1-1.338.293c-.42 0-.78-.064-1.078-.191a2.648 2.648 0 0 1-.8-.533V37h-1.812v-9.862h1.108c.234 0 .389.109.462.326l.147.688z"/><path d="M105.784 10.307c0-.114-.016-.22-.048-.32a.755.755 0 0 0-.14-.257.644.644 0 0 0-.23-.172.76.76 0 0 0-.316-.062c-.24 0-.43.071-.567.213-.137.142-.225.342-.262.598h1.563zm-1.581.42c.008.185.035.344.083.479.047.135.11.247.19.336a.727.727 0 0 0 .283.198c.11.044.233.066.369.066.129 0 .24-.016.335-.046.095-.031.177-.065.247-.102.07-.037.13-.071.179-.102a.26.26 0 0 1 .136-.046.14.14 0 0 1 .123.064l.188.25a1.213 1.213 0 0 1-.265.242 1.51 1.51 0 0 1-.315.161 1.713 1.713 0 0 1-.342.09c-.117.017-.23.026-.342.026a1.6 1.6 0 0 1-.606-.113 1.343 1.343 0 0 1-.484-.332 1.547 1.547 0 0 1-.32-.544 2.223 2.223 0 0 1-.116-.747c0-.226.034-.435.103-.63a1.5 1.5 0 0 1 .296-.51c.129-.144.285-.258.469-.341.184-.084.392-.126.624-.126.193 0 .372.032.537.097.164.065.306.16.425.284.119.126.212.28.279.46.067.182.1.388.1.619 0 .106-.011.177-.034.213-.023.036-.064.054-.123.054h-2.02zm-27.035 8.414c.335-.023.592-.135.773-.334.18-.199.269-.473.269-.82 0-.348-.09-.623-.27-.823-.18-.2-.437-.312-.772-.336v2.313zm-.58-2.313c-.334.024-.592.136-.772.336-.18.2-.27.475-.27.823 0 .347.09.621.27.82.18.2.438.31.773.334v-2.313zm.599-.512c.255.013.485.06.693.143.208.083.384.197.53.34.146.145.26.317.34.516.08.2.12.422.12.668 0 .246-.04.469-.12.668a1.506 1.506 0 0 1-.87.857 2.125 2.125 0 0 1-.693.145v1.056h-.62v-1.056a2.121 2.121 0 0 1-.694-.145 1.506 1.506 0 0 1-.87-.857c-.08-.2-.12-.422-.12-.668 0-.244.04-.465.121-.665a1.51 1.51 0 0 1 .87-.857 2.13 2.13 0 0 1 .693-.145v-1.288h.62v1.288zm3.668 2.806c.284 0 .495-.098.634-.294.139-.197.208-.477.208-.842s-.07-.646-.208-.844c-.139-.198-.35-.298-.634-.298-.288 0-.501.1-.641.298-.14.198-.21.48-.21.844 0 .365.07.645.21.842.14.196.353.294.641.294m0-2.809c.232 0 .443.04.63.118.189.078.349.19.482.334.132.144.234.32.306.525.072.205.108.437.108.693 0 .257-.036.488-.108.694a1.505 1.505 0 0 1-.306.526 1.344 1.344 0 0 1-.481.336 1.624 1.624 0 0 1-.63.117 1.64 1.64 0 0 1-.634-.117 1.36 1.36 0 0 1-.483-.336 1.497 1.497 0 0 1-.308-.526 2.095 2.095 0 0 1-.108-.694c0-.256.036-.488.108-.693a1.48 1.48 0 0 1 .308-.525c.134-.145.295-.256.483-.334.188-.079.4-.118.633-.118m2.824 2.481c.092.123.193.21.303.26.11.05.232.074.365.074a.712.712 0 0 0 .606-.292c.145-.195.217-.486.217-.872 0-.2-.016-.37-.049-.51a1.006 1.006 0 0 0-.141-.346.56.56 0 0 0-.226-.194.722.722 0 0 0-.299-.06.816.816 0 0 0-.436.113 1.25 1.25 0 0 0-.34.323v1.504zm-.034-1.96c.13-.158.28-.287.448-.384a1.14 1.14 0 0 1 .585-.146c.176 0 .336.036.48.11.144.073.267.18.37.32.103.139.182.312.239.52.057.206.085.443.085.71 0 .24-.032.463-.094.67a1.659 1.659 0 0 1-.27.537 1.213 1.213 0 0 1-.99.485 1.08 1.08 0 0 1-.47-.092 1.222 1.222 0 0 1-.35-.254v1.377h-.662v-4.323h.4c.091 0 .148.043.173.13l.056.34zm8.915 1.356a4.03 4.03 0 0 0-.598.059c-.163.03-.294.07-.395.117a.52.52 0 0 0-.217.17.38.38 0 0 0-.067.217c0 .076.012.141.036.195a.35.35 0 0 0 .098.134c.043.035.092.06.149.076a.925.925 0 0 0 .632-.076 1.4 1.4 0 0 0 .361-.291v-.601zm-1.758-1.375a1.77 1.77 0 0 1 1.27-.512c.181 0 .342.03.483.09a.99.99 0 0 1 .355.257c.095.11.168.241.218.393.05.151.076.32.076.504v2.061h-.296a.28.28 0 0 1-.145-.03c-.033-.02-.06-.06-.083-.122l-.065-.264c-.08.074-.16.14-.237.199a1.464 1.464 0 0 1-.242.147c-.084.04-.173.071-.268.091-.096.02-.202.03-.316.03-.128 0-.247-.018-.357-.054a.778.778 0 0 1-.284-.164.772.772 0 0 1-.19-.272.96.96 0 0 1-.07-.381c0-.125.033-.247.097-.366a.9.9 0 0 1 .321-.32c.149-.094.345-.172.589-.234.244-.061.544-.096.901-.105v-.216c0-.233-.048-.407-.144-.522-.097-.114-.239-.171-.426-.171a.9.9 0 0 0-.32.049 1.426 1.426 0 0 0-.226.106c-.063.038-.12.074-.169.107a.28.28 0 0 1-.157.05.186.186 0 0 1-.116-.037.293.293 0 0 1-.078-.091l-.12-.223zm11.881 2.307c.284 0 .495-.098.634-.294.138-.197.208-.477.208-.842s-.07-.646-.208-.844c-.139-.198-.35-.298-.634-.298-.287 0-.501.1-.641.298-.14.198-.21.48-.21.844 0 .365.07.645.21.842.14.196.354.294.641.294m0-2.809c.233 0 .443.04.63.118.189.078.349.19.481.334.133.144.236.32.307.525.072.205.108.437.108.693 0 .257-.036.488-.108.694a1.506 1.506 0 0 1-.307.526 1.338 1.338 0 0 1-.48.336 1.62 1.62 0 0 1-.63.117 1.64 1.64 0 0 1-.634-.117 1.357 1.357 0 0 1-.483-.336 1.497 1.497 0 0 1-.308-.526 2.095 2.095 0 0 1-.108-.694c0-.256.036-.488.108-.693a1.48 1.48 0 0 1 .308-.525c.134-.145.295-.256.483-.334.188-.079.4-.118.633-.118m12.188 3.295h.663v-3.244h-.663v3.244zm-1.793-.496a.744.744 0 0 0 .254-.04.516.516 0 0 0 .182-.108.422.422 0 0 0 .108-.163.6.6 0 0 0 .003-.403.416.416 0 0 0-.102-.159.484.484 0 0 0-.18-.108.816.816 0 0 0-.272-.04h-.613v1.021h.62zm-.01-1.514c.218 0 .402.027.552.081.15.054.271.127.364.218a.81.81 0 0 1 .2.317 1.142 1.142 0 0 1-.015.785.9.9 0 0 1-.227.323 1.03 1.03 0 0 1-.367.212 1.52 1.52 0 0 1-.497.074h-1.249v-3.244h.629v1.234h.61zm5.337.022c0-.114-.016-.22-.048-.32a.755.755 0 0 0-.14-.257.644.644 0 0 0-.23-.172.76.76 0 0 0-.316-.062c-.24 0-.43.071-.567.213-.138.142-.225.342-.262.598h1.563zm-1.582.42c.009.185.037.344.083.479a.993.993 0 0 0 .19.335c.08.09.174.156.284.2.11.043.233.065.368.065.13 0 .242-.016.336-.047.095-.03.177-.064.247-.101.07-.037.13-.071.179-.102a.26.26 0 0 1 .135-.046.14.14 0 0 1 .123.063l.189.252a1.213 1.213 0 0 1-.266.241c-.098.066-.203.12-.314.161a1.74 1.74 0 0 1-.342.09 2.38 2.38 0 0 1-.342.026c-.218 0-.42-.037-.606-.113a1.346 1.346 0 0 1-.484-.332 1.547 1.547 0 0 1-.32-.544 2.224 2.224 0 0 1-.116-.747c0-.226.034-.435.103-.63.069-.196.168-.365.296-.51.129-.144.285-.258.469-.341.184-.084.392-.126.624-.126.193 0 .372.032.536.097.165.065.306.16.426.284.119.126.212.28.279.46.066.182.1.388.1.619 0 .106-.011.177-.034.213-.023.036-.064.054-.123.054h-2.02zm-48.16 8.067a.8.8 0 0 0 .303.26.87.87 0 0 0 .366.074.71.71 0 0 0 .605-.292c.145-.195.218-.486.218-.872 0-.2-.016-.37-.05-.51a1.006 1.006 0 0 0-.141-.346.553.553 0 0 0-.225-.194.722.722 0 0 0-.3-.06.815.815 0 0 0-.435.113 1.249 1.249 0 0 0-.341.322v1.505zm-.034-1.96c.131-.158.28-.287.448-.384a1.14 1.14 0 0 1 .585-.146 1.025 1.025 0 0 1 .85.43c.103.139.183.312.24.52.056.206.084.443.084.71 0 .24-.031.463-.094.67a1.647 1.647 0 0 1-.27.537 1.213 1.213 0 0 1-.99.485 1.08 1.08 0 0 1-.47-.092 1.212 1.212 0 0 1-.35-.254V28H68v-4.323h.4c.091 0 .149.043.173.13l.056.34zm4.911.786c0-.114-.016-.22-.048-.32a.755.755 0 0 0-.14-.257.647.647 0 0 0-.23-.172.762.762 0 0 0-.316-.062c-.24 0-.43.071-.567.213-.138.142-.225.342-.262.598h1.563zm-1.581.42c.007.185.035.344.083.479a.96.96 0 0 0 .19.335c.078.09.173.156.283.2.11.043.233.065.368.065.13 0 .242-.016.336-.047.095-.03.177-.064.247-.101.07-.037.13-.071.178-.102a.265.265 0 0 1 .136-.046.14.14 0 0 1 .124.063l.188.252a1.221 1.221 0 0 1-.265.241c-.1.066-.204.12-.315.161a1.758 1.758 0 0 1-.342.09 2.243 2.243 0 0 1-.342.026 1.6 1.6 0 0 1-.606-.113 1.343 1.343 0 0 1-.484-.332 1.547 1.547 0 0 1-.32-.544 2.215 2.215 0 0 1-.116-.748c0-.225.034-.434.103-.63a1.5 1.5 0 0 1 .296-.508c.128-.145.285-.259.468-.342a1.49 1.49 0 0 1 .625-.126c.193 0 .372.032.537.097.164.065.306.16.425.284.119.126.212.28.279.46.066.182.1.388.1.619 0 .106-.011.177-.034.213-.023.036-.064.054-.123.054h-2.02zm9.956-.42c0-.114-.016-.22-.048-.32a.755.755 0 0 0-.14-.257.647.647 0 0 0-.23-.172.762.762 0 0 0-.316-.062c-.24 0-.43.071-.567.213-.138.142-.225.342-.262.598h1.563zm-1.581.42c.007.185.035.344.083.479a.96.96 0 0 0 .19.335c.078.09.173.156.283.2.11.043.233.065.368.065.13 0 .242-.016.336-.047.095-.03.177-.064.247-.101.07-.037.13-.071.178-.102a.265.265 0 0 1 .136-.046.14.14 0 0 1 .124.063l.188.252a1.221 1.221 0 0 1-.265.241c-.1.066-.204.12-.315.161a1.758 1.758 0 0 1-.342.09 2.243 2.243 0 0 1-.342.026 1.6 1.6 0 0 1-.606-.113 1.343 1.343 0 0 1-.484-.332 1.547 1.547 0 0 1-.32-.544 2.215 2.215 0 0 1-.116-.748c0-.225.034-.434.103-.63a1.5 1.5 0 0 1 .296-.508c.128-.145.285-.259.468-.342a1.49 1.49 0 0 1 .625-.126c.193 0 .372.032.537.097.164.065.306.16.425.284.119.126.212.28.279.46.066.182.1.388.1.619 0 .106-.011.177-.034.213-.023.036-.064.054-.123.054h-2.02zm11.504-.193v-1.031h-.465a.665.665 0 0 0-.268.047.455.455 0 0 0-.265.29.62.62 0 0 0-.029.18c0 .16.056.285.165.376.11.092.259.137.446.137h.416zm.632-1.483v3.244h-.632v-1.329h-.182a.573.573 0 0 0-.148.016.334.334 0 0 0-.1.044.346.346 0 0 0-.074.07.993.993 0 0 0-.063.093l-.589.868a.488.488 0 0 1-.153.18.477.477 0 0 1-.263.058h-.456l.848-1.18a.603.603 0 0 1 .326-.286 1.206 1.206 0 0 1-.388-.121.892.892 0 0 1-.26-.2.735.735 0 0 1-.143-.25.852.852 0 0 1-.044-.269c0-.116.022-.23.066-.343a.8.8 0 0 1 .211-.301 1.09 1.09 0 0 1 .375-.213c.153-.054.337-.081.553-.081h1.116z" fill="#757575"/></svg>