<svg width="29" height="18" xmlns="http://www.w3.org/2000/svg"><g fill="#FF5252"><path d="M26.583 4.316c1.168 0 2.115-.963 2.115-2.15 0-1.189-.947-2.152-2.115-2.152-1.168 0-2.115.963-2.115 2.151 0 1.188.947 2.15 2.115 2.15zm0-.956a1.185 1.185 0 0 1-1.175-1.195c0-.66.526-1.195 1.175-1.195s1.175.535 1.175 1.195-.526 1.195-1.175 1.195zm-7.521 10.514c1.168 0 2.115-.963 2.115-2.15 0-1.188-.947-2.151-2.115-2.151-1.168 0-2.115.963-2.115 2.15 0 1.188.947 2.151 2.115 2.151zm0-.956a1.185 1.185 0 0 1-1.175-1.195c0-.66.526-1.194 1.175-1.194.65 0 1.175.535 1.175 1.194 0 .66-.526 1.195-1.175 1.195zM9.191 7.661c1.168 0 2.115-.963 2.115-2.15 0-1.188-.947-2.151-2.115-2.151-1.168 0-2.115.963-2.115 2.15 0 1.188.947 2.151 2.115 2.151zm0-.956a1.185 1.185 0 0 1-1.175-1.194c0-.66.526-1.195 1.175-1.195.65 0 1.175.535 1.175 1.195S9.84 6.705 9.191 6.705zM2.14 17.22c1.169 0 2.116-.963 2.116-2.151 0-1.188-.947-2.15-2.116-2.15-1.168 0-2.115.962-2.115 2.15s.947 2.15 2.115 2.15zm0-.956a1.185 1.185 0 0 1-1.175-1.195c0-.66.526-1.195 1.175-1.195.65 0 1.176.535 1.176 1.195s-.527 1.195-1.176 1.195z"/><path d="M25.329 3.167l-5.752 7.442.74.59 5.75-7.442-.738-.59zM7.891 6.042l-4.993 7.481.778.537 4.993-7.482-.778-.536zm2.77.011l7.397 4.298-.466.83-7.397-4.298.466-.83z"/></g></svg>