<svg width="26" height="23" xmlns="http://www.w3.org/2000/svg"><path d="M8.856 17.713a3.59 3.59 0 0 0 3.59-3.59c0-1.272-1.06-3.533-3.185-6.89l-.405-.64-.404.64c-2.126 3.357-3.186 5.618-3.186 6.89a3.59 3.59 0 0 0 3.59 3.59zm2.633-3.59a2.633 2.633 0 0 1-5.266 0c0-.95.879-2.89 2.633-5.731 1.754 2.842 2.633 4.78 2.633 5.73zm4.309-2.223c0 1.485-1.09 2.639-2.515 2.639v.957c1.965 0 3.472-1.594 3.472-3.596 0-1.272-1.06-3.533-3.186-6.89l-.384-.607-.413.588-.446.644-.462.669-.165.238c-.39.562-.691.985-.967 1.354l.767.573a48.793 48.793 0 0 0 1.153-1.621l.462-.67.03-.043c1.768 2.86 2.654 4.811 2.654 5.765z" fill="#FF5252"/><path d="M22.5 11.25C22.5 5.037 17.463 0 11.25 0S0 5.037 0 11.25 5.037 22.5 11.25 22.5c2.99 0 5.797-1.173 7.887-3.228l-.671-.682a10.256 10.256 0 0 1-7.216 2.953C5.566 21.543.957 16.934.957 11.25.957 5.566 5.566.957 11.25.957c5.684 0 10.293 4.609 10.293 10.293h.957z" fill="#FF5252"/><path d="M18.71 7.728l-.691.661 4.029 4.215 3.497-4.241-.74-.61-2.81 3.41-3.284-3.435z" fill="#FF5252"/></svg>