<svg width="16" height="25" xmlns="http://www.w3.org/2000/svg"><path d="M2.162 0h11.676C15.032 0 16 .949 16 2.119V22.88c0 1.17-.968 2.119-2.162 2.119H2.162C.968 25 0 24.052 0 22.881V2.12C0 .949.968 0 2.162 0zm0 .847c-.716 0-1.297.57-1.297 1.272V22.88c0 .702.58 1.271 1.297 1.271h11.676c.716 0 1.297-.569 1.297-1.27V2.118c0-.702-.58-1.272-1.297-1.272H2.162z" fill="#FF5252"/><path d="M3.7 1.5h8.602c1.187 0 2.15.941 2.15 2.102v14.296c0 1.16-.963 2.102-2.15 2.102H3.699c-1.187 0-2.15-.941-2.15-2.102V3.602c0-1.16.963-2.102 2.15-2.102zm0 .84c-.713 0-1.291.566-1.291 1.262v14.296c0 .696.578 1.261 1.29 1.261h8.603c.712 0 1.29-.565 1.29-1.261V3.602c0-.696-.578-1.261-1.29-1.261H3.699zM8 24c.997 0 1.806-.784 1.806-1.75S8.997 20.5 8 20.5c-.998 0-1.807.784-1.807 1.75S7.003 24 8 24zm0-.875c-.499 0-.903-.392-.903-.875s.404-.875.903-.875.903.392.903.875-.404.875-.903.875z" fill="#FF5252"/></svg>