<svg xmlns="http://www.w3.org/2000/svg" xmlns:xlink="http://www.w3.org/1999/xlink"><defs><path d="M0 0h25.313v25.313H0V0z" id="a"/><clipPath id="b"><use xlink:href="#a"/></clipPath><linearGradient x1=".607" y1=".096" x2=".99" y2=".609" id="d"><stop offset="0" stop-color="#FF177B"/><stop offset="1" stop-color="#FFEC73"/></linearGradient><linearGradient x1=".063" y1="-.44" x2="-1.196" y2="1.011" id="e"><stop offset="0" stop-color="#064AA2"/><stop offset="1" stop-color="#63FFD4"/></linearGradient><linearGradient x1=".846" y1=".5" x2="-.073" y2="1" id="h"><stop offset="0" stop-color="#FF4521"/><stop offset="1" stop-color="#8A33DB"/></linearGradient><linearGradient x1="0" y1="-.839" x2=".642" y2="1.403" id="i"><stop offset="0" stop-color="#00A3B5"/><stop offset="1" stop-color="#D6FFA1"/></linearGradient><path d="M9.908 9.222L.356 0C.134.053 0 .223 0 .508v17.646c0 .242.096.387.214.436l9.694-9.368z" id="a"/><path d="M.393 9.315l5.52-3.09 2.44-1.375 4.015-2.203L9.694 0 0 9.369c.108.035.298.016.447-.06" transform="translate(.002 .037)" id="b"/><path d="M.514.106C.33.006.148-.023 0 .018l9.56 9.235 2.644-2.55-3.986-2.249-6.026-3.401L.514.106z" transform="translate(.065 .05)" id="c"/><clipPath id="f"><use xlink:href="#a"/></clipPath><clipPath id="g"><use xlink:href="#b"/></clipPath><clipPath id="j"><use xlink:href="#c"/></clipPath><linearGradient x1="0" y1=".5" x2="1" y2=".5" id="a"><stop offset="0" stop-color="#F26A35"/><stop offset="1" stop-color="#EE3048"/></linearGradient></defs><symbol id="icon-appstore"><path d="M18.5.5h91q.461 0 .919.021t.912.063q.454.042.903.105.449.062.892.146.443.083.879.187.437.105.865.229.429.124.849.269.42.144.831.309.411.164.811.348.401.183.79.386.39.203.767.425.378.221.743.46.365.24.716.498.352.258.69.532.337.275.66.566.323.291.63.599.308.307.599.63t.566.66q.274.338.532.69.257.351.497.716t.461.743q.222.377.425.767.203.39.386.79.184.4.348.811.165.41.309.83.145.421.269.85.125.428.229.865.104.436.187.88.084.442.146.891.063.45.105.903.042.454.063.912.021.458.021.919v-1q0 .461-.021.919t-.063.912q-.042.454-.105.903-.062.449-.146.892-.083.443-.187.88-.104.436-.229.864-.124.429-.269.85-.144.42-.309.83-.164.41-.348.811-.183.4-.386.79t-.425.767q-.221.378-.461.743-.24.365-.497.716-.257.352-.532.69-.275.337-.566.66-.291.323-.599.63-.307.308-.63.599t-.66.566q-.338.275-.69.532-.351.257-.716.497t-.743.461q-.377.222-.767.425-.389.203-.79.386-.4.184-.811.348-.411.165-.831.31-.42.144-.849.268-.428.124-.865.229-.436.104-.879.187-.443.084-.892.146-.449.063-.903.105-.454.042-.912.063-.458.021-.919.021h-91q-.461 0-.919-.021t-.912-.063q-.454-.042-.903-.105-.449-.062-.892-.146-.443-.083-.88-.187-.436-.105-.864-.229-.429-.124-.85-.269-.42-.144-.83-.309-.41-.164-.811-.348-.4-.183-.79-.386t-.767-.425q-.378-.221-.743-.46-.365-.24-.716-.498-.352-.258-.69-.532-.337-.275-.66-.566-.323-.291-.63-.599-.308-.307-.599-.63t-.566-.66q-.274-.338-.532-.69-.257-.351-.497-.716t-.461-.743q-.222-.377-.425-.767-.203-.39-.386-.79-.184-.4-.348-.811-.165-.41-.31-.83-.144-.421-.268-.85-.124-.428-.229-.865-.104-.436-.187-.88-.084-.442-.146-.891-.063-.45-.105-.903-.042-.454-.063-.912Q.5 17.961.5 17.5v1q0-.461.021-.919t.063-.912q.042-.454.105-.903.062-.449.146-.892.083-.443.187-.88.105-.436.229-.864.124-.429.269-.85.144-.42.309-.83.164-.41.348-.811.183-.4.386-.79t.425-.767q.221-.378.46-.743.24-.365.498-.716.258-.352.532-.69.275-.337.566-.66.291-.323.599-.63.307-.308.63-.599t.66-.566q.338-.274.69-.532.351-.257.716-.497t.743-.461q.377-.222.767-.425.39-.203.79-.386.4-.184.811-.348.41-.165.83-.31.421-.144.85-.268.428-.124.865-.229.436-.104.88-.187.442-.084.891-.146.45-.063.903-.105.454-.042.912-.063Q18.039.5 18.5.5z" fill="none" stroke="#FFF"/><path d="M35.442 16.34c-.023-2.575 2.112-3.828 2.21-3.886-1.21-1.76-3.084-2.001-3.742-2.02-1.574-.166-3.101.94-3.903.94-.818 0-2.053-.924-3.383-.897-1.713.026-3.315 1.016-4.193 2.554-1.814 3.134-.461 7.74 1.276 10.274.869 1.241 1.884 2.626 3.214 2.577 1.3-.053 1.786-.828 3.355-.828 1.555 0 2.01.828 3.366.796 1.396-.02 2.275-1.246 3.113-2.498 1.004-1.42 1.408-2.823 1.424-2.895-.032-.01-2.71-1.03-2.737-4.117m-2.561-7.573c.7-.873 1.178-2.061 1.045-3.267-1.012.045-2.278.7-3.007 1.553-.645.753-1.22 1.987-1.072 3.147 1.137.084 2.305-.573 3.034-1.433M53.41 26.344h-1.788l-.98-3.123h-3.406l-.934 3.123h-1.741l3.375-10.633h2.084l3.39 10.633zm-3.064-4.434l-.886-2.775c-.093-.285-.27-.953-.528-2.004H48.9c-.104.452-.27 1.12-.498 2.004l-.87 2.775h2.814zm11.728.506c0 1.304-.35 2.335-1.048 3.091-.625.674-1.403 1.01-2.33 1.01-1.001 0-1.721-.362-2.158-1.088v4.023h-1.68v-8.255c0-.819-.02-1.659-.062-2.52h1.477l.094 1.216h.031c.56-.916 1.41-1.374 2.551-1.374.892 0 1.636.357 2.232 1.072.594.717.893 1.658.893 2.825zm-1.711.062c0-.746-.166-1.361-.498-1.845-.363-.504-.85-.758-1.462-.758-.414 0-.79.141-1.127.42a1.937 1.937 0 0 0-.661 1.096c-.052.21-.078.382-.078.518v1.28c0 .556.169 1.026.506 1.412.337.383.775.576 1.314.576.632 0 1.124-.249 1.477-.742.352-.494.529-1.146.529-1.957zm10.405-.062c0 1.304-.35 2.335-1.048 3.091-.626.674-1.403 1.01-2.33 1.01-1.001 0-1.721-.362-2.16-1.088v4.023h-1.678v-8.255c0-.819-.022-1.659-.063-2.52h1.477l.094 1.216h.032c.559-.916 1.409-1.374 2.55-1.374.891 0 1.636.357 2.232 1.072.594.717.894 1.658.894 2.825zm-1.712.062c0-.746-.166-1.361-.499-1.845-.362-.504-.849-.758-1.46-.758-.414 0-.79.141-1.129.42a1.94 1.94 0 0 0-.66 1.096c-.051.21-.079.382-.079.518v1.28c0 .556.17 1.026.505 1.412.337.382.775.576 1.316.576.633 0 1.125-.249 1.477-.742.353-.494.529-1.146.529-1.957zm11.432.884c0 .905-.311 1.64-.932 2.209-.682.62-1.634.93-2.855.93-1.128 0-2.033-.22-2.715-.662l.389-1.42a4.63 4.63 0 0 0 2.426.663c.633 0 1.125-.145 1.477-.434.353-.29.53-.675.53-1.158 0-.432-.147-.795-.437-1.09-.29-.293-.77-.568-1.445-.819-1.835-.694-2.754-1.71-2.754-3.045 0-.873.325-1.587.971-2.146.648-.557 1.507-.836 2.575-.836.954 0 1.748.168 2.38.505l-.422 1.388c-.594-.326-1.264-.489-2.014-.489-.593 0-1.058.148-1.39.442-.28.263-.422.583-.422.964 0 .42.162.768.484 1.04.279.252.787.527 1.523.82.903.37 1.565.8 1.99 1.293.428.494.641 1.11.641 1.845m5.567-3.407h-1.851v3.723c0 .947.326 1.419.98 1.419.3 0 .549-.026.746-.08l.046 1.294c-.33.126-.766.189-1.305.189-.664 0-1.182-.206-1.557-.616-.373-.411-.56-1.099-.56-2.067v-3.865h-1.102v-1.278h1.102V17.27l1.65-.505v1.909h1.85v1.281m8.336 2.492c0 1.179-.331 2.146-.995 2.903-.694.778-1.618 1.167-2.768 1.167-1.111 0-1.994-.373-2.653-1.12-.658-.745-.987-1.687-.987-2.822 0-1.188.34-2.161 1.018-2.918.68-.756 1.594-1.136 2.745-1.136 1.11 0 2 .375 2.675 1.12.645.725.965 1.659.965 2.806zm-1.74.04c0-.703-.15-1.305-.45-1.81-.352-.608-.857-.912-1.51-.912-.671 0-1.189.304-1.54.913-.301.504-.45 1.117-.45 1.84 0 .704.149 1.308.45 1.81.364.609.87.913 1.527.913.641 0 1.145-.311 1.51-.928.307-.516.462-1.123.462-1.827zm7.201-2.312a2.884 2.884 0 0 0-.529-.046c-.59 0-1.048.224-1.369.678-.28.4-.419.904-.419 1.514v4.023h-1.68V21.09c0-.882-.016-1.689-.048-2.413h1.463l.061 1.467h.047c.178-.504.456-.911.84-1.215a2.01 2.01 0 0 1 1.213-.411c.155 0 .295.012.42.03l.001 1.626m7.511 1.974c0 .305-.02.562-.061.772h-5.038c.019.758.264 1.338.73 1.737.425.357.975.536 1.649.536.745 0 1.426-.12 2.038-.363l.263 1.182c-.715.316-1.56.474-2.534.474-1.172 0-2.092-.35-2.762-1.048-.667-.7-1.002-1.64-1.002-2.816 0-1.155.31-2.118.934-2.886.652-.82 1.534-1.23 2.643-1.23 1.09 0 1.914.41 2.473 1.23.444.65.667 1.455.667 2.412zm-1.601-.442c.012-.506-.099-.94-.326-1.31-.29-.474-.738-.71-1.338-.71-.55 0-.996.23-1.337.694-.28.368-.445.811-.497 1.324l3.498.002zM49.892 12.05h-.879l-.48-1.535H46.86l-.459 1.535h-.855l1.657-5.227h1.023l1.665 5.227zm-1.504-2.18l-.435-1.364a20.6 20.6 0 0 1-.26-.984h-.016c-.053.224-.13.55-.244.984l-.427 1.365h1.382zm5.646-1.588L52.63 12.05h-.801l-1.36-3.768h.886l.634 1.992c.107.333.199.651.267.953h.023a12.7 12.7 0 0 1 .266-.953l.627-1.992h.863m2.99 3.768l-.061-.434h-.023c-.252.349-.618.52-1.084.52-.664 0-1.137-.474-1.137-1.11 0-.93.793-1.41 2.168-1.41v-.07c0-.497-.26-.745-.771-.745a1.71 1.71 0 0 0-.97.28l-.167-.55c.344-.218.77-.327 1.275-.327.97 0 1.459.52 1.459 1.559v1.388c0 .38.015.675.053.9l-.742-.001zm-.115-1.877c-.916 0-1.374.225-1.374.76 0 .395.237.588.565.588.42 0 .81-.325.81-.767v-.581zm3.011-2.513c-.483 0-.86-.217-.86-.503 0-.287.39-.497.888-.497.497 0 .9.21.887.497 0 .302-.376.504-.915.504zm-.698.622h1.452v3.768h-1.452V8.282zm2.219-1.729h.825v5.497h-.825V6.553zm4.328 5.497l-.062-.434h-.022c-.252.349-.618.52-1.084.52-.664 0-1.137-.474-1.137-1.11 0-.93.793-1.41 2.168-1.41v-.07c0-.497-.26-.745-.771-.745a1.71 1.71 0 0 0-.97.28l-.168-.552c.344-.217.771-.326 1.275-.326.97 0 1.46.52 1.46 1.56v1.387c0 .38.015.675.052.9h-.74zm-.114-1.877c-.917 0-1.375.225-1.375.76 0 .395.237.588.565.588.42 0 .81-.325.81-.767v-.581zm4.142 1.962c-.526 0-.915-.225-1.167-.667h-.016l-.047.582h-.702c.022-.302.03-.644.03-1.016V6.553h.826v2.28h.015c.244-.419.64-.628 1.183-.628.894 0 1.52.776 1.52 1.907 0 1.17-.696 2.023-1.642 2.023zm-.168-3.273c-.474 0-.908.42-.908 1v.66c0 .52.39.946.894.946.617 0 .985-.511.985-1.326 0-.76-.383-1.28-.97-1.28zm3.03-2.309h.823v5.497h-.823V6.553zm5.31 3.814h-2.474c.016.713.48 1.116 1.167 1.116a2.74 2.74 0 0 0 1-.178l.129.582c-.35.155-.763.232-1.244.232-1.16 0-1.848-.745-1.848-1.9 0-1.154.704-2.023 1.756-2.023.946 0 1.543.714 1.543 1.791.002.147-.005.28-.029.38zm-.755-.597c0-.582-.29-.992-.818-.992-.473 0-.846.418-.901.992h1.72zm5.752 2.365c-1.084 0-1.786-.822-1.786-1.938 0-1.164.717-1.993 1.848-1.993 1.068 0 1.787.783 1.787 1.931 0 1.178-.741 2-1.849 2zM83 8.816c-.596 0-.977.566-.977 1.357 0 .776.39 1.341.969 1.341.58 0 .969-.605.969-1.357 0-.767-.381-1.34-.961-1.34zm6.248 3.234h-.823V9.886c0-.666-.252-1-.749-1-.488 0-.825.426-.825.922v2.242h-.823V9.359c0-.334-.01-.69-.031-1.078h.725l.039.581h.023c.22-.402.671-.659 1.175-.659.778 0 1.289.605 1.289 1.59v2.257m5.394-3.14h-.907v1.83c0 .465.16.698.48.698.145 0 .268-.016.366-.04l.023.636c-.16.063-.375.094-.64.094-.65 0-1.038-.364-1.038-1.318v-1.9h-.54v-.628h.54v-.69l.809-.25v.939h.907v.629m4.366 3.14h-.825V9.902c0-.674-.253-1.016-.748-1.016-.428 0-.824.295-.824.892v2.272h-.825V6.553h.825v2.263h.016c.258-.41.634-.613 1.114-.613.786 0 1.267.62 1.267 1.605v2.242m4.212-1.683h-2.474c.016.713.48 1.116 1.168 1.116.368 0 .703-.062.999-.178l.129.582c-.35.155-.763.232-1.245.232-1.16 0-1.847-.745-1.847-1.9 0-1.154.703-2.023 1.755-2.023.947 0 1.543.714 1.543 1.791a1.64 1.64 0 0 1-.028.38zm-.756-.597c0-.582-.29-.992-.816-.992-.474 0-.847.418-.902.992h1.718z" fill="#FFF"/></symbol><symbol id="icon-bell"><path d="M7.18 20.074h5.745s-.504 2.393-2.814 2.393-2.93-2.393-2.93-2.393zM8.553 1.34S8.756 0 10.053 0s1.491 1.34 1.491 1.34H8.553zm8.22 5.729l-.018-.064c-1.04-3.702-3.384-5.601-6.942-5.601-3.563 0-5.862 1.905-6.803 5.613l-.015.058v6.937L0 17.715v1.864h19.645V17.72l-2.872-3.702v-6.95zM.957 18.622v-.569l2.996-3.702V7.195c.844-3.256 2.766-4.834 5.86-4.834 3.096 0 5.067 1.582 6.002 4.84v7.145l2.873 3.702v.574H.958z" fill="#FF5252"/></symbol><symbol id="icon-blood"><path d="M8.856 17.713a3.59 3.59 0 0 0 3.59-3.59c0-1.272-1.06-3.533-3.185-6.89l-.405-.64-.404.64c-2.126 3.357-3.186 5.618-3.186 6.89a3.59 3.59 0 0 0 3.59 3.59zm2.633-3.59a2.633 2.633 0 0 1-5.266 0c0-.95.879-2.89 2.633-5.731 1.754 2.842 2.633 4.78 2.633 5.73zm4.309-2.223c0 1.485-1.09 2.639-2.515 2.639v.957c1.965 0 3.472-1.594 3.472-3.596 0-1.272-1.06-3.533-3.186-6.89l-.384-.607-.413.588-.446.644-.462.669-.165.238c-.39.562-.691.985-.967 1.354l.767.573a48.793 48.793 0 0 0 1.153-1.621l.462-.67.03-.043c1.768 2.86 2.654 4.811 2.654 5.765z" fill="#FF5252"/><path d="M22.5 11.25C22.5 5.037 17.463 0 11.25 0S0 5.037 0 11.25 5.037 22.5 11.25 22.5c2.99 0 5.797-1.173 7.887-3.228l-.671-.682a10.256 10.256 0 0 1-7.216 2.953C5.566 21.543.957 16.934.957 11.25.957 5.566 5.566.957 11.25.957c5.684 0 10.293 4.609 10.293 10.293h.957z" fill="#FF5252"/><path d="M18.71 7.728l-.691.661 4.029 4.215 3.497-4.241-.74-.61-2.81 3.41-3.284-3.435z" fill="#FF5252"/></symbol><symbol id="icon-diagramm"><g fill="#FF5252"><path d="M26.583 4.316c1.168 0 2.115-.963 2.115-2.15 0-1.189-.947-2.152-2.115-2.152-1.168 0-2.115.963-2.115 2.151 0 1.188.947 2.15 2.115 2.15zm0-.956a1.185 1.185 0 0 1-1.175-1.195c0-.66.526-1.195 1.175-1.195s1.175.535 1.175 1.195-.526 1.195-1.175 1.195zm-7.521 10.514c1.168 0 2.115-.963 2.115-2.15 0-1.188-.947-2.151-2.115-2.151-1.168 0-2.115.963-2.115 2.15 0 1.188.947 2.151 2.115 2.151zm0-.956a1.185 1.185 0 0 1-1.175-1.195c0-.66.526-1.194 1.175-1.194.65 0 1.175.535 1.175 1.194 0 .66-.526 1.195-1.175 1.195zM9.191 7.661c1.168 0 2.115-.963 2.115-2.15 0-1.188-.947-2.151-2.115-2.151-1.168 0-2.115.963-2.115 2.15 0 1.188.947 2.151 2.115 2.151zm0-.956a1.185 1.185 0 0 1-1.175-1.194c0-.66.526-1.195 1.175-1.195.65 0 1.175.535 1.175 1.195S9.84 6.705 9.191 6.705zM2.14 17.22c1.169 0 2.116-.963 2.116-2.151 0-1.188-.947-2.15-2.116-2.15-1.168 0-2.115.962-2.115 2.15s.947 2.15 2.115 2.15zm0-.956a1.185 1.185 0 0 1-1.175-1.195c0-.66.526-1.195 1.175-1.195.65 0 1.176.535 1.176 1.195s-.527 1.195-1.176 1.195z"/><path d="M25.329 3.167l-5.752 7.442.74.59 5.75-7.442-.738-.59zM7.891 6.042l-4.993 7.481.778.537 4.993-7.482-.778-.536zm2.77.011l7.397 4.298-.466.83-7.397-4.298.466-.83z"/></g></symbol><symbol id="icon-disk"><path d="M0 0h25.313v25.313H0V0z" fill="none"/><g fill="#FF5252" clip-path="url(#b)"><path d="M18.778 2.286c.432.004.858.18 1.167.483.869.864 1.735 1.73 2.599 2.599.302.308.479.728.483 1.166.015 4.942.015 9.884 0 14.826-.008.861-.748 1.656-1.665 1.665-5.803.018-11.606.018-17.41 0-.863-.008-1.656-.748-1.664-1.665a2769.27 2769.27 0 0 1 0-17.41c.008-.867.761-1.656 1.664-1.664 4.942-.016 9.884-.016 14.826 0zm-14.815.862a.835.835 0 0 0-.813.807c-.018 5.802-.054 11.604 0 17.405a.832.832 0 0 0 .808.802c5.801.018 11.603.053 17.404 0a.834.834 0 0 0 .802-.807c.016-4.94.047-9.88 0-14.82a.826.826 0 0 0-.234-.56c-.863-.869-1.722-1.739-2.595-2.596a.827.827 0 0 0-.562-.23c-4.937-.016-9.873 0-14.81 0z"/><path d="M17.666 2.288c.216.03.381.208.392.429 0 1.245.004 2.49 0 3.736-.008.87-.761 1.656-1.664 1.664-2.491.008-4.982.008-7.473 0-.862-.008-1.661-.746-1.664-1.674V2.717a.455.455 0 0 1 .431-.431h9.938c.014 0 .027 0 .04.002zm-9.546.86c0 1.102-.01 2.204 0 3.305a.831.831 0 0 0 .806.802c2.49.008 4.979.023 7.467 0a.832.832 0 0 0 .802-.813V3.148H8.12zm10.344 8.248c.865.008 1.661.749 1.664 1.674v9.523c-.029.184-.126.355-.298.41-.043.015-.089.015-.133.022H5.617a.575.575 0 0 1-.253-.083c-.109-.079-.156-.211-.178-.349 0-3.178-.01-6.355 0-9.533.009-.864.75-1.656 1.664-1.664a1729.3 1729.3 0 0 1 11.614 0zm-11.602.862a.832.832 0 0 0-.813.807v9.097h13.216c0-3.034.029-6.068 0-9.102a.83.83 0 0 0-.806-.802c-3.866-.012-7.732 0-11.597 0z"/></g></symbol><symbol id="icon-doc-desk"><path d="M23 1.5a1.5 1.5 0 1 1-3 0 1.5 1.5 0 0 1 3 0zm12 0a1.5 1.5 0 1 1-3 0 1.5 1.5 0 0 1 3 0z" fill="#FFF" fill-rule="evenodd"/><path d="M27.46 28.683c1.516 0 2.746-1.19 2.746-2.66 0-1.468-1.23-2.66-2.746-2.66-1.517 0-2.746 1.192-2.746 2.66 0 1.47 1.23 2.66 2.746 2.66z" fill="#FF5252"/><path d="M20.364 1.773V0h-4.487l-.26.224c-1.865 1.604-2.81 3.666-2.81 6.124 0 5.417 3.608 17.255 7.142 18.995 4.208 2.073 12.375 2.16 15.391-.087 2.71-2.02 6.433-13.874 6.643-18.872C42.152 2.345 41.074 0 38.67 0h-5.78v1.773h5.78c.982 0 1.616 1.379 1.484 4.539-.19 4.515-3.775 15.933-5.93 17.538-2.39 1.78-9.814 1.701-13.445-.087-2.7-1.329-6.14-12.624-6.14-17.415 0-1.84.64-3.348 1.945-4.575h3.78z" fill="#FF5252"/><path d="M10.161 28.634c2.767 0 4.218 1.04 4.634 3.25v5.207c-.539 5.111 1.634 7.91 6.297 7.91 4.603 0 7.192-2.711 7.575-7.8l.002-11.276h-1.83v11.212c-.315 4.15-2.169 6.09-5.747 6.09-3.506 0-4.922-1.836-4.472-5.997l.005-.093v-5.331l-.013-.15c-.555-3.152-2.801-4.795-6.45-4.795-3.607 0-6.038 1.587-7.088 4.667l-.046.135v3.356H4.86v-3.067c.813-2.24 2.516-3.318 5.302-3.318z" fill="#FF5252"/><path d="M4.119 41.98c2.275 0 4.119-1.785 4.119-3.988 0-2.204-1.844-3.99-4.119-3.99-2.275 0-4.119 1.786-4.119 3.99 0 2.203 1.844 3.989 4.119 3.989zm0-1.772c-1.264 0-2.288-.992-2.288-2.216 0-1.224 1.024-2.217 2.288-2.217 1.264 0 2.288.993 2.288 2.217 0 1.224-1.024 2.216-2.288 2.216z" fill="#FF5252"/></symbol><symbol id="icon-doc"><path d="M11.5.767a.758.758 0 0 1-.75.766.758.758 0 0 1-.75-.766c0-.424.336-.767.75-.767s.75.343.75.767zm6 0a.758.758 0 0 1-.75.766.758.758 0 0 1-.75-.766c0-.424.336-.767.75-.767s.75.343.75.767z" fill="#FFF" fill-rule="evenodd"/><path d="M13.73 14.66c.758 0 1.373-.608 1.373-1.36 0-.75-.615-1.359-1.373-1.359s-1.373.61-1.373 1.36c0 .75.615 1.36 1.373 1.36z" fill="#FF5252"/><path d="M10.182.906V0H7.94l-.13.114c-.932.82-1.405 1.874-1.405 3.13 0 2.769 1.804 8.82 3.57 9.71 2.105 1.058 6.188 1.103 7.696-.045 1.356-1.033 3.217-7.092 3.322-9.646C21.076 1.199 20.537 0 19.335 0h-2.89v.906h2.89c.492 0 .808.705.742 2.32-.094 2.308-1.887 8.144-2.965 8.964-1.194.91-4.907.87-6.722-.044-1.35-.68-3.07-6.453-3.07-8.901 0-.941.32-1.712.972-2.339h1.89z" fill="#FF5252"/><path d="M5.08 14.635c1.383 0 2.11.532 2.317 1.66v2.663C7.127 21.57 8.214 23 10.545 23c2.302 0 3.596-1.385 3.788-3.986l.001-5.764h-.915v5.731c-.158 2.121-1.084 3.113-2.874 3.113-1.752 0-2.46-.939-2.235-3.066l.002-.047v-2.725l-.006-.076c-.278-1.611-1.401-2.45-3.226-2.45-1.803 0-3.018.81-3.543 2.384l-.023.07v1.715h.915V16.33c.407-1.145 1.258-1.696 2.651-1.696z" fill="#FF5252"/><path d="M2.06 21.457a2.05 2.05 0 0 0 2.059-2.04 2.05 2.05 0 0 0-2.06-2.038A2.05 2.05 0 0 0 0 19.418a2.05 2.05 0 0 0 2.06 2.039zm0-.906a1.139 1.139 0 0 1-1.145-1.133c0-.626.513-1.133 1.144-1.133.632 0 1.145.507 1.145 1.133S2.69 20.55 2.059 20.55z" fill="#FF5252"/></symbol><symbol id="icon-google"><path d="M18 0h91q.461 0 .919.021t.912.063q.454.042.903.105.449.062.892.146.443.083.879.187.437.105.865.229.429.124.849.269.42.144.831.309.411.164.811.348.401.183.79.386.39.203.767.425.378.221.743.46.365.24.716.498.352.258.69.532.337.275.66.566.323.291.63.599.308.307.599.63t.566.66q.274.338.532.69.257.351.497.716t.461.743q.222.377.425.767.203.39.386.79.184.4.348.811.165.41.309.83.145.421.269.85.125.428.229.865.104.436.187.88.084.442.146.891.063.45.105.903.042.454.063.912.021.458.021.919v-1q0 .461-.021.919t-.063.912q-.042.454-.105.903-.062.449-.146.892-.083.443-.187.88-.104.436-.229.864-.124.429-.269.85-.144.42-.309.83-.164.41-.348.811-.183.4-.386.79t-.425.767q-.221.378-.461.743-.24.365-.497.716-.257.352-.532.69-.275.337-.566.66-.291.323-.599.63-.307.308-.63.599t-.66.566q-.338.275-.69.532-.351.257-.716.497t-.743.461q-.377.222-.767.425-.389.203-.79.386-.4.184-.811.348-.411.165-.831.31-.42.144-.849.268-.428.124-.865.229-.436.104-.879.187-.443.084-.892.146-.449.063-.903.105-.454.042-.912.063-.458.021-.919.021H18q-.461 0-.919-.021t-.912-.063q-.454-.042-.903-.105-.449-.062-.892-.146-.443-.083-.88-.187-.436-.105-.864-.229-.429-.124-.85-.269-.42-.144-.83-.309-.41-.164-.811-.348-.4-.183-.79-.386t-.767-.425q-.378-.221-.743-.46-.365-.24-.716-.498-.352-.257-.69-.532-.337-.275-.66-.566-.323-.291-.63-.599-.308-.307-.599-.63t-.566-.66q-.274-.338-.532-.69-.257-.351-.497-.716t-.461-.743q-.222-.377-.425-.767-.203-.39-.386-.79-.184-.4-.348-.811-.165-.41-.31-.83-.144-.421-.268-.85-.124-.428-.229-.865-.104-.436-.187-.88-.084-.442-.146-.891-.063-.45-.105-.903-.042-.454-.063-.912Q0 17.461 0 17v1q0-.461.021-.919t.063-.912q.042-.454.105-.903.062-.449.146-.892.083-.443.187-.88.105-.436.229-.864.124-.429.269-.85.144-.42.309-.83.164-.41.348-.811.183-.4.386-.79t.425-.767q.221-.378.46-.743.24-.365.498-.716.258-.352.532-.69.275-.337.566-.66.291-.323.599-.63.307-.308.63-.599t.66-.566q.338-.274.69-.532.351-.257.716-.497t.743-.461q.377-.222.767-.425.39-.203.79-.386.4-.184.811-.348.41-.165.83-.31.421-.144.85-.268.428-.124.865-.229.436-.104.88-.187.442-.084.891-.146.45-.063.903-.105.454-.042.912-.063Q17.539 0 18 0z" fill="none" stroke="#FFF"/><path d="M8.543 4.454L.853.114C.425-.129 0 .018 0 .521v17.683c0 .378.304.541.675.332l7.868-4.441 1.528-.862 2.458-1.387 3.833-2.163c.45-.254.406-.602.027-.802-.38-.2-3.86-2.177-3.86-2.177l-3.986-2.25z" transform="translate(16.023 12.05)" fill="url(#d)"/><path d="M9.908 9.222L.356 0C.134.053 0 .223 0 .508v17.646c0 .242.096.387.214.436l9.694-9.368z" fill="url(#e)" transform="translate(16 12.073)"/><path d="M25.908 21.295l-9.552-9.222c-.222.052-.356.222-.356.508v17.645c0 .243.096.387.214.436l9.694-9.367z" fill="none"/><g clip-path="url(#f)" transform="translate(16 12.073)"><path d="M12.545 6.68L8.554 4.43C8.54 4.462 1.279.355.855.145.425-.128 0 .02 0 .508v17.718c0 .39.304.554.642.364.403-.23 7.898-4.47 7.912-4.503l3.991-2.25c-.02.03 3.36-1.882 3.778-2.107.482-.283.438-.632.071-.798-.391-.235-3.87-2.216-3.849-2.251" fill="none"/></g><path d="M16.607 30.61l5.52-3.09 2.44-1.376 4.014-2.203-2.673-2.645-9.694 9.368c.108.036.299.016.447-.059" fill="none"/><g clip-path="url(#g)" transform="translate(16.213 21.259)"><path d="M8.554 4.42C8.54 4.453 1.279.346.855.136.425-.137 0 .009 0 .499v17.718c0 .39.304.553.642.363.403-.229 7.898-4.469 7.912-4.502l3.991-2.251c-.02.031 3.36-1.882 3.778-2.106.482-.284.438-.632.071-.799-.391-.234-3.87-2.215-3.849-2.25L8.554 4.42z" transform="translate(-.213 -9.177)" fill="url(#h)"/></g><path d="M.514.106C.33.006.148-.023 0 .018l9.56 9.235 2.644-2.55-3.986-2.249-6.026-3.401L.514.106z" transform="translate(16.349 12.05)" fill="url(#i)"/><path d="M16.863 12.156c-.184-.1-.366-.13-.514-.089l9.56 9.236 2.644-2.55-3.987-2.25-6.026-3.4-1.677-.947z" fill="none"/><g clip-path="url(#j)" transform="translate(16.284 12)"><path d="M12.262 6.753L8.27 4.503C8.256 4.534.995.426.572.217.142-.055-.284.09-.284.58v17.718c0 .39.304.553.642.363.404-.229 7.898-4.469 7.912-4.502l3.992-2.251c-.021.031 3.36-1.882 3.777-2.106.482-.284.439-.632.072-.799-.392-.234-3.87-2.215-3.85-2.25" fill="none"/></g><g fill="#FFF"><path d="M82.045 23.633l-.768.756c-.177.101-.353.22-.53.303-.532.253-1.074.316-1.555.316-.513 0-1.316-.034-2.136-.653-1.138-.837-1.636-2.276-1.636-3.53 0-2.597 2.025-3.87 3.676-3.87.577 0 1.17.15 1.652.469.801.553 1.009 1.272 1.124 1.657l-3.771 1.59-1.235.1c.4 2.13 1.779 3.368 3.303 3.368.762 0 1.327-.26 1.846-.527 0 0 .104-.057.03.02zm-2.304-4.27c.302-.118.46-.219.46-.454 0-.673-.717-1.45-1.572-1.45-.634 0-1.823.524-1.823 2.345 0 .284.032.587.048.89l2.887-1.332z"/><path d="M74.175 23.542c0 .649.111.75.636.8.274.034.547.05.817.083l-.591.368h-2.818c.37-.501.433-.551.433-.885v-.373l-.006-9.932h-1.244L72.6 13h2.286c-.495.3-.644.483-.707 1.067l-.004 9.475"/><path d="M69.804 17.774c.366.316 1.131.985 1.131 2.254 0 1.237-.666 1.82-1.338 2.372-.207.217-.448.453-.448.817 0 .37.241.57.415.72l.577.465c.7.62 1.34 1.187 1.34 2.34 0 1.572-1.454 3.156-4.2 3.156-2.312 0-3.43-1.153-3.43-2.389 0-.601.286-1.453 1.23-2.036.99-.634 2.33-.718 3.048-.768-.224-.303-.48-.62-.48-1.138 0-.283.081-.451.16-.65-.175.017-.35.035-.51.035-1.694 0-2.65-1.322-2.65-2.624 0-.768.334-1.62 1.022-2.238.91-.784 1.995-.92 2.858-.92h3.289l-1.023.604h-.991zM68.68 25.17c-.132-.018-.211-.018-.37-.018-.147 0-1.016.033-1.69.272-.355.138-1.385.544-1.385 1.752 0 1.206 1.112 2.075 2.831 2.075 1.545 0 2.365-.783 2.365-1.836 0-.868-.53-1.325-1.751-2.245zm.451-3.217c.368-.384.4-.915.4-1.216 0-1.198-.682-3.063-2.003-3.063-.412 0-.859.217-1.112.552-.269.346-.35.796-.35 1.23 0 1.114.621 2.964 1.987 2.964.398 0 .827-.203 1.078-.467zm-9.275 3.055c-2.543 0-3.903-2.081-3.903-3.966 0-2.203 1.71-4.087 4.143-4.087 2.351 0 3.824 1.936 3.824 3.968 0 1.985-1.456 4.085-4.064 4.085zm1.988-1.361c.388-.54.482-1.214.482-1.87 0-1.486-.673-4.319-2.664-4.319-.529 0-1.062.218-1.447.572-.626.59-.738 1.332-.738 2.06 0 1.667.784 4.415 2.729 4.415a2.02 2.02 0 0 0 1.638-.858zm-10.51 1.361c-2.544 0-3.903-2.081-3.903-3.966 0-2.203 1.712-4.087 4.144-4.087 2.351 0 3.823 1.936 3.823 3.968 0 1.985-1.454 4.085-4.064 4.085zm1.99-1.361c.385-.54.481-1.214.481-1.87 0-1.486-.676-4.319-2.665-4.319a2.17 2.17 0 0 0-1.445.572c-.628.59-.74 1.332-.74 2.06 0 1.667.788 4.415 2.73 4.415.628 0 1.268-.32 1.638-.858zm-6.948.863l-2.153.516c-.873.144-1.656.27-2.486.27-4.154 0-5.737-3.194-5.737-5.694 0-3.052 2.243-5.883 6.083-5.883a8.45 8.45 0 0 1 2.307.328c1.129.33 1.657.74 1.986.978l-1.25 1.242-.528.123.376-.626c-.51-.52-1.446-1.479-3.223-1.479-2.376 0-4.168 1.887-4.168 4.641 0 2.958 2.046 5.741 5.329 5.741.964 0 1.46-.202 1.912-.391V21.74l-2.275.127 1.206-.676h3.191l-.39.392c-.105.094-.12.126-.15.251-.015.143-.03.599-.03.759v1.918m40.316-.801v4.246h-.81V17.15h.81v1.23c.529-.795 1.494-1.425 2.615-1.425 2.01 0 3.364 1.586 3.364 4.098 0 2.495-1.354 4.114-3.364 4.114-1.059 0-2.007-.567-2.615-1.457zm5.148-2.592c0-1.913-.952-3.372-2.64-3.372-1.049 0-2.051.863-2.487 1.615v3.496c.436.754 1.438 1.648 2.487 1.648 1.688 0 2.64-1.471 2.64-3.387zm1.94-6.968h.83v10.858h-.83V14.15zm9.87 13.059c.173.08.469.13.656.13.496 0 .842-.211 1.152-.957l.591-1.394-3.194-7.89h.905l2.74 6.838 2.712-6.837h.918l-3.896 9.545c-.404.983-1.04 1.456-1.913 1.456a3.07 3.07 0 0 1-.81-.113l.138-.778m-2.288-2.211a15.147 15.147 0 0 1-.125-.714c-.025-.2-.04-.405-.04-.614-.279.427-.675.783-1.18 1.062-.507.282-.988.42-1.648.42-.794 0-1.41-.203-1.85-.615-.44-.412-.66-.97-.66-1.676 0-.705.32-1.278.957-1.716.637-.44 1.46-.658 2.48-.658h1.902v-.977c0-.563-.185-1.006-.553-1.327-.37-.321-.889-.484-1.561-.484-.615 0-1.114.149-1.493.438-.377.295-.566.66-.566 1.101h-.835l-.017-.042c-.03-.594.231-1.115.787-1.565.553-.45 1.277-.676 2.17-.676.888 0 1.608.222 2.15.667.541.44.813 1.075.813 1.906v3.88c0 .279.013.548.047.81.034.263.089.526.162.78h-.94zm-2.895-.565c.692 0 1.19-.162 1.698-.482.505-.318.849-.733 1.029-1.235v-1.519h-1.91c-.729 0-1.333.17-1.808.51-.475.34-.716.75-.716 1.228 0 .451.152.812.456 1.085.304.276.72.413 1.251.413z"/></g><path d="M36.003 7.594c0-1.539 1.19-2.529 2.67-2.529.991 0 1.64.455 2.044 1.012l-.724.403a1.662 1.662 0 0 0-1.32-.652c-1.007 0-1.755.732-1.755 1.766 0 1.018.748 1.765 1.755 1.765.519 0 .976-.227 1.205-.44v-.754h-1.526V7.41h2.41v1.825a2.798 2.798 0 0 1-2.09.894c-1.48 0-2.67-1.004-2.67-2.535m5.915 2.46V5.14h3.534v.76h-2.63v1.266h2.576v.759h-2.575v1.37h2.629v.76h-3.534m5.937-.001V5.9h-1.538v-.76h3.967v.76h-1.538v4.155h-.89m5.601-4.915h.866v4.914h-.866V5.14zm3.342 4.914V5.9h-1.539v-.76h3.967v.76h-1.537v4.155h-.891m5.385-2.458c0-1.46 1.088-2.532 2.633-2.532 1.535 0 2.632 1.072 2.632 2.532s-1.097 2.532-2.632 2.532c-1.545 0-2.633-1.072-2.633-2.532zm4.327-.037c0-1.002-.667-1.75-1.694-1.75-1.036 0-1.695.748-1.695 1.75 0 .994.66 1.75 1.695 1.75 1.027 0 1.694-.756 1.694-1.75zm5.487 2.494l-2.65-3.514v3.514h-.89V5.14h.914l2.595 3.404V5.14h.89v4.914h-.86" fill="#FFF"/></symbol><symbol id="icon-hearth-logo"><path d="M62.235 7v9.867h-1.862v-5.675c0-.131.003-.273.01-.426 0-.154.017-.31.034-.468L58 15.371a.788.788 0 0 1-.74.48h-.286a.788.788 0 0 1-.74-.48l-2.418-5.086c.012.162.023.32.032.476.008.157.012.3.012.43v5.676H52V7h1.848a.578.578 0 0 1 .185.041.424.424 0 0 1 .152.104c.052.06.095.127.128.2l2.343 5.011c.082.166.163.35.24.536.075.184.152.374.222.568.07-.199.152-.392.222-.582.07-.19.153-.37.247-.541l2.336-4.985a.812.812 0 0 1 .128-.2.424.424 0 0 1 .153-.104.578.578 0 0 1 .184-.041h.241L62.235 7zm4.155 3.454c.438-.006.874.07 1.286.222.372.14.711.356.994.637.283.285.503.627.646 1.003.158.426.236.877.23 1.33.006.458-.072.912-.23 1.34a2.88 2.88 0 0 1-.646 1.015c-.283.282-.622.5-.994.64a3.799 3.799 0 0 1-2.58 0 2.859 2.859 0 0 1-1.004-.64 2.834 2.834 0 0 1-.651-1.014 3.707 3.707 0 0 1-.23-1.34 3.651 3.651 0 0 1 .23-1.33 2.805 2.805 0 0 1 1.656-1.64 3.607 3.607 0 0 1 1.293-.223zm0 5.033c.427 0 .741-.15.942-.452.2-.303.301-.76.301-1.377 0-.616-.1-1.074-.301-1.374-.202-.3-.515-.45-.942-.45-.427 0-.758.146-.962.45-.204.305-.305.758-.305 1.374 0 .616.102 1.074.305 1.377.202.303.524.452.962.452zm5.987-1.494c.06.521.217.897.472 1.131.272.24.626.366.988.351a1.79 1.79 0 0 0 .556-.077 2.97 2.97 0 0 0 .416-.174l.334-.174c.1-.052.21-.079.322-.078a.383.383 0 0 1 .334.161l.538.667c-.178.209-.387.39-.619.536a3.183 3.183 0 0 1-.681.325c-.228.076-.462.13-.7.162a5.365 5.365 0 0 1-.667.044 3.48 3.48 0 0 1-1.225-.212 2.81 2.81 0 0 1-.998-.634 2.986 2.986 0 0 1-.677-1.043 3.92 3.92 0 0 1-.248-1.452c-.002-.404.07-.804.213-1.182a2.89 2.89 0 0 1 1.573-1.645 3.416 3.416 0 0 1 2.405-.052 2.432 2.432 0 0 1 1.45 1.454c.143.384.213.793.206 1.203.002.114-.004.229-.017.342a.551.551 0 0 1-.067.21.244.244 0 0 1-.129.108.59.59 0 0 1-.206.03h-3.573zm2.335-1.08c0-.146-.02-.29-.057-.431a.958.958 0 0 0-.524-.642 1.156 1.156 0 0 0-.508-.102 1.109 1.109 0 0 0-.826.303 1.58 1.58 0 0 0-.396.878l2.31-.006zM52.295 23.324a3.46 3.46 0 0 1 1.205-.753 4.26 4.26 0 0 1 1.55-.277 4.06 4.06 0 0 1 1.28.19c.35.108.68.287.976.527.257.212.469.489.619.81.144.322.218.681.215 1.045a2.95 2.95 0 0 1-.245 1.204 2.172 2.172 0 0 1-.767.919c.173.104.336.227.488.369a2.24 2.24 0 0 1 .63.995c.061.197.091.404.09.613.003.43-.07.856-.216 1.251a2.893 2.893 0 0 1-.63 1.012 2.928 2.928 0 0 1-1.019.68 3.58 3.58 0 0 1-1.377.252c-.291 0-.582-.032-.868-.093a4.796 4.796 0 0 1-1.603-.663 3.537 3.537 0 0 1-.623-.518l.575-1.049a.608.608 0 0 1 .181-.189.429.429 0 0 1 .245-.076c.13.004.257.047.367.126.128.084.272.177.435.279.184.111.375.205.573.278.44.146.904.166 1.351.057.156-.04.302-.118.43-.229.118-.108.21-.25.268-.41.065-.198.096-.408.09-.619a1.128 1.128 0 0 0-.106-.503 1.011 1.011 0 0 0-.299-.369 1.319 1.319 0 0 0-.46-.222 2.059 2.059 0 0 0-.59-.066h-1.229v-1.738h1.064c.483 0 .842-.094 1.076-.283a.993.993 0 0 0 .351-.819.897.897 0 0 0-.323-.727c-.214-.18-.536-.268-.966-.268a2.05 2.05 0 0 0-.653.095 3.19 3.19 0 0 0-.495.217c-.14.08-.27.15-.38.215a.6.6 0 0 1-.3.096.368.368 0 0 1-.247-.08.833.833 0 0 1-.18-.237l-.483-1.042zm14.326 7.972v3.225a.626.626 0 0 1-.14.431.452.452 0 0 1-.366.169h-1.136v-2.315h-4.027v1.742a.745.745 0 0 1-.029.21.568.568 0 0 1-.09.185.435.435 0 0 1-.375.178H59.31v-3.766h.142c.13 0 .26-.016.386-.05a.791.791 0 0 0 .362-.235c.134-.157.242-.342.32-.545.12-.315.211-.644.273-.982.098-.513.172-1.03.221-1.553.065-.62.116-1.367.154-2.243h4.33v5.549h1.122zm-2.857.06v-4.05h-1.117c-.035.498-.079.955-.132 1.368-.052.414-.11.786-.177 1.116-.058.3-.13.595-.219.885-.07.234-.154.461-.252.68h1.897zm7.012-5.608c.439-.006.875.07 1.286.222a2.8 2.8 0 0 1 1.64 1.64c.159.425.237.876.23 1.33.007.458-.071.912-.23 1.34a2.88 2.88 0 0 1-.646 1.015c-.282.281-.621.5-.994.64-.41.155-.847.232-1.286.226-.441.006-.88-.07-1.294-.226a2.864 2.864 0 0 1-1.003-.64 2.834 2.834 0 0 1-.652-1.014 3.67 3.67 0 0 1-.23-1.34 3.62 3.62 0 0 1 .23-1.33 2.804 2.804 0 0 1 1.655-1.64 3.62 3.62 0 0 1 1.294-.223zm0 5.033c.428 0 .742-.15.942-.452.201-.303.302-.76.302-1.377 0-.616-.1-1.074-.302-1.374-.201-.3-.514-.45-.942-.45-.427 0-.76.146-.962.45-.202.304-.304.758-.304 1.374 0 .616.102 1.074.304 1.377.203.303.524.452.962.452zm5.995-4.031c.256-.29.555-.534.885-.721a2.368 2.368 0 0 1 1.182-.28c.334-.004.664.08.96.243.302.17.562.41.762.703.228.342.398.723.502 1.127.127.492.188 1 .181 1.51a4.9 4.9 0 0 1-.207 1.462 3.764 3.764 0 0 1-.583 1.162 2.723 2.723 0 0 1-.896.77 2.421 2.421 0 0 1-1.155.278 2.158 2.158 0 0 1-.87-.155 2.382 2.382 0 0 1-.64-.42v2.692h-1.984v-9.236h1.23a.47.47 0 0 1 .485.352l.148.512zm.12 4.24c.135.158.301.283.487.364.176.072.363.109.551.107.175.002.348-.037.506-.113.161-.085.299-.212.4-.37.126-.2.216-.424.265-.66.07-.324.101-.656.095-.99a4.775 4.775 0 0 0-.076-.933 1.987 1.987 0 0 0-.214-.611.86.86 0 0 0-.33-.33.905.905 0 0 0-.429-.1 1.377 1.377 0 0 0-.716.164c-.206.13-.389.297-.539.495v2.977zm8.995-5.242c.438-.006.874.07 1.285.222.373.14.712.356.995.637.283.285.503.627.645 1.003.16.425.237.876.23 1.33.007.458-.07.912-.23 1.34a2.88 2.88 0 0 1-.645 1.015 2.82 2.82 0 0 1-.995.64c-.41.155-.847.232-1.285.226-.442.006-.88-.07-1.295-.226a2.864 2.864 0 0 1-1.003-.64 2.834 2.834 0 0 1-.651-1.014 3.67 3.67 0 0 1-.23-1.34 3.62 3.62 0 0 1 .23-1.33 2.804 2.804 0 0 1 1.654-1.64 3.62 3.62 0 0 1 1.295-.223zm0 5.033c.427 0 .741-.15.941-.452.202-.303.302-.76.302-1.377 0-.616-.1-1.074-.302-1.374-.2-.3-.514-.45-.941-.45-.427 0-.76.146-.962.45-.203.304-.305.758-.305 1.374 0 .616.102 1.074.305 1.377.202.303.524.452.962.452zm7.094-5.033c.4-.006.8.034 1.188.118.297.063.579.173.833.327.416.248.663.673.652 1.124 0 .145-.02.289-.058.43-.04.15-.108.292-.201.42a1.43 1.43 0 0 1-.393.365 2.08 2.08 0 0 1-.638.262c.206.043.407.107.598.191.175.078.337.18.477.302a1.228 1.228 0 0 1 .426.959c.01.305-.072.607-.237.874a1.87 1.87 0 0 1-.623.595 3 3 0 0 1-.894.338 4.841 4.841 0 0 1-1.028.108h-3.065v-6.413h2.964zm-.955 1.198v1.415h.894a.934.934 0 0 0 .635-.212.687.687 0 0 0 .246-.547c0-.08-.014-.16-.042-.235a.498.498 0 0 0-.143-.21.789.789 0 0 0-.273-.15 1.31 1.31 0 0 0-.423-.06h-.894zm1.037 3.949a.95.95 0 0 0 .628-.194.652.652 0 0 0 .233-.528c0-.088-.01-.175-.031-.26a.457.457 0 0 0-.124-.216.61.61 0 0 0-.263-.15 1.5 1.5 0 0 0-.443-.054h-1.037v1.396l1.037.006zm7.341-2.876c.434-.009.866.046 1.28.163.319.094.611.248.858.453.216.18.381.403.482.652.103.25.155.514.153.78a1.868 1.868 0 0 1-.728 1.515 2.62 2.62 0 0 1-.868.428 4.05 4.05 0 0 1-1.162.15h-3.09v-6.413h2.018v2.264l1.057.008zm0 2.82a.898.898 0 0 0 .648-.212.747.747 0 0 0 .22-.56.741.741 0 0 0-.052-.276.645.645 0 0 0-.158-.234.726.726 0 0 0-.273-.161 1.145 1.145 0 0 0-.385-.06h-1.049v1.51l1.05-.006zm5.605-1.552c.06.521.219.897.473 1.131.271.24.625.366.987.351.188.004.376-.022.556-.077.143-.047.282-.105.416-.174.121-.065.233-.122.336-.174a.683.683 0 0 1 .319-.078.386.386 0 0 1 .336.161l.538.667c-.18.209-.388.389-.62.536a3.118 3.118 0 0 1-.681.325c-.228.076-.463.13-.7.162a5.363 5.363 0 0 1-.667.044 3.47 3.47 0 0 1-1.223-.212 2.815 2.815 0 0 1-1.001-.634 2.983 2.983 0 0 1-.675-1.043 3.89 3.89 0 0 1-.25-1.452c-.002-.404.07-.804.213-1.182a2.875 2.875 0 0 1 1.573-1.645 3.42 3.42 0 0 1 2.406-.052 2.438 2.438 0 0 1 1.45 1.454c.142.385.212.793.206 1.203.001.114-.005.229-.018.342a.528.528 0 0 1-.066.21.25.25 0 0 1-.128.108.592.592 0 0 1-.207.03h-3.573zm2.334-1.08c0-.146-.019-.29-.057-.431a1.05 1.05 0 0 0-.186-.375.952.952 0 0 0-.337-.268 1.164 1.164 0 0 0-.51-.1 1.11 1.11 0 0 0-.825.302 1.59 1.59 0 0 0-.394.878l2.31-.006zM9 0h24q.23 0 .46.01.228.011.455.032.227.02.452.052.224.032.446.073.221.042.44.094.218.052.432.114.215.063.425.135.21.072.415.154t.406.174q.2.092.395.194.194.101.383.212.189.11.371.23.183.12.359.249.175.129.344.266.17.137.33.283.162.146.316.3.153.153.299.315.146.16.283.33.137.168.266.344.129.176.249.359.12.182.23.37.111.19.212.384.102.195.194.395.092.2.174.406.082.205.154.415t.134.425q.063.214.115.432.052.219.094.44.041.222.073.446.031.225.052.452.021.227.032.455.01.23.01.46v24q0 .23-.01.46-.011.228-.032.455-.02.227-.052.452-.032.224-.073.446-.042.221-.094.44-.052.218-.114.432-.063.215-.135.425-.072.21-.154.415t-.174.406q-.092.2-.194.395-.101.194-.212.383-.11.189-.23.371-.12.183-.249.359-.129.175-.266.344-.137.17-.283.33-.146.162-.3.316-.153.153-.314.299-.162.146-.33.283-.17.137-.345.266-.176.129-.359.249-.182.12-.37.23-.19.111-.384.212-.195.102-.395.194-.2.092-.406.174-.205.082-.415.154t-.425.134q-.214.063-.432.115-.218.052-.44.094-.222.041-.446.073-.225.031-.452.052-.227.021-.456.032Q33.23 42 33 42H9q-.23 0-.46-.01-.228-.011-.455-.032-.227-.02-.452-.052-.224-.032-.446-.073-.221-.042-.44-.094-.218-.052-.432-.114-.214-.063-.425-.135-.21-.072-.415-.154t-.406-.174q-.2-.092-.395-.194-.194-.101-.383-.212-.189-.11-.371-.23-.183-.12-.359-.249t-.344-.266q-.17-.137-.33-.283-.162-.146-.316-.3-.153-.153-.299-.314-.146-.162-.283-.33-.137-.17-.266-.345-.129-.176-.249-.359-.12-.182-.23-.37-.111-.19-.212-.384-.102-.195-.194-.395-.092-.2-.174-.406-.082-.205-.154-.415t-.135-.425q-.062-.214-.114-.432-.052-.218-.094-.44-.041-.222-.073-.446-.031-.225-.052-.452-.021-.227-.032-.456Q0 33.23 0 33V9q0-.23.01-.46.011-.228.032-.455.02-.227.052-.452.032-.224.073-.446.042-.221.094-.44.052-.218.114-.432Q.438 6.1.51 5.89q.072-.21.154-.415t.174-.406q.092-.2.194-.395.101-.194.212-.383.11-.189.23-.371.12-.183.249-.359t.266-.344q.137-.17.283-.33.146-.162.3-.316.153-.153.315-.299.16-.146.33-.283.168-.137.344-.266.176-.129.359-.249.182-.12.37-.23.19-.111.384-.212Q4.87.93 5.07.838q.2-.092.406-.174Q5.68.582 5.89.51t.425-.135q.214-.062.432-.114.219-.052.44-.094.222-.041.446-.073.225-.031.452-.052Q8.312.02 8.54.01 8.77 0 9 0z" fill="#FFF"/><path d="M13.93 27.849c-1.95-2.075-.523-5.467 2.361-5.544h.362c2.913.017 4.407 3.422 2.438 5.518l-.103.11A3.422 3.422 0 0 1 16.498 29c-.947 0-1.85-.387-2.492-1.068l-.076-.083zM6.19 19.29c.748.872 1.527 1.76 2.308 2.635.33.373.89.456 1.319.194a12.958 12.958 0 0 1 13.434-.067c.428.256.983.172 1.312-.198.776-.878 1.56-1.768 2.307-2.64a.994.994 0 0 0-.225-1.492c-6.144-3.962-14.123-3.93-20.235.08a.992.992 0 0 0-.22 1.488zm-4.766-6.11c.512.811 1.242 1.794 2.09 2.881.337.425.957.516 1.407.206 6.968-4.747 16.219-4.777 23.22-.076.45.303 1.062.21 1.396-.212a33.556 33.556 0 0 0 2.083-2.89.994.994 0 0 0-.298-1.353c-8.922-6.017-20.732-5.98-29.615.09a.995.995 0 0 0-.283 1.354zM16.442 3.086a3.302 3.302 0 0 1-2.192-.842C11.722.008 8.056-.69 4.871.761 1.75 2.184-.05 5.28.001 8.537c.005.366.212.7.54.875.33.174.73.16 1.046-.036a28.42 28.42 0 0 1 14.84-4.22h.156a28.455 28.455 0 0 1 14.826 4.113c.318.202.724.216 1.057.038.332-.178.537-.52.534-.891 0-3.213-1.788-6.25-4.87-7.655-3.185-1.45-6.85-.758-9.38 1.483a3.315 3.315 0 0 1-2.201.842h-.107z" transform="translate(5 7)" fill="url(#a)"/></symbol><symbol id="icon-hearth"><path d="M11.25 22.5c6.213 0 11.25-5.037 11.25-11.25S17.463 0 11.25 0 0 5.037 0 11.25 5.037 22.5 11.25 22.5zm0-.957C5.566 21.543.957 16.934.957 11.25.957 5.566 5.566.957 11.25.957c5.684 0 10.293 4.609 10.293 10.293 0 5.684-4.609 10.293-10.293 10.293z" fill="#FF5252"/><path d="M8.484 6.702c-2.285 0-3.695 2.93-1.974 5.031 1.08 1.318 2.613 2.986 4.601 5.006l.339.343.34-.34c2.258-2.255 3.701-3.938 4.343-5.077.54-.962.827-2.115.698-3.039-.165-1.189-.986-1.924-2.353-1.924-1.468 0-2.533.452-3.132 1.352-.843-.892-1.801-1.352-2.862-1.352zM7.25 11.127C6.044 9.653 7.003 7.66 8.484 7.66c.944 0 1.799.502 2.585 1.553l.548.73.29-.865c.317-.948 1.133-1.418 2.571-1.418.884 0 1.305.377 1.405 1.098.097.695-.139 1.645-.585 2.437-.555.987-1.84 2.503-3.843 4.527-1.806-1.846-3.207-3.379-4.204-4.595z" fill="#FF5252"/></symbol><symbol id="icon-left"><path d="M10 2l-8 9.553L10 21" fill="none" stroke="#FFF" stroke-width="4"/></symbol><symbol id="icon-lock-desk"><path d="M6.045 14h25.91C35.292 14 38 16.754 38 20.152v16.697C38 40.245 35.293 43 31.954 43H6.046C2.707 43 0 40.246 0 36.849V20.152C0 16.754 2.707 14 6.045 14zm0 1.758c-2.384 0-4.318 1.967-4.318 4.394v16.697c0 2.426 1.934 4.393 4.318 4.393h25.91c2.384 0 4.318-1.967 4.318-4.393V20.152c0-2.427-1.934-4.394-4.319-4.394H6.046z" fill="#FF5252"/><path d="M24 26.352C24 23.396 21.761 21 19 21s-5 2.396-5 5.352c0 1.936.97 3.686 2.493 4.631.004.164-.001.357-.02.895-.023.608-.03.97-.02 1.378C16.512 35.543 17.19 37 19 37c1.812 0 2.485-1.46 2.525-3.737.007-.409-.003-.778-.03-1.376a18.39 18.39 0 0 1-.03-.878C23.01 30.071 24 28.307 24 26.352zm-5 8.864c-.578 0-.844-.572-.88-2.008-.009-.357-.003-.69.018-1.261.025-.689.029-.857.018-1.118-.026-.64-.121-1.012-.606-1.264-1.143-.592-1.883-1.831-1.883-3.213 0-1.97 1.492-3.568 3.333-3.568 1.841 0 3.333 1.597 3.333 3.568 0 1.4-.76 2.651-1.923 3.234-.5.25-.59.621-.61 1.275-.007.257-.002.4.03 1.112.026.56.035.899.028 1.256-.025 1.424-.284 1.987-.858 1.987zM13.963 0h11.074C28.33 0 31 2.786 31 6.222V16H8V6.222C8 2.786 10.67 0 13.963 0zm15.333 14.222v-8c0-2.454-1.907-4.444-4.259-4.444H13.963c-2.352 0-4.26 1.99-4.26 4.444v8h19.593z" fill="#FF5252"/></symbol><symbol id="icon-lock"><path d="M3.023 7.163h12.954c1.67 0 3.023 1.409 3.023 3.147v8.543C19 20.59 17.647 22 15.977 22H3.023C1.353 22 0 20.59 0 18.853V10.31c0-1.738 1.353-3.147 3.023-3.147zm0 .9c-1.193 0-2.16 1.006-2.16 2.247v8.543c0 1.241.967 2.248 2.16 2.248h12.954c1.193 0 2.16-1.007 2.16-2.248V10.31c0-1.241-.967-2.248-2.16-2.248H3.023z" fill="#FF5252"/><path d="M12 13.482c0-1.512-1.12-2.738-2.5-2.738S7 11.97 7 13.482c0 .99.485 1.886 1.247 2.37a9.21 9.21 0 0 1-.01.457c-.012.312-.015.497-.01.706.028 1.17.368 1.915 1.273 1.915.906 0 1.242-.747 1.262-1.912.004-.209-.001-.398-.015-.704a9.63 9.63 0 0 1-.015-.449c.774-.48 1.268-1.382 1.268-2.383zm-2.5 4.536c-.289 0-.422-.293-.44-1.028a10.94 10.94 0 0 1 .009-.645c.012-.352.014-.439.009-.572-.013-.328-.06-.518-.303-.647-.571-.303-.942-.937-.942-1.644 0-1.008.747-1.825 1.667-1.825s1.667.817 1.667 1.825c0 .716-.38 1.357-.962 1.655-.25.128-.295.318-.305.652-.003.132-.001.205.015.57.013.286.017.459.014.642-.012.728-.142 1.016-.429 1.016zM6.981 0h5.538C14.165 0 15.5 1.425 15.5 3.183v5.003H4V3.183C4 1.425 5.335 0 6.981 0zm7.667 7.276V3.183c0-1.255-.953-2.273-2.13-2.273H6.982c-1.176 0-2.13 1.018-2.13 2.273v4.093h9.797z" fill="#FF5252"/></symbol><symbol id="icon-logo--footer"><path d="M8.722 34.556v-7.45H7.226a.953.953 0 0 0-.374.077c-.122.05-.227.158-.315.322l-1.761 3.13a4.12 4.12 0 0 0-.216.457 13.84 13.84 0 0 0-.188.493 9.515 9.515 0 0 0-.19-.49 5.36 5.36 0 0 0-.22-.46l-1.776-3.13a.653.653 0 0 0-.312-.319.956.956 0 0 0-.378-.08H0v7.45h1.636V30.41a7.06 7.06 0 0 0-.117-1.188l2.245 4.036a.539.539 0 0 0 .513.311h.19a.54.54 0 0 0 .515-.311l2.215-4.015a4.49 4.49 0 0 0-.085.594 7.212 7.212 0 0 0-.025.573v4.145h1.635zm8.563.016v-7.434h-1.1a.577.577 0 0 0-.382.142 1.353 1.353 0 0 0-.272.3 416.617 416.617 0 0 0-1.988 2.764 273.11 273.11 0 0 1-.814 1.127 3.77 3.77 0 0 0-.462.783c.02-.135.035-.27.047-.402a3.99 3.99 0 0 0 .02-.366v-4.34H10.52v7.434h1.108a.554.554 0 0 0 .378-.145c.11-.097.199-.196.267-.298.538-.748 1.02-1.42 1.445-2.014l.536-.743a238.955 238.955 0 0 0 .814-1.13 4.02 4.02 0 0 1 .147-.199 3.52 3.52 0 0 0 .323-.587c-.02.136-.036.269-.048.402a4 4 0 0 0-.018.366v4.34h1.812zM96.08 9.75a.35.35 0 0 0 .059-.063l.176-.248a1.456 1.456 0 0 0-.464-.324A1.488 1.488 0 0 0 95.248 9c-.244 0-.46.042-.647.126a1.32 1.32 0 0 0-.47.348 1.533 1.533 0 0 0-.289.53 2.175 2.175 0 0 0-.098.666q0 .398.11.708c.072.207.172.382.298.525.126.143.275.252.444.327.17.076.352.114.547.114.113 0 .225-.01.336-.028a1.445 1.445 0 0 0 .614-.25c.092-.065.176-.146.252-.241l-.187-.251a.141.141 0 0 0-.124-.064.185.185 0 0 0-.122.048 2.268 2.268 0 0 1-.137.104.957.957 0 0 1-.2.106q-.12.047-.312.047a.73.73 0 0 1-.615-.299 1.078 1.078 0 0 1-.168-.36 1.84 1.84 0 0 1-.058-.486c0-.176.018-.334.054-.475a1.02 1.02 0 0 1 .163-.36.739.739 0 0 1 .272-.227.845.845 0 0 1 .377-.08.865.865 0 0 1 .467.123c.052.03.098.059.136.084a.195.195 0 0 0 .109.038.126.126 0 0 0 .08-.022zm-24.504 2.546V9.042h-.54c-.044 0-.09.01-.135.03a.247.247 0 0 0-.114.125l-.842 1.508a1.805 1.805 0 0 0-.08.178 6.458 6.458 0 0 0-.07.191l-.07-.19a1.585 1.585 0 0 0-.079-.179l-.853-1.508a.276.276 0 0 0-.116-.124.311.311 0 0 0-.134-.031H68v3.254h.598v-1.963c0-.07-.004-.149-.013-.237a4.33 4.33 0 0 0-.033-.244l1.02 1.868c.02.038.047.068.08.09a.185.185 0 0 0 .108.034h.071a.195.195 0 0 0 .112-.033.253.253 0 0 0 .08-.091l1.001-1.858a3.648 3.648 0 0 0-.043.47v1.964h.595zm10.694 0V9.05h-.4a.205.205 0 0 0-.14.054.483.483 0 0 0-.098.118l-1.366 1.934a1.428 1.428 0 0 0-.126.242 2.916 2.916 0 0 0 .028-.315V9.05h-.663v3.248h.4a.2.2 0 0 0 .139-.056.52.52 0 0 0 .099-.116l1.366-1.937a.754.754 0 0 0 .063-.107c.02-.039.04-.082.06-.129a2.387 2.387 0 0 0-.025.309v2.033h.663zm7.346 0V9.05h-.401a.205.205 0 0 0-.139.054.476.476 0 0 0-.098.118l-1.366 1.934a1.436 1.436 0 0 0-.126.242 2.916 2.916 0 0 0 .027-.315V9.05h-.662v3.248h.4a.2.2 0 0 0 .139-.056.52.52 0 0 0 .099-.116l1.366-1.937a.773.773 0 0 0 .063-.107c.02-.039.04-.082.06-.129a2.453 2.453 0 0 0-.025.309v2.033h.663zm3.49-3.245v3.245h-.66v-1.473h-1.36v1.473h-.662V9.05h.662v1.257h1.36V9.05h.66zm9.808 3.245V9.05h-.4a.206.206 0 0 0-.139.054.483.483 0 0 0-.099.118l-1.365 1.934a1.407 1.407 0 0 0-.127.242 2.826 2.826 0 0 0 .028-.315V9.05h-.663v3.248h.401a.201.201 0 0 0 .139-.056.528.528 0 0 0 .098-.116l1.366-1.937a.754.754 0 0 0 .063-.107c.02-.039.04-.082.06-.129a2.207 2.207 0 0 0-.024.309v2.033h.662zm-16.578-.516v1.41a.212.212 0 0 1-.052.15.178.178 0 0 1-.136.056h-.41v-1.1h-2.66V9.05h.663v2.73H85.1V9.05h.66v2.73h.576zm12.432-2.545a.378.378 0 0 1 .312-.184h.518l-.774 1.218a.95.95 0 0 1-.154.2.549.549 0 0 1-.198.118c.101.03.185.075.252.136.067.06.127.138.18.233l.78 1.34h-.456a.514.514 0 0 1-.273-.06.49.49 0 0 1-.165-.179l-.533-.948a.425.425 0 0 0-.17-.178.491.491 0 0 0-.237-.057h-.312v1.425h-.662V9.05h.662v1.365h.269a.416.416 0 0 0 .215-.052.42.42 0 0 0 .148-.155l.598-.974zm-8.699 7.12v3.254h-.595v-1.963a3.607 3.607 0 0 1 .043-.47l-1.002 1.857a.247.247 0 0 1-.08.09.193.193 0 0 1-.11.034h-.072a.186.186 0 0 1-.11-.034.256.256 0 0 1-.078-.09l-1.02-1.868c.012.075.023.156.032.244a2.1 2.1 0 0 1 .014.237v1.963h-.598v-3.255h.543c.045 0 .09.01.134.032a.274.274 0 0 1 .116.124l.853 1.508c.029.055.055.115.079.178l.07.191c.022-.063.046-.127.07-.19.025-.064.051-.124.08-.18l.842-1.507a.245.245 0 0 1 .114-.125c.045-.02.09-.03.136-.03h.54zm-19.304.009v3.245h-.663v-2.033a2.212 2.212 0 0 1 .025-.309c-.02.047-.04.09-.06.13a.761.761 0 0 1-.063.106l-1.366 1.937a.529.529 0 0 1-.098.116.201.201 0 0 1-.139.056H68v-3.248h.663v2.033a2.896 2.896 0 0 1-.028.315c.041-.098.083-.178.127-.242l1.365-1.934a.484.484 0 0 1 .099-.118.204.204 0 0 1 .138-.054h.401zm3.49 3.245v-3.245h-.66v1.257h-1.36v-1.257h-.662v3.245h.663v-1.473h1.36v1.473h.659zm26.261-3.245v3.245h-.663v-2.033a1.96 1.96 0 0 1 .025-.309c-.02.047-.04.09-.06.13a.763.763 0 0 1-.063.106l-1.366 1.937a.52.52 0 0 1-.099.116.2.2 0 0 1-.138.056h-.401v-3.248h.663v2.033a2.916 2.916 0 0 1-.028.315c.04-.098.083-.178.126-.242l1.366-1.934a.474.474 0 0 1 .099-.118.203.203 0 0 1 .138-.054h.401zm7.01 3.245v-3.245h-.66v1.257h-1.36v-1.257h-.662v3.245h.663v-1.473h1.36v1.473h.659zm3.493-3.245v3.245h-.66v-1.473h-1.36v1.473h-.662v-3.245H109v1.257h1.359v-1.257h.66zm-13.783 4.138v-1.409h-.576v-2.729H96v2.73h-1.36v-2.73h-.662v3.244h2.66v1.101h.41c.056 0 .1-.018.136-.056a.212.212 0 0 0 .052-.15zm-18.194 6.42v-3.245h-.66v2.73H77.23v-2.73h-.663v2.73h-1.153v-2.73h-.663v3.245h4.291zm6.767-3.245v3.245h-.66v-1.473h-1.36v1.473h-.662v-3.245h.663v1.256h1.359v-1.256h.66zm3.576 3.245v-3.245h-.401a.204.204 0 0 0-.139.054.476.476 0 0 0-.098.118l-1.366 1.934a1.467 1.467 0 0 0-.127.241 2.965 2.965 0 0 0 .028-.314v-2.033h-.663v3.248h.401a.203.203 0 0 0 .14-.056.545.545 0 0 0 .098-.116l1.365-1.937a.815.815 0 0 0 .063-.107c.02-.04.04-.082.06-.129a2.213 2.213 0 0 0-.024.309v2.033h.663z" fill="#BDBDBD" fill-rule="evenodd"/><path d="M44.72 7.589a.716.716 0 0 0-.175-.524.716.716 0 0 0-.546-.248.72.72 0 0 0-.544 1.195.718.718 0 0 0 .495.247.72.72 0 0 0 .77-.67m8.288 15.65a.714.714 0 0 0 .524-.176.717.717 0 0 0 .246-.495.717.717 0 0 0-.67-.77.722.722 0 0 0-.1 1.44M61 17.003C61 7.613 53.389 0 44 0S27 7.612 27 17.003c0 8.152 5.735 14.962 13.39 16.618V23.346a.196.196 0 0 0-.058-.139l-1.747-1.748a.196.196 0 0 0-.14-.057h-1.788a.195.195 0 0 0-.183.127 1.637 1.637 0 0 1-1.53 1.054h-.016a1.644 1.644 0 0 1-1.18-.528 1.642 1.642 0 0 1-.444-1.212 1.635 1.635 0 0 1 1.752-1.538 1.631 1.631 0 0 1 1.418 1.051c.03.077.101.127.183.127h2.115c.087 0 .17.034.232.096l2.21 2.21a.327.327 0 0 1 .095.231v10.773c.73.117 1.474.187 2.231.207V20.577a.197.197 0 0 0-.057-.139l-4.897-4.898a.198.198 0 0 0-.14-.058h-3.359a.195.195 0 0 0-.183.128 1.644 1.644 0 0 1-1.53 1.054h-.014a1.646 1.646 0 0 1-1.182-.529 1.643 1.643 0 0 1-.444-1.212c.027-.443.226-.848.562-1.139.33-.287.753-.43 1.19-.399a1.63 1.63 0 0 1 1.418 1.052c.03.077.101.126.183.126h2.743a.197.197 0 0 0 .197-.197v-1.961a.197.197 0 0 0-.129-.184 1.633 1.633 0 0 1-1.048-1.646c.03-.437.229-.836.56-1.124.33-.287.754-.429 1.19-.398.438.03.837.23 1.125.56.287.33.429.754.399 1.191a1.63 1.63 0 0 1-1.052 1.419.195.195 0 0 0-.126.183v2.113a.2.2 0 0 0 .057.14l4.426 4.425a.064.064 0 0 0 .071.014c.01-.004.04-.02.04-.06V9.252a.196.196 0 0 0-.128-.183 1.633 1.633 0 0 1-1.049-1.645c.03-.438.23-.837.56-1.125.33-.287.755-.429 1.191-.399.438.031.837.23 1.124.56.288.332.43.755.399 1.192a1.632 1.632 0 0 1-1.05 1.419.195.195 0 0 0-.127.183v12.147c0 .04.03.057.04.06.01.004.043.015.071-.014l4.425-4.425a.197.197 0 0 0 .058-.14v-3.69a.197.197 0 0 0-.129-.184 1.633 1.633 0 0 1-1.049-1.646c.031-.437.23-.836.56-1.124a1.63 1.63 0 0 1 1.192-.399c.437.031.836.23 1.124.561.287.33.43.754.398 1.191a1.631 1.631 0 0 1-1.05 1.418.195.195 0 0 0-.127.183v3.54c0 .108.088.197.197.197h2.748c.082 0 .154-.05.183-.128a1.637 1.637 0 0 1 1.646-1.05c.438.03.837.23 1.124.56.288.331.43.754.4 1.191a1.63 1.63 0 0 1-.561 1.125c-.328.285-.755.43-1.191.399a1.649 1.649 0 0 1-1.416-1.05.198.198 0 0 0-.184-.128h-3.367a.194.194 0 0 0-.14.058l-4.895 4.896a.197.197 0 0 0-.057.139V34c.757-.02 1.502-.09 2.231-.207v-9.197c0-.087.035-.17.096-.232l2.21-2.21a.327.327 0 0 1 .232-.096h2.254c.088-.302.26-.57.498-.779.33-.287.755-.43 1.191-.399.437.031.837.23 1.124.56.288.332.43.755.399 1.192a1.64 1.64 0 0 1-3.21.346h-1.93a.196.196 0 0 0-.14.057l-1.747 1.748a.197.197 0 0 0-.058.14v8.698C55.265 31.965 61 25.155 61 17.003m-26.008 3.219a.72.72 0 0 0-.595 1.194.716.716 0 0 0 .495.247.717.717 0 0 0 .77-.67.715.715 0 0 0-.175-.524.716.716 0 0 0-.495-.247m19.591-2.113a.709.709 0 0 0 .524-.175.717.717 0 0 0 .246-.495.717.717 0 0 0-.721-.772.722.722 0 0 0-.049 1.442M39.206 10.74a.716.716 0 0 0-.175-.524.716.716 0 0 0-.546-.248.722.722 0 1 0 .721.772m10.781 1.283a.717.717 0 0 0 .247-.495.715.715 0 0 0-.176-.524.717.717 0 0 0-.545-.248.72.72 0 0 0-.72.671.718.718 0 0 0 .176.524.716.716 0 0 0 .494.247.713.713 0 0 0 .524-.175m-16.07 2.526a.716.716 0 0 1 .175.524.717.717 0 0 1-.246.495.718.718 0 0 1-1.018-.072.716.716 0 0 1-.176-.524.717.717 0 0 1 .77-.67.719.719 0 0 1 .495.247" fill="#BDBDBD"/><path d="M74.45 10.307c0-.114-.017-.22-.049-.32a.761.761 0 0 0-.14-.257.644.644 0 0 0-.23-.172.762.762 0 0 0-.316-.062c-.24 0-.43.071-.567.213-.137.142-.225.342-.262.598h1.563zm-1.582.42c.008.185.036.344.083.479.047.135.11.247.19.336a.74.74 0 0 0 .283.198c.11.044.233.066.369.066.129 0 .24-.016.335-.046.095-.031.177-.065.247-.102.07-.037.13-.071.179-.102a.26.26 0 0 1 .136-.046.14.14 0 0 1 .123.064l.188.25a1.213 1.213 0 0 1-.265.242 1.51 1.51 0 0 1-.315.161 1.74 1.74 0 0 1-.342.09 2.243 2.243 0 0 1-.342.026 1.6 1.6 0 0 1-.606-.113 1.343 1.343 0 0 1-.484-.332 1.547 1.547 0 0 1-.32-.544 2.223 2.223 0 0 1-.116-.747c0-.226.034-.435.103-.63a1.5 1.5 0 0 1 .296-.51c.129-.144.285-.258.469-.341.184-.084.392-.126.624-.126.193 0 .372.032.537.097.164.065.306.16.425.284.12.126.212.28.279.46.067.182.1.388.1.619 0 .106-.011.177-.034.213-.023.036-.064.054-.123.054h-2.02zm4.904 1.075v-2.22h-.882a9.806 9.806 0 0 1-.078.799 6.792 6.792 0 0 1-.117.624 3.41 3.41 0 0 1-.147.468 2.02 2.02 0 0 1-.167.33h1.391zm1.218-.022v1.41a.207.207 0 0 1-.054.15.184.184 0 0 1-.137.056h-.41v-1.1H75.9v.906a.22.22 0 0 1-.045.134c-.03.04-.076.06-.137.06h-.42v-1.594h.096a.702.702 0 0 0 .213-.033.484.484 0 0 0 .2-.135c.064-.068.125-.164.182-.288.058-.124.11-.288.156-.492.046-.203.087-.452.122-.747s.062-.647.083-1.056h2.062v2.729h.577z" fill="#757575"/><path d="M20.887 32.645c.205.246.429.42.671.522.243.1.505.152.789.152.274 0 .52-.051.74-.152.22-.101.408-.256.562-.464.154-.207.273-.47.356-.786.083-.317.125-.69.125-1.12 0-.435-.036-.803-.107-1.105a2.127 2.127 0 0 0-.304-.735 1.207 1.207 0 0 0-.48-.414 1.52 1.52 0 0 0-.643-.13c-.376 0-.696.079-.96.236a2.899 2.899 0 0 0-.749.663v3.333zm-.095-4.493a3.91 3.91 0 0 1 1.049-.833c.39-.212.85-.319 1.379-.319a2.5 2.5 0 0 1 1.126.254c.34.169.633.414.88.736.247.321.438.717.573 1.188.134.471.201 1.01.201 1.62 0 .555-.076 1.07-.227 1.543a3.768 3.768 0 0 1-.65 1.232c-.28.348-.62.62-1.02.815a3.003 3.003 0 0 1-1.338.293c-.42 0-.78-.064-1.078-.191a2.648 2.648 0 0 1-.8-.533V37h-1.812v-9.862h1.108c.234 0 .389.109.462.326l.147.688z"/><path d="M105.784 10.307c0-.114-.016-.22-.048-.32a.755.755 0 0 0-.14-.257.644.644 0 0 0-.23-.172.76.76 0 0 0-.316-.062c-.24 0-.43.071-.567.213-.137.142-.225.342-.262.598h1.563zm-1.581.42c.008.185.035.344.083.479.047.135.11.247.19.336a.727.727 0 0 0 .283.198c.11.044.233.066.369.066.129 0 .24-.016.335-.046.095-.031.177-.065.247-.102.07-.037.13-.071.179-.102a.26.26 0 0 1 .136-.046.14.14 0 0 1 .123.064l.188.25a1.213 1.213 0 0 1-.265.242 1.51 1.51 0 0 1-.315.161 1.713 1.713 0 0 1-.342.09c-.117.017-.23.026-.342.026a1.6 1.6 0 0 1-.606-.113 1.343 1.343 0 0 1-.484-.332 1.547 1.547 0 0 1-.32-.544 2.223 2.223 0 0 1-.116-.747c0-.226.034-.435.103-.63a1.5 1.5 0 0 1 .296-.51c.129-.144.285-.258.469-.341.184-.084.392-.126.624-.126.193 0 .372.032.537.097.164.065.306.16.425.284.119.126.212.28.279.46.067.182.1.388.1.619 0 .106-.011.177-.034.213-.023.036-.064.054-.123.054h-2.02zm-27.035 8.414c.335-.023.592-.135.773-.334.18-.199.269-.473.269-.82 0-.348-.09-.623-.27-.823-.18-.2-.437-.312-.772-.336v2.313zm-.58-2.313c-.334.024-.592.136-.772.336-.18.2-.27.475-.27.823 0 .347.09.621.27.82.18.2.438.31.773.334v-2.313zm.599-.512c.255.013.485.06.693.143.208.083.384.197.53.34.146.145.26.317.34.516.08.2.12.422.12.668 0 .246-.04.469-.12.668a1.506 1.506 0 0 1-.87.857 2.125 2.125 0 0 1-.693.145v1.056h-.62v-1.056a2.121 2.121 0 0 1-.694-.145 1.506 1.506 0 0 1-.87-.857c-.08-.2-.12-.422-.12-.668 0-.244.04-.465.121-.665a1.51 1.51 0 0 1 .87-.857 2.13 2.13 0 0 1 .693-.145v-1.288h.62v1.288zm3.668 2.806c.284 0 .495-.098.634-.294.139-.197.208-.477.208-.842s-.07-.646-.208-.844c-.139-.198-.35-.298-.634-.298-.288 0-.501.1-.641.298-.14.198-.21.48-.21.844 0 .365.07.645.21.842.14.196.353.294.641.294m0-2.809c.232 0 .443.04.63.118.189.078.349.19.482.334.132.144.234.32.306.525.072.205.108.437.108.693 0 .257-.036.488-.108.694a1.505 1.505 0 0 1-.306.526 1.344 1.344 0 0 1-.481.336 1.624 1.624 0 0 1-.63.117 1.64 1.64 0 0 1-.634-.117 1.36 1.36 0 0 1-.483-.336 1.497 1.497 0 0 1-.308-.526 2.095 2.095 0 0 1-.108-.694c0-.256.036-.488.108-.693a1.48 1.48 0 0 1 .308-.525c.134-.145.295-.256.483-.334.188-.079.4-.118.633-.118m2.824 2.481c.092.123.193.21.303.26.11.05.232.074.365.074a.712.712 0 0 0 .606-.292c.145-.195.217-.486.217-.872 0-.2-.016-.37-.049-.51a1.006 1.006 0 0 0-.141-.346.56.56 0 0 0-.226-.194.722.722 0 0 0-.299-.06.816.816 0 0 0-.436.113 1.25 1.25 0 0 0-.34.323v1.504zm-.034-1.96c.13-.158.28-.287.448-.384a1.14 1.14 0 0 1 .585-.146c.176 0 .336.036.48.11.144.073.267.18.37.32.103.139.182.312.239.52.057.206.085.443.085.71 0 .24-.032.463-.094.67a1.659 1.659 0 0 1-.27.537 1.213 1.213 0 0 1-.99.485 1.08 1.08 0 0 1-.47-.092 1.222 1.222 0 0 1-.35-.254v1.377h-.662v-4.323h.4c.091 0 .148.043.173.13l.056.34zm8.915 1.356a4.03 4.03 0 0 0-.598.059c-.163.03-.294.07-.395.117a.52.52 0 0 0-.217.17.38.38 0 0 0-.067.217c0 .076.012.141.036.195a.35.35 0 0 0 .098.134c.043.035.092.06.149.076a.925.925 0 0 0 .632-.076 1.4 1.4 0 0 0 .361-.291v-.601zm-1.758-1.375a1.77 1.77 0 0 1 1.27-.512c.181 0 .342.03.483.09a.99.99 0 0 1 .355.257c.095.11.168.241.218.393.05.151.076.32.076.504v2.061h-.296a.28.28 0 0 1-.145-.03c-.033-.02-.06-.06-.083-.122l-.065-.264c-.08.074-.16.14-.237.199a1.464 1.464 0 0 1-.242.147c-.084.04-.173.071-.268.091-.096.02-.202.03-.316.03-.128 0-.247-.018-.357-.054a.778.778 0 0 1-.284-.164.772.772 0 0 1-.19-.272.96.96 0 0 1-.07-.381c0-.125.033-.247.097-.366a.9.9 0 0 1 .321-.32c.149-.094.345-.172.589-.234.244-.061.544-.096.901-.105v-.216c0-.233-.048-.407-.144-.522-.097-.114-.239-.171-.426-.171a.9.9 0 0 0-.32.049 1.426 1.426 0 0 0-.226.106c-.063.038-.12.074-.169.107a.28.28 0 0 1-.157.05.186.186 0 0 1-.116-.037.293.293 0 0 1-.078-.091l-.12-.223zm11.881 2.307c.284 0 .495-.098.634-.294.138-.197.208-.477.208-.842s-.07-.646-.208-.844c-.139-.198-.35-.298-.634-.298-.287 0-.501.1-.641.298-.14.198-.21.48-.21.844 0 .365.07.645.21.842.14.196.354.294.641.294m0-2.809c.233 0 .443.04.63.118.189.078.349.19.481.334.133.144.236.32.307.525.072.205.108.437.108.693 0 .257-.036.488-.108.694a1.506 1.506 0 0 1-.307.526 1.338 1.338 0 0 1-.48.336 1.62 1.62 0 0 1-.63.117 1.64 1.64 0 0 1-.634-.117 1.357 1.357 0 0 1-.483-.336 1.497 1.497 0 0 1-.308-.526 2.095 2.095 0 0 1-.108-.694c0-.256.036-.488.108-.693a1.48 1.48 0 0 1 .308-.525c.134-.145.295-.256.483-.334.188-.079.4-.118.633-.118m12.188 3.295h.663v-3.244h-.663v3.244zm-1.793-.496a.744.744 0 0 0 .254-.04.516.516 0 0 0 .182-.108.422.422 0 0 0 .108-.163.6.6 0 0 0 .003-.403.416.416 0 0 0-.102-.159.484.484 0 0 0-.18-.108.816.816 0 0 0-.272-.04h-.613v1.021h.62zm-.01-1.514c.218 0 .402.027.552.081.15.054.271.127.364.218a.81.81 0 0 1 .2.317 1.142 1.142 0 0 1-.015.785.9.9 0 0 1-.227.323 1.03 1.03 0 0 1-.367.212 1.52 1.52 0 0 1-.497.074h-1.249v-3.244h.629v1.234h.61zm5.337.022c0-.114-.016-.22-.048-.32a.755.755 0 0 0-.14-.257.644.644 0 0 0-.23-.172.76.76 0 0 0-.316-.062c-.24 0-.43.071-.567.213-.138.142-.225.342-.262.598h1.563zm-1.582.42c.009.185.037.344.083.479a.993.993 0 0 0 .19.335c.08.09.174.156.284.2.11.043.233.065.368.065.13 0 .242-.016.336-.047.095-.03.177-.064.247-.101.07-.037.13-.071.179-.102a.26.26 0 0 1 .135-.046.14.14 0 0 1 .123.063l.189.252a1.213 1.213 0 0 1-.266.241c-.098.066-.203.12-.314.161a1.74 1.74 0 0 1-.342.09 2.38 2.38 0 0 1-.342.026c-.218 0-.42-.037-.606-.113a1.346 1.346 0 0 1-.484-.332 1.547 1.547 0 0 1-.32-.544 2.224 2.224 0 0 1-.116-.747c0-.226.034-.435.103-.63.069-.196.168-.365.296-.51.129-.144.285-.258.469-.341.184-.084.392-.126.624-.126.193 0 .372.032.536.097.165.065.306.16.426.284.119.126.212.28.279.46.066.182.1.388.1.619 0 .106-.011.177-.034.213-.023.036-.064.054-.123.054h-2.02zm-48.16 8.067a.8.8 0 0 0 .303.26.87.87 0 0 0 .366.074.71.71 0 0 0 .605-.292c.145-.195.218-.486.218-.872 0-.2-.016-.37-.05-.51a1.006 1.006 0 0 0-.141-.346.553.553 0 0 0-.225-.194.722.722 0 0 0-.3-.06.815.815 0 0 0-.435.113 1.249 1.249 0 0 0-.341.322v1.505zm-.034-1.96c.131-.158.28-.287.448-.384a1.14 1.14 0 0 1 .585-.146 1.025 1.025 0 0 1 .85.43c.103.139.183.312.24.52.056.206.084.443.084.71 0 .24-.031.463-.094.67a1.647 1.647 0 0 1-.27.537 1.213 1.213 0 0 1-.99.485 1.08 1.08 0 0 1-.47-.092 1.212 1.212 0 0 1-.35-.254V28H68v-4.323h.4c.091 0 .149.043.173.13l.056.34zm4.911.786c0-.114-.016-.22-.048-.32a.755.755 0 0 0-.14-.257.647.647 0 0 0-.23-.172.762.762 0 0 0-.316-.062c-.24 0-.43.071-.567.213-.138.142-.225.342-.262.598h1.563zm-1.581.42c.007.185.035.344.083.479a.96.96 0 0 0 .19.335c.078.09.173.156.283.2.11.043.233.065.368.065.13 0 .242-.016.336-.047.095-.03.177-.064.247-.101.07-.037.13-.071.178-.102a.265.265 0 0 1 .136-.046.14.14 0 0 1 .124.063l.188.252a1.221 1.221 0 0 1-.265.241c-.1.066-.204.12-.315.161a1.758 1.758 0 0 1-.342.09 2.243 2.243 0 0 1-.342.026 1.6 1.6 0 0 1-.606-.113 1.343 1.343 0 0 1-.484-.332 1.547 1.547 0 0 1-.32-.544 2.215 2.215 0 0 1-.116-.748c0-.225.034-.434.103-.63a1.5 1.5 0 0 1 .296-.508c.128-.145.285-.259.468-.342a1.49 1.49 0 0 1 .625-.126c.193 0 .372.032.537.097.164.065.306.16.425.284.119.126.212.28.279.46.066.182.1.388.1.619 0 .106-.011.177-.034.213-.023.036-.064.054-.123.054h-2.02zm9.956-.42c0-.114-.016-.22-.048-.32a.755.755 0 0 0-.14-.257.647.647 0 0 0-.23-.172.762.762 0 0 0-.316-.062c-.24 0-.43.071-.567.213-.138.142-.225.342-.262.598h1.563zm-1.581.42c.007.185.035.344.083.479a.96.96 0 0 0 .19.335c.078.09.173.156.283.2.11.043.233.065.368.065.13 0 .242-.016.336-.047.095-.03.177-.064.247-.101.07-.037.13-.071.178-.102a.265.265 0 0 1 .136-.046.14.14 0 0 1 .124.063l.188.252a1.221 1.221 0 0 1-.265.241c-.1.066-.204.12-.315.161a1.758 1.758 0 0 1-.342.09 2.243 2.243 0 0 1-.342.026 1.6 1.6 0 0 1-.606-.113 1.343 1.343 0 0 1-.484-.332 1.547 1.547 0 0 1-.32-.544 2.215 2.215 0 0 1-.116-.748c0-.225.034-.434.103-.63a1.5 1.5 0 0 1 .296-.508c.128-.145.285-.259.468-.342a1.49 1.49 0 0 1 .625-.126c.193 0 .372.032.537.097.164.065.306.16.425.284.119.126.212.28.279.46.066.182.1.388.1.619 0 .106-.011.177-.034.213-.023.036-.064.054-.123.054h-2.02zm11.504-.193v-1.031h-.465a.665.665 0 0 0-.268.047.455.455 0 0 0-.265.29.62.62 0 0 0-.029.18c0 .16.056.285.165.376.11.092.259.137.446.137h.416zm.632-1.483v3.244h-.632v-1.329h-.182a.573.573 0 0 0-.148.016.334.334 0 0 0-.1.044.346.346 0 0 0-.074.07.993.993 0 0 0-.063.093l-.589.868a.488.488 0 0 1-.153.18.477.477 0 0 1-.263.058h-.456l.848-1.18a.603.603 0 0 1 .326-.286 1.206 1.206 0 0 1-.388-.121.892.892 0 0 1-.26-.2.735.735 0 0 1-.143-.25.852.852 0 0 1-.044-.269c0-.116.022-.23.066-.343a.8.8 0 0 1 .211-.301 1.09 1.09 0 0 1 .375-.213c.153-.054.337-.081.553-.081h1.116z" fill="#757575"/></symbol><symbol id="icon-logo"><path d="M9.058 36.556v-7.45H7.504c-.132 0-.262.026-.388.077-.128.05-.237.158-.328.322l-1.828 3.13a3.959 3.959 0 0 0-.225.457 12.57 12.57 0 0 0-.194.493 9.315 9.315 0 0 0-.198-.49 5.275 5.275 0 0 0-.23-.46l-1.843-3.13a.67.67 0 0 0-.324-.319 1.03 1.03 0 0 0-.392-.08H0v7.45h1.699V32.41a6.82 6.82 0 0 0-.122-1.188l2.331 4.036c.112.208.29.311.534.311h.198a.564.564 0 0 0 .533-.311l2.3-4.015a4.46 4.46 0 0 0-.087.594 6.95 6.95 0 0 0-.027.573v4.145h1.699zm8.892.016v-7.434h-1.143a.613.613 0 0 0-.397.142c-.116.093-.21.194-.281.3a411.087 411.087 0 0 0-2.065 2.764 251.718 251.718 0 0 1-.845 1.127 3.739 3.739 0 0 0-.48.783c.02-.135.036-.27.05-.402.012-.133.018-.255.018-.366v-4.34h-1.882v7.434h1.151a.588.588 0 0 0 .393-.145c.113-.097.206-.196.277-.298.559-.748 1.06-1.42 1.501-2.014l.556-.743a266.86 266.86 0 0 0 .846-1.13c.091-.123.142-.19.152-.199.122-.17.234-.365.336-.587-.02.136-.037.269-.05.402a3.877 3.877 0 0 0-.019.366v4.34h1.882zm84.782-25.782a.365.365 0 0 0 .062-.067l.186-.26a1.544 1.544 0 0 0-.491-.342 1.584 1.584 0 0 0-.638-.121c-.259 0-.488.044-.686.132a1.392 1.392 0 0 0-.497.367 1.608 1.608 0 0 0-.306.557c-.07.216-.104.45-.104.702q0 .418.116.745c.077.218.183.402.316.552.134.151.291.266.47.345.18.08.373.12.58.12.12 0 .238-.01.356-.03a1.53 1.53 0 0 0 .65-.263c.097-.068.186-.153.267-.253l-.2-.265a.15.15 0 0 0-.13-.067.197.197 0 0 0-.129.05 2 2 0 0 1-.145.11.994.994 0 0 1-.212.111q-.127.05-.33.05a.772.772 0 0 1-.651-.315 1.133 1.133 0 0 1-.178-.378 1.927 1.927 0 0 1-.062-.512c0-.185.02-.352.057-.5.038-.15.096-.275.173-.38a.781.781 0 0 1 .287-.238.9.9 0 0 1 .4-.084.92.92 0 0 1 .495.129c.055.032.103.062.143.088.04.027.08.04.116.04a.133.133 0 0 0 .085-.023zm-25.945 2.68v-3.426h-.572a.35.35 0 0 0-.143.032.26.26 0 0 0-.121.131l-.891 1.588a1.91 1.91 0 0 0-.085.187 6.77 6.77 0 0 0-.075.201 30.873 30.873 0 0 0-.073-.2 1.661 1.661 0 0 0-.084-.188l-.904-1.588a.29.29 0 0 0-.122-.13.331.331 0 0 0-.142-.033H73v3.425h.633v-2.066a2.63 2.63 0 0 0-.014-.25 4.532 4.532 0 0 0-.035-.256l1.08 1.966c.023.04.05.072.084.096a.197.197 0 0 0 .116.035h.075a.208.208 0 0 0 .118-.035.267.267 0 0 0 .084-.096l1.061-1.956a3.827 3.827 0 0 0-.045.496v2.066h.63zm11.322 0v-3.416h-.424a.218.218 0 0 0-.147.056.513.513 0 0 0-.104.125l-1.447 2.035a1.5 1.5 0 0 0-.133.255 3.042 3.042 0 0 0 .03-.332v-2.14h-.703v3.42h.425c.054 0 .103-.02.147-.06a.55.55 0 0 0 .104-.122l1.446-2.039a.802.802 0 0 0 .067-.112c.02-.041.042-.086.064-.135a2.587 2.587 0 0 0-.026.324v2.14h.701zm7.778 0v-3.416h-.424a.218.218 0 0 0-.147.056.5.5 0 0 0-.104.125l-1.447 2.035a1.5 1.5 0 0 0-.133.255 3.042 3.042 0 0 0 .03-.332v-2.14h-.703v3.42h.425a.21.21 0 0 0 .146-.06.547.547 0 0 0 .105-.122l1.446-2.039a.792.792 0 0 0 .067-.112c.02-.041.042-.086.064-.135a2.52 2.52 0 0 0-.027.324v2.14h.702zm3.695-3.416v3.415h-.698v-1.55h-1.44v1.55h-.701v-3.415h.701v1.322h1.44v-1.322h.698zm10.386 3.415v-3.415h-.424a.219.219 0 0 0-.147.056.51.51 0 0 0-.105.125l-1.445 2.035c-.046.067-.09.152-.134.255a3.04 3.04 0 0 0 .029-.332v-2.14h-.702v3.42h.425c.054 0 .103-.02.147-.06a.56.56 0 0 0 .104-.122l1.446-2.039a.811.811 0 0 0 .067-.112c.02-.041.042-.086.063-.135a2.337 2.337 0 0 0-.026.324v2.14h.702zm-17.554-.542v1.483c0 .067-.018.12-.055.159a.189.189 0 0 1-.144.058h-.434V13.47h-2.817v-3.415h.702v2.873h1.44v-2.873h.698v2.873h.61zm13.164-2.68a.4.4 0 0 1 .33-.193h.548l-.82 1.282a1 1 0 0 1-.162.211.582.582 0 0 1-.21.124.675.675 0 0 1 .267.142c.07.064.134.146.19.246l.827 1.41h-.484a.547.547 0 0 1-.288-.064.518.518 0 0 1-.175-.187l-.565-.998a.447.447 0 0 0-.179-.187.522.522 0 0 0-.251-.06h-.33v1.5h-.702v-3.42h.702v1.437h.284a.443.443 0 0 0 .228-.054.443.443 0 0 0 .157-.163l.633-1.025zm-9.21 7.495v3.425h-.631v-2.066a3.8 3.8 0 0 1 .046-.495l-1.06 1.955a.26.26 0 0 1-.086.095.204.204 0 0 1-.117.036h-.075a.197.197 0 0 1-.116-.036.27.27 0 0 1-.084-.095l-1.08-1.966c.013.079.024.164.034.256.01.093.015.176.015.25v2.066h-.633v-3.425h.574c.048 0 .095.01.142.033a.289.289 0 0 1 .123.13l.904 1.588c.03.058.058.12.083.187l.074.201a6.84 6.84 0 0 1 .075-.2c.026-.068.054-.13.085-.188l.89-1.588a.26.26 0 0 1 .121-.132.349.349 0 0 1 .144-.031h.571zm-20.44.01v3.415h-.702v-2.14a2.316 2.316 0 0 1 .026-.325c-.021.05-.043.095-.063.136a.8.8 0 0 1-.067.112l-1.446 2.04a.557.557 0 0 1-.104.122.214.214 0 0 1-.147.058H73v-3.418h.702v2.14a3.03 3.03 0 0 1-.03.331c.044-.103.089-.188.134-.255l1.446-2.036a.51.51 0 0 1 .105-.124.217.217 0 0 1 .147-.056h.424zm3.695 3.415v-3.415h-.699v1.322h-1.44v-1.322h-.7v3.415h.7v-1.55h1.44v1.55h.699zm27.806-3.415v3.415h-.702v-2.14a2.123 2.123 0 0 1 .026-.324 2.169 2.169 0 0 1-.064.135.801.801 0 0 1-.066.112l-1.446 2.04q-.04.063-.105.122a.212.212 0 0 1-.147.058h-.424v-3.418h.702v2.14a3.042 3.042 0 0 1-.03.331c.044-.103.088-.188.134-.255l1.446-2.036a.5.5 0 0 1 .105-.124.215.215 0 0 1 .146-.056h.425zm7.422 3.415v-3.415h-.698v1.322h-1.44v-1.322h-.702v3.415h.702v-1.55h1.44v1.55h.698zm3.698-3.415v3.415h-.698v-1.55h-1.44v1.55h-.702v-3.415h.702v1.322h1.44v-1.322h.698zm-14.593 4.356v-1.484h-.61v-2.872h-.7v2.872h-1.438v-2.872h-.702v3.415h2.817v1.158h.434a.187.187 0 0 0 .143-.058.222.222 0 0 0 .056-.16zm-19.264 6.757v-3.416h-.699v2.873h-1.22V25.45h-.702v2.873h-1.22V25.45h-.703v3.416h4.544zm7.164-3.416v3.416h-.698v-1.55h-1.44v1.55h-.702v-3.416h.702v1.323h1.44v-1.323h.698zm3.787 3.416v-3.416h-.425a.217.217 0 0 0-.147.057.504.504 0 0 0-.104.124l-1.446 2.036c-.046.067-.09.152-.134.254a3 3 0 0 0 .03-.33v-2.14h-.702v3.418h.424c.055 0 .103-.02.147-.058a.574.574 0 0 0 .104-.122l1.446-2.04a.836.836 0 0 0 .067-.112c.021-.041.042-.086.064-.136a2.292 2.292 0 0 0-.026.325v2.14h.702z" fill="#FFF" fill-rule="evenodd"/><path d="M47.763 8.035a.758.758 0 0 0-.186-.554.757.757 0 0 0-.578-.263.763.763 0 0 0-.576 1.266.76.76 0 0 0 .524.26.762.762 0 0 0 .816-.71m8.774 16.571a.75.75 0 0 0 .555-.186.759.759 0 0 0 .261-.523.76.76 0 0 0-.763-.818.765.765 0 0 0-.053 1.527M65 18.003C65 8.06 56.941 0 47 0S29 8.06 29 18.003c0 8.631 6.073 15.842 14.177 17.596v-10.88a.208.208 0 0 0-.06-.146l-1.85-1.852a.208.208 0 0 0-.148-.06h-1.894a.207.207 0 0 0-.194.135 1.732 1.732 0 0 1-1.62 1.116h-.017a1.74 1.74 0 0 1-1.249-.56 1.738 1.738 0 0 1-.47-1.283c.028-.47.24-.898.594-1.206.35-.304.799-.455 1.261-.422a1.727 1.727 0 0 1 1.501 1.112.206.206 0 0 0 .194.134h2.24c.092 0 .18.037.245.102l2.34 2.34a.346.346 0 0 1 .101.246V35.78a18.05 18.05 0 0 0 2.362.219V21.788a.208.208 0 0 0-.06-.148l-5.186-5.186a.21.21 0 0 0-.147-.061h-3.557a.206.206 0 0 0-.194.135 1.74 1.74 0 0 1-1.62 1.116h-.015a1.742 1.742 0 0 1-1.251-.56 1.74 1.74 0 0 1-.47-1.283c.028-.469.24-.898.594-1.206.35-.304.798-.455 1.26-.422a1.727 1.727 0 0 1 1.502 1.113.206.206 0 0 0 .194.134h2.904a.209.209 0 0 0 .209-.209v-2.077a.209.209 0 0 0-.137-.194 1.73 1.73 0 0 1-1.11-1.742c.032-.463.243-.886.593-1.19.35-.305.799-.455 1.261-.423.463.033.886.243 1.19.593.304.35.455.798.423 1.262a1.727 1.727 0 0 1-1.113 1.502.206.206 0 0 0-.134.194v2.237c0 .055.022.109.06.148l4.686 4.685c.03.031.065.02.076.015a.068.068 0 0 0 .042-.064V9.797a.208.208 0 0 0-.136-.194 1.729 1.729 0 0 1-1.11-1.742c.032-.463.243-.886.593-1.19.35-.304.799-.455 1.26-.422.464.032.887.243 1.191.593.305.35.454.798.422 1.261a1.728 1.728 0 0 1-1.112 1.502.206.206 0 0 0-.134.194V22.66c0 .043.032.06.043.064.01.004.045.016.075-.015l4.685-4.686a.209.209 0 0 0 .061-.147v-3.909a.209.209 0 0 0-.136-.194 1.73 1.73 0 0 1-1.11-1.742c.032-.463.243-.886.593-1.19.35-.305.8-.456 1.26-.423.464.033.887.243 1.19.594.305.35.456.798.423 1.26a1.726 1.726 0 0 1-1.113 1.503.207.207 0 0 0-.133.194v3.747c0 .115.093.209.208.209h2.91a.207.207 0 0 0 .194-.135 1.733 1.733 0 0 1 1.743-1.113 1.73 1.73 0 0 1 1.19.594c.304.35.454.798.422 1.261a1.726 1.726 0 0 1-.593 1.19 1.73 1.73 0 0 1-1.261.423 1.746 1.746 0 0 1-1.5-1.111.21.21 0 0 0-.194-.136h-3.566a.205.205 0 0 0-.147.061l-5.183 5.184a.208.208 0 0 0-.061.147V36c.801-.021 1.59-.096 2.363-.219v-9.738c0-.093.036-.18.101-.246l2.34-2.34a.347.347 0 0 1 .246-.102h2.386c.093-.32.275-.604.528-.824.35-.304.799-.455 1.26-.422.464.032.887.243 1.191.593.304.35.454.798.422 1.261a1.737 1.737 0 0 1-3.4.366h-2.042a.207.207 0 0 0-.148.061l-1.85 1.851a.208.208 0 0 0-.062.148v9.21C58.927 33.845 65 26.634 65 18.003m-27.538 3.409a.763.763 0 0 0-.63 1.264c.135.154.32.247.524.26a.76.76 0 0 0 .816-.71.756.756 0 0 0-.186-.553.758.758 0 0 0-.524-.261m20.744-2.238a.76.76 0 0 0 .816-.71.76.76 0 0 0-.763-.818.764.764 0 0 0-.053 1.528m-16.282-7.802a.758.758 0 0 0-.185-.555.758.758 0 0 0-.578-.263.764.764 0 1 0 .763.818M53.34 12.73a.759.759 0 0 0 .26-.524.758.758 0 0 0-.185-.555.76.76 0 0 0-1.079-.075.76.76 0 0 0-.075 1.078c.135.155.32.247.524.261.203.015.4-.05.555-.185m-17.016 2.675c.134.154.2.35.185.554a.759.759 0 0 1-.26.524.76.76 0 0 1-1.078-.076.758.758 0 0 1-.186-.554.764.764 0 0 1 1.34-.448" fill="#FFF"/><path d="M79.829 11.376c0-.12-.017-.233-.05-.337a.8.8 0 0 0-.15-.27.682.682 0 0 0-.243-.182.81.81 0 0 0-.334-.065c-.255 0-.455.075-.6.224-.146.15-.239.36-.278.63h1.655zm-1.675.442c.009.195.038.363.088.504.05.142.117.26.201.354a.783.783 0 0 0 .3.209c.117.046.247.068.39.068.138 0 .256-.016.356-.048.1-.033.187-.068.261-.107.075-.04.138-.075.19-.107a.277.277 0 0 1 .143-.05c.057 0 .1.023.13.068l.2.265c-.083.1-.176.185-.28.254a1.61 1.61 0 0 1-.334.169 1.818 1.818 0 0 1-.362.094 2.389 2.389 0 0 1-.362.028c-.23 0-.445-.04-.642-.119a1.422 1.422 0 0 1-.512-.35 1.626 1.626 0 0 1-.34-.572 2.328 2.328 0 0 1-.122-.787c0-.237.036-.458.11-.663.072-.205.176-.384.313-.536a1.47 1.47 0 0 1 .496-.36 1.59 1.59 0 0 1 .661-.132c.205 0 .394.034.568.102.174.068.324.168.45.3.127.131.225.293.296.484.07.19.106.408.106.65 0 .113-.012.187-.036.225-.024.038-.068.057-.13.057h-2.139zm5.193 1.132v-2.337h-.933c-.02.313-.048.593-.084.84a7.112 7.112 0 0 1-.124.658 3.623 3.623 0 0 1-.155.493 2.16 2.16 0 0 1-.176.346h1.472zm1.29-.024v1.484c0 .067-.02.12-.058.16a.195.195 0 0 1-.145.058H84v-1.159h-2.634v.954a.23.23 0 0 1-.048.141c-.031.042-.08.064-.145.064h-.444V12.95h.101a.748.748 0 0 0 .226-.035.512.512 0 0 0 .212-.142c.067-.072.132-.173.193-.303.06-.131.116-.304.164-.518.05-.214.092-.476.13-.787.036-.31.066-.68.087-1.111h2.184v2.872h.61z" fill="#757575"/><path d="M21.69 34.645c.213.246.446.42.697.522.252.1.525.152.819.152.285 0 .541-.051.77-.152.228-.101.422-.256.582-.464.16-.207.284-.47.37-.786.086-.317.13-.69.13-1.12 0-.435-.038-.803-.111-1.105a2.085 2.085 0 0 0-.316-.735 1.241 1.241 0 0 0-.5-.414 1.63 1.63 0 0 0-.666-.13c-.391 0-.723.079-.998.236a2.978 2.978 0 0 0-.777.663v3.333zm-.099-4.493a4.04 4.04 0 0 1 1.09-.833c.406-.212.883-.319 1.432-.319.426 0 .816.085 1.17.254.352.169.657.414.913.736.257.321.455.717.595 1.188.14.471.209 1.01.209 1.62 0 .555-.079 1.07-.236 1.543a3.724 3.724 0 0 1-.675 1.232 3.09 3.09 0 0 1-1.058.815 3.219 3.219 0 0 1-1.39.293c-.438 0-.81-.064-1.12-.191a2.76 2.76 0 0 1-.83-.533V39h-1.882v-9.862h1.15c.243 0 .404.109.48.326l.152.688z"/><path d="M113.007 11.376c0-.12-.016-.233-.05-.337a.793.793 0 0 0-.148-.27.682.682 0 0 0-.244-.182.81.81 0 0 0-.334-.065c-.255 0-.455.075-.601.224-.146.15-.238.36-.278.63h1.655zm-1.674.442c.009.195.038.363.088.504.05.142.117.26.2.354a.781.781 0 0 0 .301.209c.117.046.247.068.39.068.137 0 .256-.016.356-.048.1-.033.187-.068.261-.107.074-.04.137-.075.19-.107a.277.277 0 0 1 .143-.05c.057 0 .1.023.13.068l.2.265c-.083.1-.176.185-.28.254-.106.07-.217.125-.334.169a1.822 1.822 0 0 1-.362.094 2.384 2.384 0 0 1-.362.028 1.71 1.71 0 0 1-.642-.119 1.422 1.422 0 0 1-.512-.35 1.626 1.626 0 0 1-.34-.572 2.328 2.328 0 0 1-.122-.787c0-.237.036-.458.11-.663.072-.205.176-.384.313-.536.136-.152.3-.272.496-.36.195-.088.415-.132.66-.132.205 0 .394.034.569.102.174.068.324.168.45.3.126.131.225.293.296.484.07.19.106.408.106.65 0 .113-.012.187-.036.225-.025.038-.068.057-.131.057h-2.138zm-28.625 8.857c.354-.025.627-.142.818-.352.19-.21.285-.498.285-.864s-.095-.655-.285-.866c-.191-.21-.464-.328-.818-.353v2.435zm-.614-2.435c-.355.025-.627.143-.818.353-.19.211-.285.5-.285.866s.095.655.285.864c.19.21.463.327.818.352V18.24zm.633-.539c.27.014.515.064.735.15a1.592 1.592 0 0 1 .92.9c.085.211.127.446.127.705 0 .259-.042.493-.127.703a1.584 1.584 0 0 1-.92.902c-.22.089-.465.14-.735.153v1.111h-.656v-1.111a2.258 2.258 0 0 1-.734-.153 1.584 1.584 0 0 1-.92-.902 1.86 1.86 0 0 1-.128-.703c0-.257.043-.49.127-.7a1.588 1.588 0 0 1 .921-.903 2.28 2.28 0 0 1 .734-.152v-1.356h.656v1.356zm3.884 2.954c.3 0 .524-.104.671-.31.147-.207.22-.502.22-.886s-.073-.68-.22-.889c-.147-.208-.37-.313-.67-.313-.305 0-.532.105-.68.313-.148.21-.222.505-.222.89 0 .383.074.678.222.885.148.206.375.31.68.31m0-2.957c.245 0 .468.041.667.124a1.44 1.44 0 0 1 .834.904c.076.216.114.46.114.73 0 .27-.038.513-.114.73a1.582 1.582 0 0 1-.325.554c-.14.153-.31.27-.509.353-.2.083-.422.124-.668.124-.248 0-.471-.041-.67-.124a1.44 1.44 0 0 1-.511-.353 1.574 1.574 0 0 1-.327-.554 2.193 2.193 0 0 1-.114-.73c0-.27.038-.514.114-.73.077-.217.185-.4.327-.553.141-.152.312-.269.51-.351.2-.083.423-.124.671-.124m2.99 2.612c.098.13.205.22.322.273a.93.93 0 0 0 .387.078.755.755 0 0 0 .641-.308c.153-.205.23-.511.23-.917 0-.21-.017-.39-.052-.538a1.056 1.056 0 0 0-.15-.363.591.591 0 0 0-.238-.204.768.768 0 0 0-.317-.064.868.868 0 0 0-.462.119c-.13.08-.25.192-.36.34v1.584zm-.036-2.063c.14-.168.298-.303.476-.405.177-.103.383-.154.618-.154.187 0 .357.038.509.116.152.076.283.189.391.336.11.147.194.33.254.547.06.218.09.467.09.749 0 .252-.034.487-.1.704a1.742 1.742 0 0 1-.286.567 1.29 1.29 0 0 1-1.048.51c-.195 0-.361-.032-.497-.097a1.294 1.294 0 0 1-.37-.268v1.45h-.703v-4.55h.425c.096 0 .156.045.183.137l.058.358zm9.44 1.426a4.29 4.29 0 0 0-.633.063 1.74 1.74 0 0 0-.418.123.55.55 0 0 0-.23.18.398.398 0 0 0-.07.227c0 .08.012.15.037.206a.37.37 0 0 0 .104.14.413.413 0 0 0 .157.08.984.984 0 0 0 .669-.08c.132-.07.26-.172.384-.306v-.633zm-1.86-1.446a1.88 1.88 0 0 1 1.344-.54c.192 0 .362.033.51.096.15.064.275.154.376.27.102.116.179.254.232.413.053.16.08.337.08.531v2.17h-.313a.297.297 0 0 1-.154-.032c-.034-.021-.064-.064-.088-.129l-.069-.278a3.062 3.062 0 0 1-.25.21 1.552 1.552 0 0 1-.257.155 1.221 1.221 0 0 1-.284.096 1.627 1.627 0 0 1-.334.031c-.135 0-.261-.019-.378-.057a.825.825 0 0 1-.301-.172.813.813 0 0 1-.201-.286 1.005 1.005 0 0 1-.074-.402.79.79 0 0 1 .103-.385.95.95 0 0 1 .34-.336c.157-.1.365-.182.623-.247s.576-.101.955-.11v-.228c0-.245-.051-.429-.154-.55-.102-.12-.252-.18-.45-.18a.958.958 0 0 0-.34.052c-.09.035-.17.072-.238.112a6.49 6.49 0 0 0-.18.112.297.297 0 0 1-.166.052.198.198 0 0 1-.122-.038.309.309 0 0 1-.083-.096l-.128-.234zm12.579 2.428c.3 0 .523-.104.67-.31.147-.207.22-.502.22-.886s-.073-.68-.22-.889c-.147-.208-.37-.313-.67-.313-.305 0-.531.105-.68.313-.147.21-.221.505-.221.89 0 .383.074.678.222.885.148.206.374.31.679.31m0-2.957c.246 0 .468.041.667.124.2.082.369.2.509.351.14.152.249.336.325.553.076.216.114.46.114.73 0 .27-.038.513-.114.73a1.583 1.583 0 0 1-.325.554c-.14.153-.31.27-.509.353a1.725 1.725 0 0 1-.667.124 1.73 1.73 0 0 1-.671-.124c-.2-.083-.37-.2-.511-.353a1.574 1.574 0 0 1-.326-.554 2.193 2.193 0 0 1-.114-.73c0-.27.037-.514.114-.73.076-.217.185-.4.326-.553.141-.152.312-.269.51-.351.2-.083.424-.124.672-.124m12.905 3.469h.701v-3.416h-.701v3.416zm-1.9-.522a.792.792 0 0 0 .27-.042.547.547 0 0 0 .192-.114.445.445 0 0 0 .114-.173.629.629 0 0 0 .004-.423.437.437 0 0 0-.108-.167.513.513 0 0 0-.191-.115.868.868 0 0 0-.287-.041h-.65v1.075h.656zm-.01-1.594c.231 0 .425.028.585.085.158.057.287.133.385.23a.851.851 0 0 1 .212.333 1.196 1.196 0 0 1-.016.827.948.948 0 0 1-.24.34c-.106.096-.235.17-.389.222a1.617 1.617 0 0 1-.527.079h-1.322v-3.416h.666v1.3h.646zm5.651.023c0-.12-.017-.233-.051-.337a.793.793 0 0 0-.149-.27.682.682 0 0 0-.243-.182.81.81 0 0 0-.335-.065c-.254 0-.454.075-.6.224-.146.15-.238.36-.277.63h1.654zm-1.675.442c.009.195.038.363.088.504.05.142.117.26.2.353a.778.778 0 0 0 .301.21c.117.046.247.068.39.068.137 0 .256-.016.356-.048.1-.033.187-.068.261-.107.074-.04.137-.075.19-.107a.277.277 0 0 1 .143-.05c.057 0 .1.023.13.068l.2.265c-.083.1-.176.185-.281.254-.105.07-.215.125-.333.169a1.821 1.821 0 0 1-.362.094 2.384 2.384 0 0 1-.362.028 1.71 1.71 0 0 1-.642-.119 1.426 1.426 0 0 1-.512-.35 1.626 1.626 0 0 1-.34-.572 2.328 2.328 0 0 1-.122-.787c0-.237.036-.458.11-.663.072-.205.177-.384.313-.536.136-.152.3-.272.496-.36.194-.088.415-.132.66-.132.205 0 .394.034.569.102.174.068.324.168.45.3.126.131.225.293.296.484.07.19.106.408.106.65 0 .113-.012.187-.036.225-.025.038-.068.057-.131.057h-2.138zm-50.993 8.492a.84.84 0 0 0 .321.272.927.927 0 0 0 .387.08.754.754 0 0 0 .641-.309c.154-.205.23-.511.23-.917 0-.21-.017-.39-.051-.538a1.056 1.056 0 0 0-.15-.363.585.585 0 0 0-.239-.204.768.768 0 0 0-.317-.064.867.867 0 0 0-.461.119c-.13.08-.25.192-.361.34v1.584zm-.036-2.063c.139-.168.297-.303.475-.405.177-.103.383-.154.618-.154.187 0 .357.038.51.115.152.077.282.19.391.337.109.147.193.33.253.547.06.218.09.467.09.749 0 .252-.033.487-.1.704a1.73 1.73 0 0 1-.285.566 1.29 1.29 0 0 1-1.048.511c-.196 0-.362-.032-.497-.097a1.283 1.283 0 0 1-.371-.268V30H73v-4.55h.424c.096 0 .157.045.183.137l.059.358zm5.2.827c0-.12-.017-.233-.05-.337a.793.793 0 0 0-.15-.27.685.685 0 0 0-.242-.182.81.81 0 0 0-.335-.065c-.255 0-.455.075-.6.224-.147.15-.239.36-.278.63h1.655zm-1.674.442c.008.194.037.362.087.504.05.142.118.26.201.353a.78.78 0 0 0 .3.21c.117.045.247.068.39.068.138 0 .256-.016.356-.049.1-.032.188-.068.261-.107.074-.039.138-.074.19-.107a.282.282 0 0 1 .143-.048c.057 0 .1.022.13.067l.2.264a1.29 1.29 0 0 1-.28.254 1.61 1.61 0 0 1-.334.17 1.818 1.818 0 0 1-.362.094 2.389 2.389 0 0 1-.362.028c-.23 0-.445-.04-.642-.119a1.422 1.422 0 0 1-.512-.35 1.626 1.626 0 0 1-.34-.573 2.32 2.32 0 0 1-.122-.786c0-.237.036-.458.11-.663a1.58 1.58 0 0 1 .313-.536c.136-.152.301-.272.496-.36.195-.088.415-.132.661-.132.204 0 .394.034.568.102.174.068.324.168.45.3.127.131.225.293.296.483.07.191.106.408.106.652 0 .111-.012.186-.036.224-.024.038-.068.057-.13.057h-2.138zm10.542-.442c0-.12-.017-.233-.05-.337a.793.793 0 0 0-.149-.27.685.685 0 0 0-.243-.182.81.81 0 0 0-.335-.065c-.255 0-.455.075-.6.224-.146.15-.239.36-.278.63h1.655zm-1.674.442c.008.194.038.362.088.504.05.142.117.26.2.353a.78.78 0 0 0 .3.21c.117.045.247.068.391.068.137 0 .255-.016.355-.049.1-.032.188-.068.262-.107.074-.039.137-.074.189-.107a.282.282 0 0 1 .143-.048c.057 0 .1.022.131.067l.2.264a1.29 1.29 0 0 1-.281.254 1.61 1.61 0 0 1-.334.17 1.818 1.818 0 0 1-.362.094 2.389 2.389 0 0 1-.362.028c-.23 0-.445-.04-.641-.119a1.422 1.422 0 0 1-.513-.35 1.626 1.626 0 0 1-.34-.573 2.32 2.32 0 0 1-.122-.786c0-.237.037-.458.11-.663a1.58 1.58 0 0 1 .313-.536c.136-.152.301-.272.496-.36.195-.088.415-.132.661-.132.205 0 .394.034.568.102.174.068.324.168.45.3.127.131.225.293.296.483.07.191.106.408.106.652 0 .111-.012.186-.036.224-.024.038-.068.057-.13.057H86.06zm12.18-.204v-1.085h-.492a.707.707 0 0 0-.284.05.477.477 0 0 0-.28.305.65.65 0 0 0-.03.19c0 .168.058.3.174.395.117.097.274.145.472.145h.44zm.67-1.56v3.415h-.67v-1.4h-.192a.61.61 0 0 0-.157.017.354.354 0 0 0-.106.046.366.366 0 0 0-.078.074c-.023.03-.045.062-.067.098l-.623.914a.514.514 0 0 1-.162.189.508.508 0 0 1-.279.062h-.483l.898-1.243a.637.637 0 0 1 .346-.3 1.282 1.282 0 0 1-.412-.128.943.943 0 0 1-.274-.211.773.773 0 0 1-.152-.263.892.892 0 0 1-.047-.283c0-.123.023-.243.07-.362a.842.842 0 0 1 .224-.316c.102-.093.234-.167.396-.224.162-.057.358-.086.586-.086h1.182z" fill="#757575"/></symbol><symbol id="icon-menu"><path d="M0 2.667h24V0H0v2.667zm0 6.666h24V6.667H0v2.666zM0 16h24v-2.667H0V16z" fill="#FFF"/></symbol><symbol id="icon-news"><path d="M4.13.703h16.26v16.66c0 2.073-.785 3.028-2.424 3.028H.703V6.34h2.71v9.632h.716V.703zM0 5.638v15.456h17.957c2.069 0 3.137-1.298 3.137-3.73V0H3.422v5.638H0z" fill="#FF5252"/><g fill="#FF5252"><path d="M7.36 11.228a.33.33 0 0 1-.329-.33 5.28 5.28 0 0 1 5.274-5.273c1.408 0 2.733.549 3.728 1.545a.33.33 0 1 1-.466.466 4.582 4.582 0 0 0-3.262-1.352 4.62 4.62 0 0 0-4.615 4.614.33.33 0 0 1-.33.33z"/><path d="M16.094 8.262h-1.812a.33.33 0 1 1 0-.66h1.648V5.956a.33.33 0 1 1 .66 0v1.811a.496.496 0 0 1-.496.496zm-3.789 7.91a5.237 5.237 0 0 1-3.729-1.545.33.33 0 1 1 .466-.466 4.582 4.582 0 0 0 3.263 1.352 4.62 4.62 0 0 0 4.614-4.615.33.33 0 1 1 .66 0 5.28 5.28 0 0 1-5.274 5.274z"/><path d="M8.35 16.172a.33.33 0 0 1-.33-.33v-1.811c0-.274.222-.496.495-.496h1.812a.33.33 0 1 1 0 .66H8.68v1.647a.33.33 0 0 1-.33.33z"/></g></symbol><symbol id="icon-phone-desk"><path d="M4.19 0h22.62C29.125 0 31 1.897 31 4.237v41.526C31 48.103 29.124 50 26.81 50H4.19C1.875 50 0 48.103 0 45.763V4.237C0 1.897 1.876 0 4.19 0zm0 1.695c-1.389 0-2.514 1.138-2.514 2.542v41.526c0 1.404 1.125 2.542 2.513 2.542h22.622c1.388 0 2.513-1.138 2.513-2.542V4.237c0-1.404-1.125-2.542-2.513-2.542H4.189z" fill="#FF5252"/><path d="M7.167 3h16.666C26.135 3 28 4.882 28 7.205v28.59C28 38.118 26.134 40 23.833 40H7.167C4.865 40 3 38.118 3 35.795V7.205C3 4.882 4.865 3 7.167 3zm0 1.682c-1.381 0-2.5 1.13-2.5 2.523v28.59c0 1.394 1.119 2.523 2.5 2.523h16.666c1.381 0 2.5-1.13 2.5-2.523V7.205c0-1.394-1.119-2.523-2.5-2.523H7.167zM15.5 48a3.5 3.5 0 1 0 0-7 3.5 3.5 0 0 0 0 7zm0-1.75a1.75 1.75 0 1 1 0-3.5 1.75 1.75 0 0 1 0 3.5z" fill="#FF5252"/></symbol><symbol id="icon-phone"><path d="M2.162 0h11.676C15.032 0 16 .949 16 2.119V22.88c0 1.17-.968 2.119-2.162 2.119H2.162C.968 25 0 24.052 0 22.881V2.12C0 .949.968 0 2.162 0zm0 .847c-.716 0-1.297.57-1.297 1.272V22.88c0 .702.58 1.271 1.297 1.271h11.676c.716 0 1.297-.569 1.297-1.27V2.118c0-.702-.58-1.272-1.297-1.272H2.162z" fill="#FF5252"/><path d="M3.7 1.5h8.602c1.187 0 2.15.941 2.15 2.102v14.296c0 1.16-.963 2.102-2.15 2.102H3.699c-1.187 0-2.15-.941-2.15-2.102V3.602c0-1.16.963-2.102 2.15-2.102zm0 .84c-.713 0-1.291.566-1.291 1.262v14.296c0 .696.578 1.261 1.29 1.261h8.603c.712 0 1.29-.565 1.29-1.261V3.602c0-.696-.578-1.261-1.29-1.261H3.699zM8 24c.997 0 1.806-.784 1.806-1.75S8.997 20.5 8 20.5c-.998 0-1.807.784-1.807 1.75S7.003 24 8 24zm0-.875c-.499 0-.903-.392-.903-.875s.404-.875.903-.875.903.392.903.875-.404.875-.903.875z" fill="#FF5252"/></symbol><symbol id="icon-right"><path d="M2 2l8 9.553L2 21" fill="none" stroke="#FFF" stroke-width="4"/></symbol><symbol id="icon-rub-desk"><path d="M6.2 1.723h17.276c5.964 1.013 8.836 4.271 8.836 9.973 0 5.669-2.815 8.373-8.767 8.373H6.199V1.723zM0 20.069v1.723h4.51V41H6.2V21.792h17.345C30.407 21.792 34 18.34 34 11.696 34 5.105 30.486 1.143 23.68.01L23.545 0H4.51v20.07H0z" fill="#FF5252"/><path d="M0 29h24v-2H0v2z" fill="#FF5252"/></symbol><symbol id="icon-rub"><path d="M3.1.84h8.638c2.982.494 4.418 2.084 4.418 4.865 0 2.766-1.408 4.085-4.384 4.085H3.1V.84zM0 9.79v.84h2.255V20H3.1v-9.37h8.672C15.204 10.63 17 8.946 17 5.705c0-3.215-1.757-5.147-5.16-5.7L11.772 0H2.255v9.79H0z" fill="#FF5252"/><path d="M0 14.17h12v-1H0v1z" fill="#FF5252"/></symbol><symbol id="icon-tablets"><g fill="#FF5252"><path d="M2.978 2.89l5.056 5.62.727-.655-5.056-5.618-.727.654z"/><path d="M5.87 9.04a3.913 3.913 0 1 0 0-7.825 3.913 3.913 0 0 0 0 7.826zm0-.977a2.935 2.935 0 1 1 0-5.87 2.935 2.935 0 0 1 0 5.87zm16.438-4.195a5.136 5.136 0 0 1 0 7.263L10.895 22.545a5.136 5.136 0 0 1-7.263-7.263L15.045 3.868a5.136 5.136 0 0 1 7.263 0zm-.691.692a4.158 4.158 0 0 0-5.88 0L4.323 15.973a4.158 4.158 0 1 0 5.88 5.88L21.617 10.44a4.158 4.158 0 0 0 0-5.88z"/><path d="M11.176 11.65l3.459 3.459L9.1 20.643a2.446 2.446 0 0 1-3.459-3.459l5.534-5.534zm0 1.384l-4.842 4.842A1.467 1.467 0 0 0 8.41 19.95l4.842-4.842-2.075-2.075z"/></g></symbol><symbol id="icon-video"><path d="M19.688 5.467l4.921-2.654v10.546l-4.922-2.582v-5.31z" fill="#FF5252"/><path d="M2.999 0h14.393c1.656 0 2.999 1.443 2.999 3.223v9.023c0 1.78-1.343 3.223-2.999 3.223H2.999C1.343 15.469 0 14.026 0 12.246V3.223C0 1.443 1.343 0 2.999 0zm0 1.29c-.994 0-1.8.865-1.8 1.933v9.023c0 1.068.806 1.934 1.8 1.934h14.393c.994 0 1.8-.866 1.8-1.934V3.223c0-1.068-.806-1.934-1.8-1.934H2.999z" fill="#FF5252"/></symbol></svg>