<svg width="26" height="26" xmlns:xlink="http://www.w3.org/1999/xlink" xmlns="http://www.w3.org/2000/svg"><defs><path d="M0 0h25.313v25.313H0V0z" id="a"/><clipPath id="b"><use xlink:href="#a"/></clipPath></defs><path d="M0 0h25.313v25.313H0V0z" fill="none"/><g fill="#FF5252" clip-path="url(#b)"><path d="M18.778 2.286c.432.004.858.18 1.167.483.869.864 1.735 1.73 2.599 2.599.302.308.479.728.483 1.166.015 4.942.015 9.884 0 14.826-.008.861-.748 1.656-1.665 1.665-5.803.018-11.606.018-17.41 0-.863-.008-1.656-.748-1.664-1.665a2769.27 2769.27 0 0 1 0-17.41c.008-.867.761-1.656 1.664-1.664 4.942-.016 9.884-.016 14.826 0zm-14.815.862a.835.835 0 0 0-.813.807c-.018 5.802-.054 11.604 0 17.405a.832.832 0 0 0 .808.802c5.801.018 11.603.053 17.404 0a.834.834 0 0 0 .802-.807c.016-4.94.047-9.88 0-14.82a.826.826 0 0 0-.234-.56c-.863-.869-1.722-1.739-2.595-2.596a.827.827 0 0 0-.562-.23c-4.937-.016-9.873 0-14.81 0z"/><path d="M17.666 2.288c.216.03.381.208.392.429 0 1.245.004 2.49 0 3.736-.008.87-.761 1.656-1.664 1.664-2.491.008-4.982.008-7.473 0-.862-.008-1.661-.746-1.664-1.674V2.717a.455.455 0 0 1 .431-.431h9.938c.014 0 .027 0 .04.002zm-9.546.86c0 1.102-.01 2.204 0 3.305a.831.831 0 0 0 .806.802c2.49.008 4.979.023 7.467 0a.832.832 0 0 0 .802-.813V3.148H8.12zm10.344 8.248c.865.008 1.661.749 1.664 1.674v9.523c-.029.184-.126.355-.298.41-.043.015-.089.015-.133.022H5.617a.575.575 0 0 1-.253-.083c-.109-.079-.156-.211-.178-.349 0-3.178-.01-6.355 0-9.533.009-.864.75-1.656 1.664-1.664a1729.3 1729.3 0 0 1 11.614 0zm-11.602.862a.832.832 0 0 0-.813.807v9.097h13.216c0-3.034.029-6.068 0-9.102a.83.83 0 0 0-.806-.802c-3.866-.012-7.732 0-11.597 0z"/></g></svg>