<svg width="23" height="23" xmlns="http://www.w3.org/2000/svg"><path d="M11.25 22.5c6.213 0 11.25-5.037 11.25-11.25S17.463 0 11.25 0 0 5.037 0 11.25 5.037 22.5 11.25 22.5zm0-.957C5.566 21.543.957 16.934.957 11.25.957 5.566 5.566.957 11.25.957c5.684 0 10.293 4.609 10.293 10.293 0 5.684-4.609 10.293-10.293 10.293z" fill="#FF5252"/><path d="M8.484 6.702c-2.285 0-3.695 2.93-1.974 5.031 1.08 1.318 2.613 2.986 4.601 5.006l.339.343.34-.34c2.258-2.255 3.701-3.938 4.343-5.077.54-.962.827-2.115.698-3.039-.165-1.189-.986-1.924-2.353-1.924-1.468 0-2.533.452-3.132 1.352-.843-.892-1.801-1.352-2.862-1.352zM7.25 11.127C6.044 9.653 7.003 7.66 8.484 7.66c.944 0 1.799.502 2.585 1.553l.548.73.29-.865c.317-.948 1.133-1.418 2.571-1.418.884 0 1.305.377 1.405 1.098.097.695-.139 1.645-.585 2.437-.555.987-1.84 2.503-3.843 4.527-1.806-1.846-3.207-3.379-4.204-4.595z" fill="#FF5252"/></svg>