<svg width="127" height="39" xmlns="http://www.w3.org/2000/svg"><path d="M9.058 36.556v-7.45H7.504c-.132 0-.262.026-.388.077-.128.05-.237.158-.328.322l-1.828 3.13a3.959 3.959 0 0 0-.225.457 12.57 12.57 0 0 0-.194.493 9.315 9.315 0 0 0-.198-.49 5.275 5.275 0 0 0-.23-.46l-1.843-3.13a.67.67 0 0 0-.324-.319 1.03 1.03 0 0 0-.392-.08H0v7.45h1.699V32.41a6.82 6.82 0 0 0-.122-1.188l2.331 4.036c.112.208.29.311.534.311h.198a.564.564 0 0 0 .533-.311l2.3-4.015a4.46 4.46 0 0 0-.087.594 6.95 6.95 0 0 0-.027.573v4.145h1.699zm8.892.016v-7.434h-1.143a.613.613 0 0 0-.397.142c-.116.093-.21.194-.281.3a411.087 411.087 0 0 0-2.065 2.764 251.718 251.718 0 0 1-.845 1.127 3.739 3.739 0 0 0-.48.783c.02-.135.036-.27.05-.402.012-.133.018-.255.018-.366v-4.34h-1.882v7.434h1.151a.588.588 0 0 0 .393-.145c.113-.097.206-.196.277-.298.559-.748 1.06-1.42 1.501-2.014l.556-.743a266.86 266.86 0 0 0 .846-1.13c.091-.123.142-.19.152-.199.122-.17.234-.365.336-.587-.02.136-.037.269-.05.402a3.877 3.877 0 0 0-.019.366v4.34h1.882zm84.782-25.782a.365.365 0 0 0 .062-.067l.186-.26a1.544 1.544 0 0 0-.491-.342 1.584 1.584 0 0 0-.638-.121c-.259 0-.488.044-.686.132a1.392 1.392 0 0 0-.497.367 1.608 1.608 0 0 0-.306.557c-.07.216-.104.45-.104.702q0 .418.116.745c.077.218.183.402.316.552.134.151.291.266.47.345.18.08.373.12.58.12.12 0 .238-.01.356-.03a1.53 1.53 0 0 0 .65-.263c.097-.068.186-.153.267-.253l-.2-.265a.15.15 0 0 0-.13-.067.197.197 0 0 0-.129.05 2 2 0 0 1-.145.11.994.994 0 0 1-.212.111q-.127.05-.33.05a.772.772 0 0 1-.651-.315 1.133 1.133 0 0 1-.178-.378 1.927 1.927 0 0 1-.062-.512c0-.185.02-.352.057-.5.038-.15.096-.275.173-.38a.781.781 0 0 1 .287-.238.9.9 0 0 1 .4-.084.92.92 0 0 1 .495.129c.055.032.103.062.143.088.04.027.08.04.116.04a.133.133 0 0 0 .085-.023zm-25.945 2.68v-3.426h-.572a.35.35 0 0 0-.143.032.26.26 0 0 0-.121.131l-.891 1.588a1.91 1.91 0 0 0-.085.187 6.77 6.77 0 0 0-.075.201 30.873 30.873 0 0 0-.073-.2 1.661 1.661 0 0 0-.084-.188l-.904-1.588a.29.29 0 0 0-.122-.13.331.331 0 0 0-.142-.033H73v3.425h.633v-2.066a2.63 2.63 0 0 0-.014-.25 4.532 4.532 0 0 0-.035-.256l1.08 1.966c.023.04.05.072.084.096a.197.197 0 0 0 .116.035h.075a.208.208 0 0 0 .118-.035.267.267 0 0 0 .084-.096l1.061-1.956a3.827 3.827 0 0 0-.045.496v2.066h.63zm11.322 0v-3.416h-.424a.218.218 0 0 0-.147.056.513.513 0 0 0-.104.125l-1.447 2.035a1.5 1.5 0 0 0-.133.255 3.042 3.042 0 0 0 .03-.332v-2.14h-.703v3.42h.425c.054 0 .103-.02.147-.06a.55.55 0 0 0 .104-.122l1.446-2.039a.802.802 0 0 0 .067-.112c.02-.041.042-.086.064-.135a2.587 2.587 0 0 0-.026.324v2.14h.701zm7.778 0v-3.416h-.424a.218.218 0 0 0-.147.056.5.5 0 0 0-.104.125l-1.447 2.035a1.5 1.5 0 0 0-.133.255 3.042 3.042 0 0 0 .03-.332v-2.14h-.703v3.42h.425a.21.21 0 0 0 .146-.06.547.547 0 0 0 .105-.122l1.446-2.039a.792.792 0 0 0 .067-.112c.02-.041.042-.086.064-.135a2.52 2.52 0 0 0-.027.324v2.14h.702zm3.695-3.416v3.415h-.698v-1.55h-1.44v1.55h-.701v-3.415h.701v1.322h1.44v-1.322h.698zm10.386 3.415v-3.415h-.424a.219.219 0 0 0-.147.056.51.51 0 0 0-.105.125l-1.445 2.035c-.046.067-.09.152-.134.255a3.04 3.04 0 0 0 .029-.332v-2.14h-.702v3.42h.425c.054 0 .103-.02.147-.06a.56.56 0 0 0 .104-.122l1.446-2.039a.811.811 0 0 0 .067-.112c.02-.041.042-.086.063-.135a2.337 2.337 0 0 0-.026.324v2.14h.702zm-17.554-.542v1.483c0 .067-.018.12-.055.159a.189.189 0 0 1-.144.058h-.434V13.47h-2.817v-3.415h.702v2.873h1.44v-2.873h.698v2.873h.61zm13.164-2.68a.4.4 0 0 1 .33-.193h.548l-.82 1.282a1 1 0 0 1-.162.211.582.582 0 0 1-.21.124.675.675 0 0 1 .267.142c.07.064.134.146.19.246l.827 1.41h-.484a.547.547 0 0 1-.288-.064.518.518 0 0 1-.175-.187l-.565-.998a.447.447 0 0 0-.179-.187.522.522 0 0 0-.251-.06h-.33v1.5h-.702v-3.42h.702v1.437h.284a.443.443 0 0 0 .228-.054.443.443 0 0 0 .157-.163l.633-1.025zm-9.21 7.495v3.425h-.631v-2.066a3.8 3.8 0 0 1 .046-.495l-1.06 1.955a.26.26 0 0 1-.086.095.204.204 0 0 1-.117.036h-.075a.197.197 0 0 1-.116-.036.27.27 0 0 1-.084-.095l-1.08-1.966c.013.079.024.164.034.256.01.093.015.176.015.25v2.066h-.633v-3.425h.574c.048 0 .095.01.142.033a.289.289 0 0 1 .123.13l.904 1.588c.03.058.058.12.083.187l.074.201a6.84 6.84 0 0 1 .075-.2c.026-.068.054-.13.085-.188l.89-1.588a.26.26 0 0 1 .121-.132.349.349 0 0 1 .144-.031h.571zm-20.44.01v3.415h-.702v-2.14a2.316 2.316 0 0 1 .026-.325c-.021.05-.043.095-.063.136a.8.8 0 0 1-.067.112l-1.446 2.04a.557.557 0 0 1-.104.122.214.214 0 0 1-.147.058H73v-3.418h.702v2.14a3.03 3.03 0 0 1-.03.331c.044-.103.089-.188.134-.255l1.446-2.036a.51.51 0 0 1 .105-.124.217.217 0 0 1 .147-.056h.424zm3.695 3.415v-3.415h-.699v1.322h-1.44v-1.322h-.7v3.415h.7v-1.55h1.44v1.55h.699zm27.806-3.415v3.415h-.702v-2.14a2.123 2.123 0 0 1 .026-.324 2.169 2.169 0 0 1-.064.135.801.801 0 0 1-.066.112l-1.446 2.04q-.04.063-.105.122a.212.212 0 0 1-.147.058h-.424v-3.418h.702v2.14a3.042 3.042 0 0 1-.03.331c.044-.103.088-.188.134-.255l1.446-2.036a.5.5 0 0 1 .105-.124.215.215 0 0 1 .146-.056h.425zm7.422 3.415v-3.415h-.698v1.322h-1.44v-1.322h-.702v3.415h.702v-1.55h1.44v1.55h.698zm3.698-3.415v3.415h-.698v-1.55h-1.44v1.55h-.702v-3.415h.702v1.322h1.44v-1.322h.698zm-14.593 4.356v-1.484h-.61v-2.872h-.7v2.872h-1.438v-2.872h-.702v3.415h2.817v1.158h.434a.187.187 0 0 0 .143-.058.222.222 0 0 0 .056-.16zm-19.264 6.757v-3.416h-.699v2.873h-1.22V25.45h-.702v2.873h-1.22V25.45h-.703v3.416h4.544zm7.164-3.416v3.416h-.698v-1.55h-1.44v1.55h-.702v-3.416h.702v1.323h1.44v-1.323h.698zm3.787 3.416v-3.416h-.425a.217.217 0 0 0-.147.057.504.504 0 0 0-.104.124l-1.446 2.036c-.046.067-.09.152-.134.254a3 3 0 0 0 .03-.33v-2.14h-.702v3.418h.424c.055 0 .103-.02.147-.058a.574.574 0 0 0 .104-.122l1.446-2.04a.836.836 0 0 0 .067-.112c.021-.041.042-.086.064-.136a2.292 2.292 0 0 0-.026.325v2.14h.702z" fill="#FFF" fill-rule="evenodd"/><path d="M47.763 8.035a.758.758 0 0 0-.186-.554.757.757 0 0 0-.578-.263.763.763 0 0 0-.576 1.266.76.76 0 0 0 .524.26.762.762 0 0 0 .816-.71m8.774 16.571a.75.75 0 0 0 .555-.186.759.759 0 0 0 .261-.523.76.76 0 0 0-.763-.818.765.765 0 0 0-.053 1.527M65 18.003C65 8.06 56.941 0 47 0S29 8.06 29 18.003c0 8.631 6.073 15.842 14.177 17.596v-10.88a.208.208 0 0 0-.06-.146l-1.85-1.852a.208.208 0 0 0-.148-.06h-1.894a.207.207 0 0 0-.194.135 1.732 1.732 0 0 1-1.62 1.116h-.017a1.74 1.74 0 0 1-1.249-.56 1.738 1.738 0 0 1-.47-1.283c.028-.47.24-.898.594-1.206.35-.304.799-.455 1.261-.422a1.727 1.727 0 0 1 1.501 1.112.206.206 0 0 0 .194.134h2.24c.092 0 .18.037.245.102l2.34 2.34a.346.346 0 0 1 .101.246V35.78a18.05 18.05 0 0 0 2.362.219V21.788a.208.208 0 0 0-.06-.148l-5.186-5.186a.21.21 0 0 0-.147-.061h-3.557a.206.206 0 0 0-.194.135 1.74 1.74 0 0 1-1.62 1.116h-.015a1.742 1.742 0 0 1-1.251-.56 1.74 1.74 0 0 1-.47-1.283c.028-.469.24-.898.594-1.206.35-.304.798-.455 1.26-.422a1.727 1.727 0 0 1 1.502 1.113.206.206 0 0 0 .194.134h2.904a.209.209 0 0 0 .209-.209v-2.077a.209.209 0 0 0-.137-.194 1.73 1.73 0 0 1-1.11-1.742c.032-.463.243-.886.593-1.19.35-.305.799-.455 1.261-.423.463.033.886.243 1.19.593.304.35.455.798.423 1.262a1.727 1.727 0 0 1-1.113 1.502.206.206 0 0 0-.134.194v2.237c0 .055.022.109.06.148l4.686 4.685c.03.031.065.02.076.015a.068.068 0 0 0 .042-.064V9.797a.208.208 0 0 0-.136-.194 1.729 1.729 0 0 1-1.11-1.742c.032-.463.243-.886.593-1.19.35-.304.799-.455 1.26-.422.464.032.887.243 1.191.593.305.35.454.798.422 1.261a1.728 1.728 0 0 1-1.112 1.502.206.206 0 0 0-.134.194V22.66c0 .043.032.06.043.064.01.004.045.016.075-.015l4.685-4.686a.209.209 0 0 0 .061-.147v-3.909a.209.209 0 0 0-.136-.194 1.73 1.73 0 0 1-1.11-1.742c.032-.463.243-.886.593-1.19.35-.305.8-.456 1.26-.423.464.033.887.243 1.19.594.305.35.456.798.423 1.26a1.726 1.726 0 0 1-1.113 1.503.207.207 0 0 0-.133.194v3.747c0 .115.093.209.208.209h2.91a.207.207 0 0 0 .194-.135 1.733 1.733 0 0 1 1.743-1.113 1.73 1.73 0 0 1 1.19.594c.304.35.454.798.422 1.261a1.726 1.726 0 0 1-.593 1.19 1.73 1.73 0 0 1-1.261.423 1.746 1.746 0 0 1-1.5-1.111.21.21 0 0 0-.194-.136h-3.566a.205.205 0 0 0-.147.061l-5.183 5.184a.208.208 0 0 0-.061.147V36c.801-.021 1.59-.096 2.363-.219v-9.738c0-.093.036-.18.101-.246l2.34-2.34a.347.347 0 0 1 .246-.102h2.386c.093-.32.275-.604.528-.824.35-.304.799-.455 1.26-.422.464.032.887.243 1.191.593.304.35.454.798.422 1.261a1.737 1.737 0 0 1-3.4.366h-2.042a.207.207 0 0 0-.148.061l-1.85 1.851a.208.208 0 0 0-.062.148v9.21C58.927 33.845 65 26.634 65 18.003m-27.538 3.409a.763.763 0 0 0-.63 1.264c.135.154.32.247.524.26a.76.76 0 0 0 .816-.71.756.756 0 0 0-.186-.553.758.758 0 0 0-.524-.261m20.744-2.238a.76.76 0 0 0 .816-.71.76.76 0 0 0-.763-.818.764.764 0 0 0-.053 1.528m-16.282-7.802a.758.758 0 0 0-.185-.555.758.758 0 0 0-.578-.263.764.764 0 1 0 .763.818M53.34 12.73a.759.759 0 0 0 .26-.524.758.758 0 0 0-.185-.555.76.76 0 0 0-1.079-.075.76.76 0 0 0-.075 1.078c.135.155.32.247.524.261.203.015.4-.05.555-.185m-17.016 2.675c.134.154.2.35.185.554a.759.759 0 0 1-.26.524.76.76 0 0 1-1.078-.076.758.758 0 0 1-.186-.554.764.764 0 0 1 1.34-.448" fill="#FFF"/><path d="M79.829 11.376c0-.12-.017-.233-.05-.337a.8.8 0 0 0-.15-.27.682.682 0 0 0-.243-.182.81.81 0 0 0-.334-.065c-.255 0-.455.075-.6.224-.146.15-.239.36-.278.63h1.655zm-1.675.442c.009.195.038.363.088.504.05.142.117.26.201.354a.783.783 0 0 0 .3.209c.117.046.247.068.39.068.138 0 .256-.016.356-.048.1-.033.187-.068.261-.107.075-.04.138-.075.19-.107a.277.277 0 0 1 .143-.05c.057 0 .1.023.13.068l.2.265c-.083.1-.176.185-.28.254a1.61 1.61 0 0 1-.334.169 1.818 1.818 0 0 1-.362.094 2.389 2.389 0 0 1-.362.028c-.23 0-.445-.04-.642-.119a1.422 1.422 0 0 1-.512-.35 1.626 1.626 0 0 1-.34-.572 2.328 2.328 0 0 1-.122-.787c0-.237.036-.458.11-.663.072-.205.176-.384.313-.536a1.47 1.47 0 0 1 .496-.36 1.59 1.59 0 0 1 .661-.132c.205 0 .394.034.568.102.174.068.324.168.45.3.127.131.225.293.296.484.07.19.106.408.106.65 0 .113-.012.187-.036.225-.024.038-.068.057-.13.057h-2.139zm5.193 1.132v-2.337h-.933c-.02.313-.048.593-.084.84a7.112 7.112 0 0 1-.124.658 3.623 3.623 0 0 1-.155.493 2.16 2.16 0 0 1-.176.346h1.472zm1.29-.024v1.484c0 .067-.02.12-.058.16a.195.195 0 0 1-.145.058H84v-1.159h-2.634v.954a.23.23 0 0 1-.048.141c-.031.042-.08.064-.145.064h-.444V12.95h.101a.748.748 0 0 0 .226-.035.512.512 0 0 0 .212-.142c.067-.072.132-.173.193-.303.06-.131.116-.304.164-.518.05-.214.092-.476.13-.787.036-.31.066-.68.087-1.111h2.184v2.872h.61z" fill="#757575"/><path d="M21.69 34.645c.213.246.446.42.697.522.252.1.525.152.819.152.285 0 .541-.051.77-.152.228-.101.422-.256.582-.464.16-.207.284-.47.37-.786.086-.317.13-.69.13-1.12 0-.435-.038-.803-.111-1.105a2.085 2.085 0 0 0-.316-.735 1.241 1.241 0 0 0-.5-.414 1.63 1.63 0 0 0-.666-.13c-.391 0-.723.079-.998.236a2.978 2.978 0 0 0-.777.663v3.333zm-.099-4.493a4.04 4.04 0 0 1 1.09-.833c.406-.212.883-.319 1.432-.319.426 0 .816.085 1.17.254.352.169.657.414.913.736.257.321.455.717.595 1.188.14.471.209 1.01.209 1.62 0 .555-.079 1.07-.236 1.543a3.724 3.724 0 0 1-.675 1.232 3.09 3.09 0 0 1-1.058.815 3.219 3.219 0 0 1-1.39.293c-.438 0-.81-.064-1.12-.191a2.76 2.76 0 0 1-.83-.533V39h-1.882v-9.862h1.15c.243 0 .404.109.48.326l.152.688z"/><path d="M113.007 11.376c0-.12-.016-.233-.05-.337a.793.793 0 0 0-.148-.27.682.682 0 0 0-.244-.182.81.81 0 0 0-.334-.065c-.255 0-.455.075-.601.224-.146.15-.238.36-.278.63h1.655zm-1.674.442c.009.195.038.363.088.504.05.142.117.26.2.354a.781.781 0 0 0 .301.209c.117.046.247.068.39.068.137 0 .256-.016.356-.048.1-.033.187-.068.261-.107.074-.04.137-.075.19-.107a.277.277 0 0 1 .143-.05c.057 0 .1.023.13.068l.2.265c-.083.1-.176.185-.28.254-.106.07-.217.125-.334.169a1.822 1.822 0 0 1-.362.094 2.384 2.384 0 0 1-.362.028 1.71 1.71 0 0 1-.642-.119 1.422 1.422 0 0 1-.512-.35 1.626 1.626 0 0 1-.34-.572 2.328 2.328 0 0 1-.122-.787c0-.237.036-.458.11-.663.072-.205.176-.384.313-.536.136-.152.3-.272.496-.36.195-.088.415-.132.66-.132.205 0 .394.034.569.102.174.068.324.168.45.3.126.131.225.293.296.484.07.19.106.408.106.65 0 .113-.012.187-.036.225-.025.038-.068.057-.131.057h-2.138zm-28.625 8.857c.354-.025.627-.142.818-.352.19-.21.285-.498.285-.864s-.095-.655-.285-.866c-.191-.21-.464-.328-.818-.353v2.435zm-.614-2.435c-.355.025-.627.143-.818.353-.19.211-.285.5-.285.866s.095.655.285.864c.19.21.463.327.818.352V18.24zm.633-.539c.27.014.515.064.735.15a1.592 1.592 0 0 1 .92.9c.085.211.127.446.127.705 0 .259-.042.493-.127.703a1.584 1.584 0 0 1-.92.902c-.22.089-.465.14-.735.153v1.111h-.656v-1.111a2.258 2.258 0 0 1-.734-.153 1.584 1.584 0 0 1-.92-.902 1.86 1.86 0 0 1-.128-.703c0-.257.043-.49.127-.7a1.588 1.588 0 0 1 .921-.903 2.28 2.28 0 0 1 .734-.152v-1.356h.656v1.356zm3.884 2.954c.3 0 .524-.104.671-.31.147-.207.22-.502.22-.886s-.073-.68-.22-.889c-.147-.208-.37-.313-.67-.313-.305 0-.532.105-.68.313-.148.21-.222.505-.222.89 0 .383.074.678.222.885.148.206.375.31.68.31m0-2.957c.245 0 .468.041.667.124a1.44 1.44 0 0 1 .834.904c.076.216.114.46.114.73 0 .27-.038.513-.114.73a1.582 1.582 0 0 1-.325.554c-.14.153-.31.27-.509.353-.2.083-.422.124-.668.124-.248 0-.471-.041-.67-.124a1.44 1.44 0 0 1-.511-.353 1.574 1.574 0 0 1-.327-.554 2.193 2.193 0 0 1-.114-.73c0-.27.038-.514.114-.73.077-.217.185-.4.327-.553.141-.152.312-.269.51-.351.2-.083.423-.124.671-.124m2.99 2.612c.098.13.205.22.322.273a.93.93 0 0 0 .387.078.755.755 0 0 0 .641-.308c.153-.205.23-.511.23-.917 0-.21-.017-.39-.052-.538a1.056 1.056 0 0 0-.15-.363.591.591 0 0 0-.238-.204.768.768 0 0 0-.317-.064.868.868 0 0 0-.462.119c-.13.08-.25.192-.36.34v1.584zm-.036-2.063c.14-.168.298-.303.476-.405.177-.103.383-.154.618-.154.187 0 .357.038.509.116.152.076.283.189.391.336.11.147.194.33.254.547.06.218.09.467.09.749 0 .252-.034.487-.1.704a1.742 1.742 0 0 1-.286.567 1.29 1.29 0 0 1-1.048.51c-.195 0-.361-.032-.497-.097a1.294 1.294 0 0 1-.37-.268v1.45h-.703v-4.55h.425c.096 0 .156.045.183.137l.058.358zm9.44 1.426a4.29 4.29 0 0 0-.633.063 1.74 1.74 0 0 0-.418.123.55.55 0 0 0-.23.18.398.398 0 0 0-.07.227c0 .08.012.15.037.206a.37.37 0 0 0 .104.14.413.413 0 0 0 .157.08.984.984 0 0 0 .669-.08c.132-.07.26-.172.384-.306v-.633zm-1.86-1.446a1.88 1.88 0 0 1 1.344-.54c.192 0 .362.033.51.096.15.064.275.154.376.27.102.116.179.254.232.413.053.16.08.337.08.531v2.17h-.313a.297.297 0 0 1-.154-.032c-.034-.021-.064-.064-.088-.129l-.069-.278a3.062 3.062 0 0 1-.25.21 1.552 1.552 0 0 1-.257.155 1.221 1.221 0 0 1-.284.096 1.627 1.627 0 0 1-.334.031c-.135 0-.261-.019-.378-.057a.825.825 0 0 1-.301-.172.813.813 0 0 1-.201-.286 1.005 1.005 0 0 1-.074-.402.79.79 0 0 1 .103-.385.95.95 0 0 1 .34-.336c.157-.1.365-.182.623-.247s.576-.101.955-.11v-.228c0-.245-.051-.429-.154-.55-.102-.12-.252-.18-.45-.18a.958.958 0 0 0-.34.052c-.09.035-.17.072-.238.112a6.49 6.49 0 0 0-.18.112.297.297 0 0 1-.166.052.198.198 0 0 1-.122-.038.309.309 0 0 1-.083-.096l-.128-.234zm12.579 2.428c.3 0 .523-.104.67-.31.147-.207.22-.502.22-.886s-.073-.68-.22-.889c-.147-.208-.37-.313-.67-.313-.305 0-.531.105-.68.313-.147.21-.221.505-.221.89 0 .383.074.678.222.885.148.206.374.31.679.31m0-2.957c.246 0 .468.041.667.124.2.082.369.2.509.351.14.152.249.336.325.553.076.216.114.46.114.73 0 .27-.038.513-.114.73a1.583 1.583 0 0 1-.325.554c-.14.153-.31.27-.509.353a1.725 1.725 0 0 1-.667.124 1.73 1.73 0 0 1-.671-.124c-.2-.083-.37-.2-.511-.353a1.574 1.574 0 0 1-.326-.554 2.193 2.193 0 0 1-.114-.73c0-.27.037-.514.114-.73.076-.217.185-.4.326-.553.141-.152.312-.269.51-.351.2-.083.424-.124.672-.124m12.905 3.469h.701v-3.416h-.701v3.416zm-1.9-.522a.792.792 0 0 0 .27-.042.547.547 0 0 0 .192-.114.445.445 0 0 0 .114-.173.629.629 0 0 0 .004-.423.437.437 0 0 0-.108-.167.513.513 0 0 0-.191-.115.868.868 0 0 0-.287-.041h-.65v1.075h.656zm-.01-1.594c.231 0 .425.028.585.085.158.057.287.133.385.23a.851.851 0 0 1 .212.333 1.196 1.196 0 0 1-.016.827.948.948 0 0 1-.24.34c-.106.096-.235.17-.389.222a1.617 1.617 0 0 1-.527.079h-1.322v-3.416h.666v1.3h.646zm5.651.023c0-.12-.017-.233-.051-.337a.793.793 0 0 0-.149-.27.682.682 0 0 0-.243-.182.81.81 0 0 0-.335-.065c-.254 0-.454.075-.6.224-.146.15-.238.36-.277.63h1.654zm-1.675.442c.009.195.038.363.088.504.05.142.117.26.2.353a.778.778 0 0 0 .301.21c.117.046.247.068.39.068.137 0 .256-.016.356-.048.1-.033.187-.068.261-.107.074-.04.137-.075.19-.107a.277.277 0 0 1 .143-.05c.057 0 .1.023.13.068l.2.265c-.083.1-.176.185-.281.254-.105.07-.215.125-.333.169a1.821 1.821 0 0 1-.362.094 2.384 2.384 0 0 1-.362.028 1.71 1.71 0 0 1-.642-.119 1.426 1.426 0 0 1-.512-.35 1.626 1.626 0 0 1-.34-.572 2.328 2.328 0 0 1-.122-.787c0-.237.036-.458.11-.663.072-.205.177-.384.313-.536.136-.152.3-.272.496-.36.194-.088.415-.132.66-.132.205 0 .394.034.569.102.174.068.324.168.45.3.126.131.225.293.296.484.07.19.106.408.106.65 0 .113-.012.187-.036.225-.025.038-.068.057-.131.057h-2.138zm-50.993 8.492a.84.84 0 0 0 .321.272.927.927 0 0 0 .387.08.754.754 0 0 0 .641-.309c.154-.205.23-.511.23-.917 0-.21-.017-.39-.051-.538a1.056 1.056 0 0 0-.15-.363.585.585 0 0 0-.239-.204.768.768 0 0 0-.317-.064.867.867 0 0 0-.461.119c-.13.08-.25.192-.361.34v1.584zm-.036-2.063c.139-.168.297-.303.475-.405.177-.103.383-.154.618-.154.187 0 .357.038.51.115.152.077.282.19.391.337.109.147.193.33.253.547.06.218.09.467.09.749 0 .252-.033.487-.1.704a1.73 1.73 0 0 1-.285.566 1.29 1.29 0 0 1-1.048.511c-.196 0-.362-.032-.497-.097a1.283 1.283 0 0 1-.371-.268V30H73v-4.55h.424c.096 0 .157.045.183.137l.059.358zm5.2.827c0-.12-.017-.233-.05-.337a.793.793 0 0 0-.15-.27.685.685 0 0 0-.242-.182.81.81 0 0 0-.335-.065c-.255 0-.455.075-.6.224-.147.15-.239.36-.278.63h1.655zm-1.674.442c.008.194.037.362.087.504.05.142.118.26.201.353a.78.78 0 0 0 .3.21c.117.045.247.068.39.068.138 0 .256-.016.356-.049.1-.032.188-.068.261-.107.074-.039.138-.074.19-.107a.282.282 0 0 1 .143-.048c.057 0 .1.022.13.067l.2.264a1.29 1.29 0 0 1-.28.254 1.61 1.61 0 0 1-.334.17 1.818 1.818 0 0 1-.362.094 2.389 2.389 0 0 1-.362.028c-.23 0-.445-.04-.642-.119a1.422 1.422 0 0 1-.512-.35 1.626 1.626 0 0 1-.34-.573 2.32 2.32 0 0 1-.122-.786c0-.237.036-.458.11-.663a1.58 1.58 0 0 1 .313-.536c.136-.152.301-.272.496-.36.195-.088.415-.132.661-.132.204 0 .394.034.568.102.174.068.324.168.45.3.127.131.225.293.296.483.07.191.106.408.106.652 0 .111-.012.186-.036.224-.024.038-.068.057-.13.057h-2.138zm10.542-.442c0-.12-.017-.233-.05-.337a.793.793 0 0 0-.149-.27.685.685 0 0 0-.243-.182.81.81 0 0 0-.335-.065c-.255 0-.455.075-.6.224-.146.15-.239.36-.278.63h1.655zm-1.674.442c.008.194.038.362.088.504.05.142.117.26.2.353a.78.78 0 0 0 .3.21c.117.045.247.068.391.068.137 0 .255-.016.355-.049.1-.032.188-.068.262-.107.074-.039.137-.074.189-.107a.282.282 0 0 1 .143-.048c.057 0 .1.022.131.067l.2.264a1.29 1.29 0 0 1-.281.254 1.61 1.61 0 0 1-.334.17 1.818 1.818 0 0 1-.362.094 2.389 2.389 0 0 1-.362.028c-.23 0-.445-.04-.641-.119a1.422 1.422 0 0 1-.513-.35 1.626 1.626 0 0 1-.34-.573 2.32 2.32 0 0 1-.122-.786c0-.237.037-.458.11-.663a1.58 1.58 0 0 1 .313-.536c.136-.152.301-.272.496-.36.195-.088.415-.132.661-.132.205 0 .394.034.568.102.174.068.324.168.45.3.127.131.225.293.296.483.07.191.106.408.106.652 0 .111-.012.186-.036.224-.024.038-.068.057-.13.057H86.06zm12.18-.204v-1.085h-.492a.707.707 0 0 0-.284.05.477.477 0 0 0-.28.305.65.65 0 0 0-.03.19c0 .168.058.3.174.395.117.097.274.145.472.145h.44zm.67-1.56v3.415h-.67v-1.4h-.192a.61.61 0 0 0-.157.017.354.354 0 0 0-.106.046.366.366 0 0 0-.078.074c-.023.03-.045.062-.067.098l-.623.914a.514.514 0 0 1-.162.189.508.508 0 0 1-.279.062h-.483l.898-1.243a.637.637 0 0 1 .346-.3 1.282 1.282 0 0 1-.412-.128.943.943 0 0 1-.274-.211.773.773 0 0 1-.152-.263.892.892 0 0 1-.047-.283c0-.123.023-.243.07-.362a.842.842 0 0 1 .224-.316c.102-.093.234-.167.396-.224.162-.057.358-.086.586-.086h1.182z" fill="#757575"/></svg>