<svg width="42" height="45" xmlns="http://www.w3.org/2000/svg"><path d="M23 1.5a1.5 1.5 0 1 1-3 0 1.5 1.5 0 0 1 3 0zm12 0a1.5 1.5 0 1 1-3 0 1.5 1.5 0 0 1 3 0z" fill="#FFF" fill-rule="evenodd"/><path d="M27.46 28.683c1.516 0 2.746-1.19 2.746-2.66 0-1.468-1.23-2.66-2.746-2.66-1.517 0-2.746 1.192-2.746 2.66 0 1.47 1.23 2.66 2.746 2.66z" fill="#FF5252"/><path d="M20.364 1.773V0h-4.487l-.26.224c-1.865 1.604-2.81 3.666-2.81 6.124 0 5.417 3.608 17.255 7.142 18.995 4.208 2.073 12.375 2.16 15.391-.087 2.71-2.02 6.433-13.874 6.643-18.872C42.152 2.345 41.074 0 38.67 0h-5.78v1.773h5.78c.982 0 1.616 1.379 1.484 4.539-.19 4.515-3.775 15.933-5.93 17.538-2.39 1.78-9.814 1.701-13.445-.087-2.7-1.329-6.14-12.624-6.14-17.415 0-1.84.64-3.348 1.945-4.575h3.78z" fill="#FF5252"/><path d="M10.161 28.634c2.767 0 4.218 1.04 4.634 3.25v5.207c-.539 5.111 1.634 7.91 6.297 7.91 4.603 0 7.192-2.711 7.575-7.8l.002-11.276h-1.83v11.212c-.315 4.15-2.169 6.09-5.747 6.09-3.506 0-4.922-1.836-4.472-5.997l.005-.093v-5.331l-.013-.15c-.555-3.152-2.801-4.795-6.45-4.795-3.607 0-6.038 1.587-7.088 4.667l-.046.135v3.356H4.86v-3.067c.813-2.24 2.516-3.318 5.302-3.318z" fill="#FF5252"/><path d="M4.119 41.98c2.275 0 4.119-1.785 4.119-3.988 0-2.204-1.844-3.99-4.119-3.99-2.275 0-4.119 1.786-4.119 3.99 0 2.203 1.844 3.989 4.119 3.989zm0-1.772c-1.264 0-2.288-.992-2.288-2.216 0-1.224 1.024-2.217 2.288-2.217 1.264 0 2.288.993 2.288 2.217 0 1.224-1.024 2.216-2.288 2.216z" fill="#FF5252"/></svg>