<svg width="128" height="36" xmlns="http://www.w3.org/2000/svg"><path d="M18.5.5h91q.461 0 .919.021t.912.063q.454.042.903.105.449.062.892.146.443.083.879.187.437.105.865.229.429.124.849.269.42.144.831.309.411.164.811.348.401.183.79.386.39.203.767.425.378.221.743.46.365.24.716.498.352.258.69.532.337.275.66.566.323.291.63.599.308.307.599.63t.566.66q.274.338.532.69.257.351.497.716t.461.743q.222.377.425.767.203.39.386.79.184.4.348.811.165.41.309.83.145.421.269.85.125.428.229.865.104.436.187.88.084.442.146.891.063.45.105.903.042.454.063.912.021.458.021.919v-1q0 .461-.021.919t-.063.912q-.042.454-.105.903-.062.449-.146.892-.083.443-.187.88-.104.436-.229.864-.124.429-.269.85-.144.42-.309.83-.164.41-.348.811-.183.4-.386.79t-.425.767q-.221.378-.461.743-.24.365-.497.716-.257.352-.532.69-.275.337-.566.66-.291.323-.599.63-.307.308-.63.599t-.66.566q-.338.275-.69.532-.351.257-.716.497t-.743.461q-.377.222-.767.425-.389.203-.79.386-.4.184-.811.348-.411.165-.831.31-.42.144-.849.268-.428.124-.865.229-.436.104-.879.187-.443.084-.892.146-.449.063-.903.105-.454.042-.912.063-.458.021-.919.021h-91q-.461 0-.919-.021t-.912-.063q-.454-.042-.903-.105-.449-.062-.892-.146-.443-.083-.88-.187-.436-.105-.864-.229-.429-.124-.85-.269-.42-.144-.83-.309-.41-.164-.811-.348-.4-.183-.79-.386t-.767-.425q-.378-.221-.743-.46-.365-.24-.716-.498-.352-.258-.69-.532-.337-.275-.66-.566-.323-.291-.63-.599-.308-.307-.599-.63t-.566-.66q-.274-.338-.532-.69-.257-.351-.497-.716t-.461-.743q-.222-.377-.425-.767-.203-.39-.386-.79-.184-.4-.348-.811-.165-.41-.31-.83-.144-.421-.268-.85-.124-.428-.229-.865-.104-.436-.187-.88-.084-.442-.146-.891-.063-.45-.105-.903-.042-.454-.063-.912Q.5 17.961.5 17.5v1q0-.461.021-.919t.063-.912q.042-.454.105-.903.062-.449.146-.892.083-.443.187-.88.105-.436.229-.864.124-.429.269-.85.144-.42.309-.83.164-.41.348-.811.183-.4.386-.79t.425-.767q.221-.378.46-.743.24-.365.498-.716.258-.352.532-.69.275-.337.566-.66.291-.323.599-.63.307-.308.63-.599t.66-.566q.338-.274.69-.532.351-.257.716-.497t.743-.461q.377-.222.767-.425.39-.203.79-.386.4-.184.811-.348.41-.165.83-.31.421-.144.85-.268.428-.124.865-.229.436-.104.88-.187.442-.084.891-.146.45-.063.903-.105.454-.042.912-.063Q18.039.5 18.5.5z" fill="none" stroke="#FFF"/><path d="M35.442 16.34c-.023-2.575 2.112-3.828 2.21-3.886-1.21-1.76-3.084-2.001-3.742-2.02-1.574-.166-3.101.94-3.903.94-.818 0-2.053-.924-3.383-.897-1.713.026-3.315 1.016-4.193 2.554-1.814 3.134-.461 7.74 1.276 10.274.869 1.241 1.884 2.626 3.214 2.577 1.3-.053 1.786-.828 3.355-.828 1.555 0 2.01.828 3.366.796 1.396-.02 2.275-1.246 3.113-2.498 1.004-1.42 1.408-2.823 1.424-2.895-.032-.01-2.71-1.03-2.737-4.117m-2.561-7.573c.7-.873 1.178-2.061 1.045-3.267-1.012.045-2.278.7-3.007 1.553-.645.753-1.22 1.987-1.072 3.147 1.137.084 2.305-.573 3.034-1.433M53.41 26.344h-1.788l-.98-3.123h-3.406l-.934 3.123h-1.741l3.375-10.633h2.084l3.39 10.633zm-3.064-4.434l-.886-2.775c-.093-.285-.27-.953-.528-2.004H48.9c-.104.452-.27 1.12-.498 2.004l-.87 2.775h2.814zm11.728.506c0 1.304-.35 2.335-1.048 3.091-.625.674-1.403 1.01-2.33 1.01-1.001 0-1.721-.362-2.158-1.088v4.023h-1.68v-8.255c0-.819-.02-1.659-.062-2.52h1.477l.094 1.216h.031c.56-.916 1.41-1.374 2.551-1.374.892 0 1.636.357 2.232 1.072.594.717.893 1.658.893 2.825zm-1.711.062c0-.746-.166-1.361-.498-1.845-.363-.504-.85-.758-1.462-.758-.414 0-.79.141-1.127.42a1.937 1.937 0 0 0-.661 1.096c-.052.21-.078.382-.078.518v1.28c0 .556.169 1.026.506 1.412.337.383.775.576 1.314.576.632 0 1.124-.249 1.477-.742.352-.494.529-1.146.529-1.957zm10.405-.062c0 1.304-.35 2.335-1.048 3.091-.626.674-1.403 1.01-2.33 1.01-1.001 0-1.721-.362-2.16-1.088v4.023h-1.678v-8.255c0-.819-.022-1.659-.063-2.52h1.477l.094 1.216h.032c.559-.916 1.409-1.374 2.55-1.374.891 0 1.636.357 2.232 1.072.594.717.894 1.658.894 2.825zm-1.712.062c0-.746-.166-1.361-.499-1.845-.362-.504-.849-.758-1.46-.758-.414 0-.79.141-1.129.42a1.94 1.94 0 0 0-.66 1.096c-.051.21-.079.382-.079.518v1.28c0 .556.17 1.026.505 1.412.337.382.775.576 1.316.576.633 0 1.125-.249 1.477-.742.353-.494.529-1.146.529-1.957zm11.432.884c0 .905-.311 1.64-.932 2.209-.682.62-1.634.93-2.855.93-1.128 0-2.033-.22-2.715-.662l.389-1.42a4.63 4.63 0 0 0 2.426.663c.633 0 1.125-.145 1.477-.434.353-.29.53-.675.53-1.158 0-.432-.147-.795-.437-1.09-.29-.293-.77-.568-1.445-.819-1.835-.694-2.754-1.71-2.754-3.045 0-.873.325-1.587.971-2.146.648-.557 1.507-.836 2.575-.836.954 0 1.748.168 2.38.505l-.422 1.388c-.594-.326-1.264-.489-2.014-.489-.593 0-1.058.148-1.39.442-.28.263-.422.583-.422.964 0 .42.162.768.484 1.04.279.252.787.527 1.523.82.903.37 1.565.8 1.99 1.293.428.494.641 1.11.641 1.845m5.567-3.407h-1.851v3.723c0 .947.326 1.419.98 1.419.3 0 .549-.026.746-.08l.046 1.294c-.33.126-.766.189-1.305.189-.664 0-1.182-.206-1.557-.616-.373-.411-.56-1.099-.56-2.067v-3.865h-1.102v-1.278h1.102V17.27l1.65-.505v1.909h1.85v1.281m8.336 2.492c0 1.179-.331 2.146-.995 2.903-.694.778-1.618 1.167-2.768 1.167-1.111 0-1.994-.373-2.653-1.12-.658-.745-.987-1.687-.987-2.822 0-1.188.34-2.161 1.018-2.918.68-.756 1.594-1.136 2.745-1.136 1.11 0 2 .375 2.675 1.12.645.725.965 1.659.965 2.806zm-1.74.04c0-.703-.15-1.305-.45-1.81-.352-.608-.857-.912-1.51-.912-.671 0-1.189.304-1.54.913-.301.504-.45 1.117-.45 1.84 0 .704.149 1.308.45 1.81.364.609.87.913 1.527.913.641 0 1.145-.311 1.51-.928.307-.516.462-1.123.462-1.827zm7.201-2.312a2.884 2.884 0 0 0-.529-.046c-.59 0-1.048.224-1.369.678-.28.4-.419.904-.419 1.514v4.023h-1.68V21.09c0-.882-.016-1.689-.048-2.413h1.463l.061 1.467h.047c.178-.504.456-.911.84-1.215a2.01 2.01 0 0 1 1.213-.411c.155 0 .295.012.42.03l.001 1.626m7.511 1.974c0 .305-.02.562-.061.772h-5.038c.019.758.264 1.338.73 1.737.425.357.975.536 1.649.536.745 0 1.426-.12 2.038-.363l.263 1.182c-.715.316-1.56.474-2.534.474-1.172 0-2.092-.35-2.762-1.048-.667-.7-1.002-1.64-1.002-2.816 0-1.155.31-2.118.934-2.886.652-.82 1.534-1.23 2.643-1.23 1.09 0 1.914.41 2.473 1.23.444.65.667 1.455.667 2.412zm-1.601-.442c.012-.506-.099-.94-.326-1.31-.29-.474-.738-.71-1.338-.71-.55 0-.996.23-1.337.694-.28.368-.445.811-.497 1.324l3.498.002zM49.892 12.05h-.879l-.48-1.535H46.86l-.459 1.535h-.855l1.657-5.227h1.023l1.665 5.227zm-1.504-2.18l-.435-1.364a20.6 20.6 0 0 1-.26-.984h-.016c-.053.224-.13.55-.244.984l-.427 1.365h1.382zm5.646-1.588L52.63 12.05h-.801l-1.36-3.768h.886l.634 1.992c.107.333.199.651.267.953h.023a12.7 12.7 0 0 1 .266-.953l.627-1.992h.863m2.99 3.768l-.061-.434h-.023c-.252.349-.618.52-1.084.52-.664 0-1.137-.474-1.137-1.11 0-.93.793-1.41 2.168-1.41v-.07c0-.497-.26-.745-.771-.745a1.71 1.71 0 0 0-.97.28l-.167-.55c.344-.218.77-.327 1.275-.327.97 0 1.459.52 1.459 1.559v1.388c0 .38.015.675.053.9l-.742-.001zm-.115-1.877c-.916 0-1.374.225-1.374.76 0 .395.237.588.565.588.42 0 .81-.325.81-.767v-.581zm3.011-2.513c-.483 0-.86-.217-.86-.503 0-.287.39-.497.888-.497.497 0 .9.21.887.497 0 .302-.376.504-.915.504zm-.698.622h1.452v3.768h-1.452V8.282zm2.219-1.729h.825v5.497h-.825V6.553zm4.328 5.497l-.062-.434h-.022c-.252.349-.618.52-1.084.52-.664 0-1.137-.474-1.137-1.11 0-.93.793-1.41 2.168-1.41v-.07c0-.497-.26-.745-.771-.745a1.71 1.71 0 0 0-.97.28l-.168-.552c.344-.217.771-.326 1.275-.326.97 0 1.46.52 1.46 1.56v1.387c0 .38.015.675.052.9h-.74zm-.114-1.877c-.917 0-1.375.225-1.375.76 0 .395.237.588.565.588.42 0 .81-.325.81-.767v-.581zm4.142 1.962c-.526 0-.915-.225-1.167-.667h-.016l-.047.582h-.702c.022-.302.03-.644.03-1.016V6.553h.826v2.28h.015c.244-.419.64-.628 1.183-.628.894 0 1.52.776 1.52 1.907 0 1.17-.696 2.023-1.642 2.023zm-.168-3.273c-.474 0-.908.42-.908 1v.66c0 .52.39.946.894.946.617 0 .985-.511.985-1.326 0-.76-.383-1.28-.97-1.28zm3.03-2.309h.823v5.497h-.823V6.553zm5.31 3.814h-2.474c.016.713.48 1.116 1.167 1.116a2.74 2.74 0 0 0 1-.178l.129.582c-.35.155-.763.232-1.244.232-1.16 0-1.848-.745-1.848-1.9 0-1.154.704-2.023 1.756-2.023.946 0 1.543.714 1.543 1.791.002.147-.005.28-.029.38zm-.755-.597c0-.582-.29-.992-.818-.992-.473 0-.846.418-.901.992h1.72zm5.752 2.365c-1.084 0-1.786-.822-1.786-1.938 0-1.164.717-1.993 1.848-1.993 1.068 0 1.787.783 1.787 1.931 0 1.178-.741 2-1.849 2zM83 8.816c-.596 0-.977.566-.977 1.357 0 .776.39 1.341.969 1.341.58 0 .969-.605.969-1.357 0-.767-.381-1.34-.961-1.34zm6.248 3.234h-.823V9.886c0-.666-.252-1-.749-1-.488 0-.825.426-.825.922v2.242h-.823V9.359c0-.334-.01-.69-.031-1.078h.725l.039.581h.023c.22-.402.671-.659 1.175-.659.778 0 1.289.605 1.289 1.59v2.257m5.394-3.14h-.907v1.83c0 .465.16.698.48.698.145 0 .268-.016.366-.04l.023.636c-.16.063-.375.094-.64.094-.65 0-1.038-.364-1.038-1.318v-1.9h-.54v-.628h.54v-.69l.809-.25v.939h.907v.629m4.366 3.14h-.825V9.902c0-.674-.253-1.016-.748-1.016-.428 0-.824.295-.824.892v2.272h-.825V6.553h.825v2.263h.016c.258-.41.634-.613 1.114-.613.786 0 1.267.62 1.267 1.605v2.242m4.212-1.683h-2.474c.016.713.48 1.116 1.168 1.116.368 0 .703-.062.999-.178l.129.582c-.35.155-.763.232-1.245.232-1.16 0-1.847-.745-1.847-1.9 0-1.154.703-2.023 1.755-2.023.947 0 1.543.714 1.543 1.791a1.64 1.64 0 0 1-.028.38zm-.756-.597c0-.582-.29-.992-.816-.992-.474 0-.847.418-.902.992h1.718z" fill="#FFF"/></svg>