<svg width="38" height="43" xmlns="http://www.w3.org/2000/svg"><path d="M6.045 14h25.91C35.292 14 38 16.754 38 20.152v16.697C38 40.245 35.293 43 31.954 43H6.046C2.707 43 0 40.246 0 36.849V20.152C0 16.754 2.707 14 6.045 14zm0 1.758c-2.384 0-4.318 1.967-4.318 4.394v16.697c0 2.426 1.934 4.393 4.318 4.393h25.91c2.384 0 4.318-1.967 4.318-4.393V20.152c0-2.427-1.934-4.394-4.319-4.394H6.046z" fill="#FF5252"/><path d="M24 26.352C24 23.396 21.761 21 19 21s-5 2.396-5 5.352c0 1.936.97 3.686 2.493 4.631.004.164-.001.357-.02.895-.023.608-.03.97-.02 1.378C16.512 35.543 17.19 37 19 37c1.812 0 2.485-1.46 2.525-3.737.007-.409-.003-.778-.03-1.376a18.39 18.39 0 0 1-.03-.878C23.01 30.071 24 28.307 24 26.352zm-5 8.864c-.578 0-.844-.572-.88-2.008-.009-.357-.003-.69.018-1.261.025-.689.029-.857.018-1.118-.026-.64-.121-1.012-.606-1.264-1.143-.592-1.883-1.831-1.883-3.213 0-1.97 1.492-3.568 3.333-3.568 1.841 0 3.333 1.597 3.333 3.568 0 1.4-.76 2.651-1.923 3.234-.5.25-.59.621-.61 1.275-.007.257-.002.4.03 1.112.026.56.035.899.028 1.256-.025 1.424-.284 1.987-.858 1.987zM13.963 0h11.074C28.33 0 31 2.786 31 6.222V16H8V6.222C8 2.786 10.67 0 13.963 0zm15.333 14.222v-8c0-2.454-1.907-4.444-4.259-4.444H13.963c-2.352 0-4.26 1.99-4.26 4.444v8h19.593z" fill="#FF5252"/></svg>