<svg width="31" height="50" xmlns="http://www.w3.org/2000/svg"><path d="M4.19 0h22.62C29.125 0 31 1.897 31 4.237v41.526C31 48.103 29.124 50 26.81 50H4.19C1.875 50 0 48.103 0 45.763V4.237C0 1.897 1.876 0 4.19 0zm0 1.695c-1.389 0-2.514 1.138-2.514 2.542v41.526c0 1.404 1.125 2.542 2.513 2.542h22.622c1.388 0 2.513-1.138 2.513-2.542V4.237c0-1.404-1.125-2.542-2.513-2.542H4.189z" fill="#FF5252"/><path d="M7.167 3h16.666C26.135 3 28 4.882 28 7.205v28.59C28 38.118 26.134 40 23.833 40H7.167C4.865 40 3 38.118 3 35.795V7.205C3 4.882 4.865 3 7.167 3zm0 1.682c-1.381 0-2.5 1.13-2.5 2.523v28.59c0 1.394 1.119 2.523 2.5 2.523h16.666c1.381 0 2.5-1.13 2.5-2.523V7.205c0-1.394-1.119-2.523-2.5-2.523H7.167zM15.5 48a3.5 3.5 0 1 0 0-7 3.5 3.5 0 0 0 0 7zm0-1.75a1.75 1.75 0 1 1 0-3.5 1.75 1.75 0 0 1 0 3.5z" fill="#FF5252"/></svg>