<svg width="19" height="22" xmlns="http://www.w3.org/2000/svg"><path d="M3.023 7.163h12.954c1.67 0 3.023 1.409 3.023 3.147v8.543C19 20.59 17.647 22 15.977 22H3.023C1.353 22 0 20.59 0 18.853V10.31c0-1.738 1.353-3.147 3.023-3.147zm0 .9c-1.193 0-2.16 1.006-2.16 2.247v8.543c0 1.241.967 2.248 2.16 2.248h12.954c1.193 0 2.16-1.007 2.16-2.248V10.31c0-1.241-.967-2.248-2.16-2.248H3.023z" fill="#FF5252"/><path d="M12 13.482c0-1.512-1.12-2.738-2.5-2.738S7 11.97 7 13.482c0 .99.485 1.886 1.247 2.37a9.21 9.21 0 0 1-.01.457c-.012.312-.015.497-.01.706.028 1.17.368 1.915 1.273 1.915.906 0 1.242-.747 1.262-1.912.004-.209-.001-.398-.015-.704a9.63 9.63 0 0 1-.015-.449c.774-.48 1.268-1.382 1.268-2.383zm-2.5 4.536c-.289 0-.422-.293-.44-1.028a10.94 10.94 0 0 1 .009-.645c.012-.352.014-.439.009-.572-.013-.328-.06-.518-.303-.647-.571-.303-.942-.937-.942-1.644 0-1.008.747-1.825 1.667-1.825s1.667.817 1.667 1.825c0 .716-.38 1.357-.962 1.655-.25.128-.295.318-.305.652-.003.132-.001.205.015.57.013.286.017.459.014.642-.012.728-.142 1.016-.429 1.016zM6.981 0h5.538C14.165 0 15.5 1.425 15.5 3.183v5.003H4V3.183C4 1.425 5.335 0 6.981 0zm7.667 7.276V3.183c0-1.255-.953-2.273-2.13-2.273H6.982c-1.176 0-2.13 1.018-2.13 2.273v4.093h9.797z" fill="#FF5252"/></svg>