<svg width="127" height="35" xmlns:xlink="http://www.w3.org/1999/xlink" xmlns="http://www.w3.org/2000/svg"><defs><linearGradient x1=".607" y1=".096" x2=".99" y2=".609" id="d"><stop offset="0" stop-color="#FF177B"/><stop offset="1" stop-color="#FFEC73"/></linearGradient><linearGradient x1=".063" y1="-.44" x2="-1.196" y2="1.011" id="e"><stop offset="0" stop-color="#064AA2"/><stop offset="1" stop-color="#63FFD4"/></linearGradient><linearGradient x1=".846" y1=".5" x2="-.073" y2="1" id="h"><stop offset="0" stop-color="#FF4521"/><stop offset="1" stop-color="#8A33DB"/></linearGradient><linearGradient x1="0" y1="-.839" x2=".642" y2="1.403" id="i"><stop offset="0" stop-color="#00A3B5"/><stop offset="1" stop-color="#D6FFA1"/></linearGradient><path d="M9.908 9.222L.356 0C.134.053 0 .223 0 .508v17.646c0 .242.096.387.214.436l9.694-9.368z" id="a"/><path d="M.393 9.315l5.52-3.09 2.44-1.375 4.015-2.203L9.694 0 0 9.369c.108.035.298.016.447-.06" transform="translate(.002 .037)" id="b"/><path d="M.514.106C.33.006.148-.023 0 .018l9.56 9.235 2.644-2.55-3.986-2.249-6.026-3.401L.514.106z" transform="translate(.065 .05)" id="c"/><clipPath id="f"><use xlink:href="#a"/></clipPath><clipPath id="g"><use xlink:href="#b"/></clipPath><clipPath id="j"><use xlink:href="#c"/></clipPath></defs><path d="M18 0h91q.461 0 .919.021t.912.063q.454.042.903.105.449.062.892.146.443.083.879.187.437.105.865.229.429.124.849.269.42.144.831.309.411.164.811.348.401.183.79.386.39.203.767.425.378.221.743.46.365.24.716.498.352.258.69.532.337.275.66.566.323.291.63.599.308.307.599.63t.566.66q.274.338.532.69.257.351.497.716t.461.743q.222.377.425.767.203.39.386.79.184.4.348.811.165.41.309.83.145.421.269.85.125.428.229.865.104.436.187.88.084.442.146.891.063.45.105.903.042.454.063.912.021.458.021.919v-1q0 .461-.021.919t-.063.912q-.042.454-.105.903-.062.449-.146.892-.083.443-.187.88-.104.436-.229.864-.124.429-.269.85-.144.42-.309.83-.164.41-.348.811-.183.4-.386.79t-.425.767q-.221.378-.461.743-.24.365-.497.716-.257.352-.532.69-.275.337-.566.66-.291.323-.599.63-.307.308-.63.599t-.66.566q-.338.275-.69.532-.351.257-.716.497t-.743.461q-.377.222-.767.425-.389.203-.79.386-.4.184-.811.348-.411.165-.831.31-.42.144-.849.268-.428.124-.865.229-.436.104-.879.187-.443.084-.892.146-.449.063-.903.105-.454.042-.912.063-.458.021-.919.021H18q-.461 0-.919-.021t-.912-.063q-.454-.042-.903-.105-.449-.062-.892-.146-.443-.083-.88-.187-.436-.105-.864-.229-.429-.124-.85-.269-.42-.144-.83-.309-.41-.164-.811-.348-.4-.183-.79-.386t-.767-.425q-.378-.221-.743-.46-.365-.24-.716-.498-.352-.257-.69-.532-.337-.275-.66-.566-.323-.291-.63-.599-.308-.307-.599-.63t-.566-.66q-.274-.338-.532-.69-.257-.351-.497-.716t-.461-.743q-.222-.377-.425-.767-.203-.39-.386-.79-.184-.4-.348-.811-.165-.41-.31-.83-.144-.421-.268-.85-.124-.428-.229-.865-.104-.436-.187-.88-.084-.442-.146-.891-.063-.45-.105-.903-.042-.454-.063-.912Q0 17.461 0 17v1q0-.461.021-.919t.063-.912q.042-.454.105-.903.062-.449.146-.892.083-.443.187-.88.105-.436.229-.864.124-.429.269-.85.144-.42.309-.83.164-.41.348-.811.183-.4.386-.79t.425-.767q.221-.378.46-.743.24-.365.498-.716.258-.352.532-.69.275-.337.566-.66.291-.323.599-.63.307-.308.63-.599t.66-.566q.338-.274.69-.532.351-.257.716-.497t.743-.461q.377-.222.767-.425.39-.203.79-.386.4-.184.811-.348.41-.165.83-.31.421-.144.85-.268.428-.124.865-.229.436-.104.88-.187.442-.084.891-.146.45-.063.903-.105.454-.042.912-.063Q17.539 0 18 0z" fill="none" stroke="#FFF"/><path d="M8.543 4.454L.853.114C.425-.129 0 .018 0 .521v17.683c0 .378.304.541.675.332l7.868-4.441 1.528-.862 2.458-1.387 3.833-2.163c.45-.254.406-.602.027-.802-.38-.2-3.86-2.177-3.86-2.177l-3.986-2.25z" transform="translate(16.023 12.05)" fill="url(#d)"/><path d="M9.908 9.222L.356 0C.134.053 0 .223 0 .508v17.646c0 .242.096.387.214.436l9.694-9.368z" fill="url(#e)" transform="translate(16 12.073)"/><path d="M25.908 21.295l-9.552-9.222c-.222.052-.356.222-.356.508v17.645c0 .243.096.387.214.436l9.694-9.367z" fill="none"/><g clip-path="url(#f)" transform="translate(16 12.073)"><path d="M12.545 6.68L8.554 4.43C8.54 4.462 1.279.355.855.145.425-.128 0 .02 0 .508v17.718c0 .39.304.554.642.364.403-.23 7.898-4.47 7.912-4.503l3.991-2.25c-.02.03 3.36-1.882 3.778-2.107.482-.283.438-.632.071-.798-.391-.235-3.87-2.216-3.849-2.251" fill="none"/></g><path d="M16.607 30.61l5.52-3.09 2.44-1.376 4.014-2.203-2.673-2.645-9.694 9.368c.108.036.299.016.447-.059" fill="none"/><g clip-path="url(#g)" transform="translate(16.213 21.259)"><path d="M8.554 4.42C8.54 4.453 1.279.346.855.136.425-.137 0 .009 0 .499v17.718c0 .39.304.553.642.363.403-.229 7.898-4.469 7.912-4.502l3.991-2.251c-.02.031 3.36-1.882 3.778-2.106.482-.284.438-.632.071-.799-.391-.234-3.87-2.215-3.849-2.25L8.554 4.42z" transform="translate(-.213 -9.177)" fill="url(#h)"/></g><path d="M.514.106C.33.006.148-.023 0 .018l9.56 9.235 2.644-2.55-3.986-2.249-6.026-3.401L.514.106z" transform="translate(16.349 12.05)" fill="url(#i)"/><path d="M16.863 12.156c-.184-.1-.366-.13-.514-.089l9.56 9.236 2.644-2.55-3.987-2.25-6.026-3.4-1.677-.947z" fill="none"/><g clip-path="url(#j)" transform="translate(16.284 12)"><path d="M12.262 6.753L8.27 4.503C8.256 4.534.995.426.572.217.142-.055-.284.09-.284.58v17.718c0 .39.304.553.642.363.404-.229 7.898-4.469 7.912-4.502l3.992-2.251c-.021.031 3.36-1.882 3.777-2.106.482-.284.439-.632.072-.799-.392-.234-3.87-2.215-3.85-2.25" fill="none"/></g><g fill="#FFF"><path d="M82.045 23.633l-.768.756c-.177.101-.353.22-.53.303-.532.253-1.074.316-1.555.316-.513 0-1.316-.034-2.136-.653-1.138-.837-1.636-2.276-1.636-3.53 0-2.597 2.025-3.87 3.676-3.87.577 0 1.17.15 1.652.469.801.553 1.009 1.272 1.124 1.657l-3.771 1.59-1.235.1c.4 2.13 1.779 3.368 3.303 3.368.762 0 1.327-.26 1.846-.527 0 0 .104-.057.03.02zm-2.304-4.27c.302-.118.46-.219.46-.454 0-.673-.717-1.45-1.572-1.45-.634 0-1.823.524-1.823 2.345 0 .284.032.587.048.89l2.887-1.332z"/><path d="M74.175 23.542c0 .649.111.75.636.8.274.034.547.05.817.083l-.591.368h-2.818c.37-.501.433-.551.433-.885v-.373l-.006-9.932h-1.244L72.6 13h2.286c-.495.3-.644.483-.707 1.067l-.004 9.475"/><path d="M69.804 17.774c.366.316 1.131.985 1.131 2.254 0 1.237-.666 1.82-1.338 2.372-.207.217-.448.453-.448.817 0 .37.241.57.415.72l.577.465c.7.62 1.34 1.187 1.34 2.34 0 1.572-1.454 3.156-4.2 3.156-2.312 0-3.43-1.153-3.43-2.389 0-.601.286-1.453 1.23-2.036.99-.634 2.33-.718 3.048-.768-.224-.303-.48-.62-.48-1.138 0-.283.081-.451.16-.65-.175.017-.35.035-.51.035-1.694 0-2.65-1.322-2.65-2.624 0-.768.334-1.62 1.022-2.238.91-.784 1.995-.92 2.858-.92h3.289l-1.023.604h-.991zM68.68 25.17c-.132-.018-.211-.018-.37-.018-.147 0-1.016.033-1.69.272-.355.138-1.385.544-1.385 1.752 0 1.206 1.112 2.075 2.831 2.075 1.545 0 2.365-.783 2.365-1.836 0-.868-.53-1.325-1.751-2.245zm.451-3.217c.368-.384.4-.915.4-1.216 0-1.198-.682-3.063-2.003-3.063-.412 0-.859.217-1.112.552-.269.346-.35.796-.35 1.23 0 1.114.621 2.964 1.987 2.964.398 0 .827-.203 1.078-.467zm-9.275 3.055c-2.543 0-3.903-2.081-3.903-3.966 0-2.203 1.71-4.087 4.143-4.087 2.351 0 3.824 1.936 3.824 3.968 0 1.985-1.456 4.085-4.064 4.085zm1.988-1.361c.388-.54.482-1.214.482-1.87 0-1.486-.673-4.319-2.664-4.319-.529 0-1.062.218-1.447.572-.626.59-.738 1.332-.738 2.06 0 1.667.784 4.415 2.729 4.415a2.02 2.02 0 0 0 1.638-.858zm-10.51 1.361c-2.544 0-3.903-2.081-3.903-3.966 0-2.203 1.712-4.087 4.144-4.087 2.351 0 3.823 1.936 3.823 3.968 0 1.985-1.454 4.085-4.064 4.085zm1.99-1.361c.385-.54.481-1.214.481-1.87 0-1.486-.676-4.319-2.665-4.319a2.17 2.17 0 0 0-1.445.572c-.628.59-.74 1.332-.74 2.06 0 1.667.788 4.415 2.73 4.415.628 0 1.268-.32 1.638-.858zm-6.948.863l-2.153.516c-.873.144-1.656.27-2.486.27-4.154 0-5.737-3.194-5.737-5.694 0-3.052 2.243-5.883 6.083-5.883a8.45 8.45 0 0 1 2.307.328c1.129.33 1.657.74 1.986.978l-1.25 1.242-.528.123.376-.626c-.51-.52-1.446-1.479-3.223-1.479-2.376 0-4.168 1.887-4.168 4.641 0 2.958 2.046 5.741 5.329 5.741.964 0 1.46-.202 1.912-.391V21.74l-2.275.127 1.206-.676h3.191l-.39.392c-.105.094-.12.126-.15.251-.015.143-.03.599-.03.759v1.918m40.316-.801v4.246h-.81V17.15h.81v1.23c.529-.795 1.494-1.425 2.615-1.425 2.01 0 3.364 1.586 3.364 4.098 0 2.495-1.354 4.114-3.364 4.114-1.059 0-2.007-.567-2.615-1.457zm5.148-2.592c0-1.913-.952-3.372-2.64-3.372-1.049 0-2.051.863-2.487 1.615v3.496c.436.754 1.438 1.648 2.487 1.648 1.688 0 2.64-1.471 2.64-3.387zm1.94-6.968h.83v10.858h-.83V14.15zm9.87 13.059c.173.08.469.13.656.13.496 0 .842-.211 1.152-.957l.591-1.394-3.194-7.89h.905l2.74 6.838 2.712-6.837h.918l-3.896 9.545c-.404.983-1.04 1.456-1.913 1.456a3.07 3.07 0 0 1-.81-.113l.138-.778m-2.288-2.211a15.147 15.147 0 0 1-.125-.714c-.025-.2-.04-.405-.04-.614-.279.427-.675.783-1.18 1.062-.507.282-.988.42-1.648.42-.794 0-1.41-.203-1.85-.615-.44-.412-.66-.97-.66-1.676 0-.705.32-1.278.957-1.716.637-.44 1.46-.658 2.48-.658h1.902v-.977c0-.563-.185-1.006-.553-1.327-.37-.321-.889-.484-1.561-.484-.615 0-1.114.149-1.493.438-.377.295-.566.66-.566 1.101h-.835l-.017-.042c-.03-.594.231-1.115.787-1.565.553-.45 1.277-.676 2.17-.676.888 0 1.608.222 2.15.667.541.44.813 1.075.813 1.906v3.88c0 .279.013.548.047.81.034.263.089.526.162.78h-.94zm-2.895-.565c.692 0 1.19-.162 1.698-.482.505-.318.849-.733 1.029-1.235v-1.519h-1.91c-.729 0-1.333.17-1.808.51-.475.34-.716.75-.716 1.228 0 .451.152.812.456 1.085.304.276.72.413 1.251.413z"/></g><path d="M36.003 7.594c0-1.539 1.19-2.529 2.67-2.529.991 0 1.64.455 2.044 1.012l-.724.403a1.662 1.662 0 0 0-1.32-.652c-1.007 0-1.755.732-1.755 1.766 0 1.018.748 1.765 1.755 1.765.519 0 .976-.227 1.205-.44v-.754h-1.526V7.41h2.41v1.825a2.798 2.798 0 0 1-2.09.894c-1.48 0-2.67-1.004-2.67-2.535m5.915 2.46V5.14h3.534v.76h-2.63v1.266h2.576v.759h-2.575v1.37h2.629v.76h-3.534m5.937-.001V5.9h-1.538v-.76h3.967v.76h-1.538v4.155h-.89m5.601-4.915h.866v4.914h-.866V5.14zm3.342 4.914V5.9h-1.539v-.76h3.967v.76h-1.537v4.155h-.891m5.385-2.458c0-1.46 1.088-2.532 2.633-2.532 1.535 0 2.632 1.072 2.632 2.532s-1.097 2.532-2.632 2.532c-1.545 0-2.633-1.072-2.633-2.532zm4.327-.037c0-1.002-.667-1.75-1.694-1.75-1.036 0-1.695.748-1.695 1.75 0 .994.66 1.75 1.695 1.75 1.027 0 1.694-.756 1.694-1.75zm5.487 2.494l-2.65-3.514v3.514h-.89V5.14h.914l2.595 3.404V5.14h.89v4.914h-.86" fill="#FFF"/></svg>