<svg width="27" height="27" xmlns="http://www.w3.org/2000/svg"><g fill="#FF5252"><path d="M2.978 2.89l5.056 5.62.727-.655-5.056-5.618-.727.654z"/><path d="M5.87 9.04a3.913 3.913 0 1 0 0-7.825 3.913 3.913 0 0 0 0 7.826zm0-.977a2.935 2.935 0 1 1 0-5.87 2.935 2.935 0 0 1 0 5.87zm16.438-4.195a5.136 5.136 0 0 1 0 7.263L10.895 22.545a5.136 5.136 0 0 1-7.263-7.263L15.045 3.868a5.136 5.136 0 0 1 7.263 0zm-.691.692a4.158 4.158 0 0 0-5.88 0L4.323 15.973a4.158 4.158 0 1 0 5.88 5.88L21.617 10.44a4.158 4.158 0 0 0 0-5.88z"/><path d="M11.176 11.65l3.459 3.459L9.1 20.643a2.446 2.446 0 0 1-3.459-3.459l5.534-5.534zm0 1.384l-4.842 4.842A1.467 1.467 0 0 0 8.41 19.95l4.842-4.842-2.075-2.075z"/></g></svg>