<?xml version="1.0" encoding="utf-8"?>
<svg width="394px" height="394px" viewBox="0 0 394 394" version="1.1" xmlns:xlink="http://www.w3.org/1999/xlink" xmlns="http://www.w3.org/2000/svg">
  <desc>Created with Lunacy</desc>
  <g id="Group-30" opacity="0.15">
    <g id="Group-28-Copy">
      <path d="M196.81 393.619C305.505 393.619 393.619 305.505 393.619 196.81C393.619 88.1147 305.505 0 196.81 0C88.1147 0 0 88.1147 0 196.81C0 305.505 88.1147 393.619 196.81 393.619ZM196.81 385.244C92.74 385.244 8.37488 300.879 8.37488 196.81C8.37488 92.74 92.74 8.37488 196.81 8.37488C300.879 8.37488 385.244 92.74 385.244 196.81C385.244 300.879 300.879 385.244 196.81 385.244Z" transform="translate(0.1903382 0.1903382)" id="Oval" fill="#DCDCDC" stroke="none" />
    </g>
    <g id="Group-29" transform="translate(100 102)">
      <path d="M0 5.63597L43.594 54.0227L49.8628 48.3867L6.2688 0L0 5.63597Z" transform="translate(25.67141 18.01986)" id="Line-4" fill="#FF8A65" stroke="none" />
      <path d="M33.7352 67.3993C52.3667 67.3993 67.4704 52.3114 67.4704 33.6996C67.4704 15.0878 52.3667 0 33.7352 0C15.1038 0 0 15.0878 0 33.6996C0 52.3114 15.1038 67.3993 33.7352 67.3993ZM33.7352 58.9744C19.7616 58.9744 8.4338 47.6585 8.4338 33.6996C8.4338 19.7408 19.7616 8.42491 33.7352 8.42491C47.7088 8.42491 59.0366 19.7408 59.0366 33.6996C59.0366 47.6585 47.7088 58.9744 33.7352 58.9744Z" transform="translate(16.86761 9.225348)" id="Oval" fill="#FF8A65" stroke="none" />
      <path d="M44.2775 0C68.7312 -4.48735e-15 88.5549 19.8028 88.5549 44.2308L88.5549 183.242C88.5549 207.67 68.7312 227.473 44.2775 227.473C19.8237 227.473 0 207.67 0 183.242L0 44.2308C0 19.8028 19.8237 4.48735e-15 44.2775 0ZM44.2775 8.42491C24.4816 8.42491 8.4338 24.4557 8.4338 44.2308L8.4338 183.242C8.4338 203.017 24.4816 219.048 44.2775 219.048C64.0734 219.048 80.1211 203.017 80.1211 183.242L80.1211 44.2308C80.1211 24.4557 64.0734 8.42491 44.2775 8.42491Z" transform="matrix(0.7071066 0.7071069 -0.7071069 0.7071066 160.9323 0.767427)" id="Rectangle" fill="#FF8A65" stroke="none" />
      <path d="M0 0L42.169 0L42.169 67.3993C42.169 79.0316 32.7292 88.4615 21.0845 88.4615C9.43986 88.4615 0 79.0316 0 67.3993L0 0ZM8.4338 8.42491L8.4338 67.3993C8.4338 74.3787 14.0977 80.0366 21.0845 80.0366C28.0713 80.0366 33.7352 74.3787 33.7352 67.3993L33.7352 8.42491L8.4338 8.42491Z" transform="matrix(0.7071066 0.7071069 -0.7071069 0.7071066 96.32001 99.08033)" id="Rectangle-Copy-24" fill="#FF8A65" stroke="none" />
    </g>
  </g>
</svg>